<?xml version="1.0" encoding="UTF-8" standalone="no"?>
<!DOCTYPE svg PUBLIC "-//W3C//DTD SVG 1.1//EN"
 "http://www.w3.org/Graphics/SVG/1.1/DTD/svg11.dtd">
<!-- Generated by graphviz version 2.40.1 (20161225.0304)
 -->
<!-- Title: %3 Pages: 1 -->
<svg width="1678pt" height="210pt"
 viewBox="0.00 0.00 1678.00 210.00" xmlns="http://www.w3.org/2000/svg" xmlns:xlink="http://www.w3.org/1999/xlink">
<g id="graph0" class="graph" transform="scale(1 1) rotate(0) translate(4 206)">
<title>%3</title>
<polygon fill="#ffffff" stroke="transparent" points="-4,4 -4,-206 1674,-206 1674,4 -4,4"/>
<!-- 140292327581200 -->
<g id="node1" class="node">
<title>140292327581200</title>
<polygon fill="none" stroke="#000000" points="3.5,-165.5 3.5,-201.5 262.5,-201.5 262.5,-165.5 3.5,-165.5"/>
<text text-anchor="middle" x="44" y="-179.8" font-family="Times,serif" font-size="14.00" fill="#000000">calificacion</text>
<polyline fill="none" stroke="#000000" points="84.5,-165.5 84.5,-201.5 "/>
<text text-anchor="middle" x="130" y="-179.8" font-family="Times,serif" font-size="14.00" fill="#000000">valor 5.0000</text>
<polyline fill="none" stroke="#000000" points="175.5,-165.5 175.5,-201.5 "/>
<text text-anchor="middle" x="219" y="-179.8" font-family="Times,serif" font-size="14.00" fill="#000000">grad 0.0707</text>
</g>
<!-- 140292327583504* -->
<g id="node8" class="node">
<title>140292327583504*</title>
<ellipse fill="none" stroke="#000000" cx="329" cy="-128.5" rx="27" ry="18"/>
<text text-anchor="middle" x="329" y="-124.8" font-family="Times,serif" font-size="14.00" fill="#000000">*</text>
</g>
<!-- 140292327581200&#45;&gt;140292327583504* -->
<g id="edge10" class="edge">
<title>140292327581200&#45;&gt;140292327583504*</title>
<path fill="none" stroke="#000000" d="M233.819,-165.461C244.7679,-162.7835 255.676,-159.7986 266,-156.5 276.7137,-153.0769 288.0505,-148.3942 298.1095,-143.8378"/>
<polygon fill="#000000" stroke="#000000" points="299.7156,-146.9508 307.3002,-139.5532 296.7578,-140.6063 299.7156,-146.9508"/>
</g>
<!-- 140292327582864 -->
<g id="node2" class="node">
<title>140292327582864</title>
<polygon fill="none" stroke="#000000" points="759.5,-27.5 759.5,-63.5 968.5,-63.5 968.5,-27.5 759.5,-27.5"/>
<text text-anchor="middle" x="771.5" y="-41.8" font-family="Times,serif" font-size="14.00" fill="#000000">b</text>
<polyline fill="none" stroke="#000000" points="783.5,-27.5 783.5,-63.5 "/>
<text text-anchor="middle" x="832.5" y="-41.8" font-family="Times,serif" font-size="14.00" fill="#000000">valor 12.0000</text>
<polyline fill="none" stroke="#000000" points="881.5,-27.5 881.5,-63.5 "/>
<text text-anchor="middle" x="925" y="-41.8" font-family="Times,serif" font-size="14.00" fill="#000000">grad 0.0707</text>
</g>
<!-- 140292327529360+ -->
<g id="node15" class="node">
<title>140292327529360+</title>
<ellipse fill="none" stroke="#000000" cx="1033" cy="-72.5" rx="27" ry="18"/>
<text text-anchor="middle" x="1033" y="-68.8" font-family="Times,serif" font-size="14.00" fill="#000000">+</text>
</g>
<!-- 140292327582864&#45;&gt;140292327529360+ -->
<g id="edge14" class="edge">
<title>140292327582864&#45;&gt;140292327529360+</title>
<path fill="none" stroke="#000000" d="M968.6262,-62.2154C978.6116,-63.8107 988.1989,-65.3424 996.7851,-66.7142"/>
<polygon fill="#000000" stroke="#000000" points="996.2943,-70.1801 1006.7213,-68.3016 997.3987,-63.2677 996.2943,-70.1801"/>
</g>
<!-- 140292327582480 -->
<g id="node3" class="node">
<title>140292327582480</title>
<polygon fill="none" stroke="#000000" points="392,-55.5 392,-91.5 632,-91.5 632,-55.5 392,-55.5"/>
<text text-anchor="middle" x="417" y="-69.8" font-family="Times,serif" font-size="14.00" fill="#000000">x1w1</text>
<polyline fill="none" stroke="#000000" points="442,-55.5 442,-91.5 "/>
<text text-anchor="middle" x="493.5" y="-69.8" font-family="Times,serif" font-size="14.00" fill="#000000">valor &#45;15.0000</text>
<polyline fill="none" stroke="#000000" points="545,-55.5 545,-91.5 "/>
<text text-anchor="middle" x="588.5" y="-69.8" font-family="Times,serif" font-size="14.00" fill="#000000">grad 0.0707</text>
</g>
<!-- 140292327528272+ -->
<g id="node12" class="node">
<title>140292327528272+</title>
<ellipse fill="none" stroke="#000000" cx="695" cy="-100.5" rx="27" ry="18"/>
<text text-anchor="middle" x="695" y="-96.8" font-family="Times,serif" font-size="14.00" fill="#000000">+</text>
</g>
<!-- 140292327582480&#45;&gt;140292327528272+ -->
<g id="edge11" class="edge">
<title>140292327582480&#45;&gt;140292327528272+</title>
<path fill="none" stroke="#000000" d="M632.0218,-91.2081C641.3904,-92.5904 650.3158,-93.9072 658.3476,-95.0923"/>
<polygon fill="#000000" stroke="#000000" points="657.9497,-98.5714 668.3535,-96.5686 658.9715,-91.6463 657.9497,-98.5714"/>
</g>
<!-- 140292327582480* -->
<g id="node4" class="node">
<title>140292327582480*</title>
<ellipse fill="none" stroke="#000000" cx="329" cy="-73.5" rx="27" ry="18"/>
<text text-anchor="middle" x="329" y="-69.8" font-family="Times,serif" font-size="14.00" fill="#000000">*</text>
</g>
<!-- 140292327582480*&#45;&gt;140292327582480 -->
<g id="edge1" class="edge">
<title>140292327582480*&#45;&gt;140292327582480</title>
<path fill="none" stroke="#000000" d="M356.0023,-73.5C363.4497,-73.5 372.0569,-73.5 381.3253,-73.5"/>
<polygon fill="#000000" stroke="#000000" points="381.6183,-77.0001 391.6182,-73.5 381.6182,-70.0001 381.6183,-77.0001"/>
</g>
<!-- 140292327581584 -->
<g id="node5" class="node">
<title>140292327581584</title>
<polygon fill="none" stroke="#000000" points="24.5,-55.5 24.5,-91.5 241.5,-91.5 241.5,-55.5 24.5,-55.5"/>
<text text-anchor="middle" x="42" y="-69.8" font-family="Times,serif" font-size="14.00" fill="#000000">w1</text>
<polyline fill="none" stroke="#000000" points="59.5,-55.5 59.5,-91.5 "/>
<text text-anchor="middle" x="107" y="-69.8" font-family="Times,serif" font-size="14.00" fill="#000000">valor &#45;3.0000</text>
<polyline fill="none" stroke="#000000" points="154.5,-55.5 154.5,-91.5 "/>
<text text-anchor="middle" x="198" y="-69.8" font-family="Times,serif" font-size="14.00" fill="#000000">grad 0.3533</text>
</g>
<!-- 140292327581584&#45;&gt;140292327582480* -->
<g id="edge8" class="edge">
<title>140292327581584&#45;&gt;140292327582480*</title>
<path fill="none" stroke="#000000" d="M241.6046,-73.5C259.657,-73.5 277.2238,-73.5 291.8158,-73.5"/>
<polygon fill="#000000" stroke="#000000" points="291.8798,-77.0001 301.8797,-73.5 291.8797,-70.0001 291.8798,-77.0001"/>
</g>
<!-- 140292327582608 -->
<g id="node6" class="node">
<title>140292327582608</title>
<polygon fill="none" stroke="#000000" points="0,-.5 0,-36.5 266,-36.5 266,-.5 0,-.5"/>
<text text-anchor="middle" x="41.5" y="-14.8" font-family="Times,serif" font-size="14.00" fill="#000000">sentimiento</text>
<polyline fill="none" stroke="#000000" points="83,-.5 83,-36.5 "/>
<text text-anchor="middle" x="128.5" y="-14.8" font-family="Times,serif" font-size="14.00" fill="#000000">valor 5.0000</text>
<polyline fill="none" stroke="#000000" points="174,-.5 174,-36.5 "/>
<text text-anchor="middle" x="220" y="-14.8" font-family="Times,serif" font-size="14.00" fill="#000000">grad &#45;0.2120</text>
</g>
<!-- 140292327582608&#45;&gt;140292327582480* -->
<g id="edge7" class="edge">
<title>140292327582608&#45;&gt;140292327582480*</title>
<path fill="none" stroke="#000000" d="M229.8363,-36.544C242.1055,-39.5145 254.4131,-42.837 266,-46.5 276.5759,-49.8434 287.8024,-54.3316 297.8036,-58.6876"/>
<polygon fill="#000000" stroke="#000000" points="296.3983,-61.8932 306.9558,-62.7819 299.2568,-55.5034 296.3983,-61.8932"/>
</g>
<!-- 140292327583504 -->
<g id="node7" class="node">
<title>140292327583504</title>
<polygon fill="none" stroke="#000000" points="398,-110.5 398,-146.5 626,-146.5 626,-110.5 398,-110.5"/>
<text text-anchor="middle" x="423" y="-124.8" font-family="Times,serif" font-size="14.00" fill="#000000">x2w2</text>
<polyline fill="none" stroke="#000000" points="448,-110.5 448,-146.5 "/>
<text text-anchor="middle" x="493.5" y="-124.8" font-family="Times,serif" font-size="14.00" fill="#000000">valor 5.0000</text>
<polyline fill="none" stroke="#000000" points="539,-110.5 539,-146.5 "/>
<text text-anchor="middle" x="582.5" y="-124.8" font-family="Times,serif" font-size="14.00" fill="#000000">grad 0.0707</text>
</g>
<!-- 140292327583504&#45;&gt;140292327528272+ -->
<g id="edge12" class="edge">
<title>140292327583504&#45;&gt;140292327528272+</title>
<path fill="none" stroke="#000000" d="M626.0763,-111.0457C637.6779,-109.2706 648.7629,-107.5745 658.5202,-106.0816"/>
<polygon fill="#000000" stroke="#000000" points="659.1927,-109.5195 668.5483,-104.5473 658.134,-102.6001 659.1927,-109.5195"/>
</g>
<!-- 140292327583504*&#45;&gt;140292327583504 -->
<g id="edge2" class="edge">
<title>140292327583504*&#45;&gt;140292327583504</title>
<path fill="none" stroke="#000000" d="M356.0023,-128.5C365.1678,-128.5 376.0901,-128.5 387.8394,-128.5"/>
<polygon fill="#000000" stroke="#000000" points="387.883,-132.0001 397.883,-128.5 387.8829,-125.0001 387.883,-132.0001"/>
</g>
<!-- 140292329595216 -->
<g id="node9" class="node">
<title>140292329595216</title>
<polygon fill="none" stroke="#000000" points="1424,-54.5 1424,-90.5 1670,-90.5 1670,-54.5 1424,-54.5"/>
<text text-anchor="middle" x="1458" y="-68.8" font-family="Times,serif" font-size="14.00" fill="#000000">sarcasmo</text>
<polyline fill="none" stroke="#000000" points="1492,-54.5 1492,-90.5 "/>
<text text-anchor="middle" x="1537.5" y="-68.8" font-family="Times,serif" font-size="14.00" fill="#000000">valor 0.9640</text>
<polyline fill="none" stroke="#000000" points="1583,-54.5 1583,-90.5 "/>
<text text-anchor="middle" x="1626.5" y="-68.8" font-family="Times,serif" font-size="14.00" fill="#000000">grad 1.0000</text>
</g>
<!-- 140292329595216tanh -->
<g id="node10" class="node">
<title>140292329595216tanh</title>
<ellipse fill="none" stroke="#000000" cx="1361" cy="-72.5" rx="27" ry="18"/>
<text text-anchor="middle" x="1361" y="-68.8" font-family="Times,serif" font-size="14.00" fill="#000000">tanh</text>
</g>
<!-- 140292329595216tanh&#45;&gt;140292329595216 -->
<g id="edge3" class="edge">
<title>140292329595216tanh&#45;&gt;140292329595216</title>
<path fill="none" stroke="#000000" d="M1388.046,-72.5C1395.5987,-72.5 1404.3471,-72.5 1413.7791,-72.5"/>
<polygon fill="#000000" stroke="#000000" points="1413.8344,-76.0001 1423.8343,-72.5 1413.8343,-69.0001 1413.8344,-76.0001"/>
</g>
<!-- 140292327528272 -->
<g id="node11" class="node">
<title>140292327528272</title>
<polygon fill="none" stroke="#000000" points="758,-82.5 758,-118.5 970,-118.5 970,-82.5 758,-82.5"/>
<text text-anchor="middle" x="769" y="-96.8" font-family="Times,serif" font-size="14.00" fill="#000000">s</text>
<polyline fill="none" stroke="#000000" points="780,-82.5 780,-118.5 "/>
<text text-anchor="middle" x="831.5" y="-96.8" font-family="Times,serif" font-size="14.00" fill="#000000">valor &#45;10.0000</text>
<polyline fill="none" stroke="#000000" points="883,-82.5 883,-118.5 "/>
<text text-anchor="middle" x="926.5" y="-96.8" font-family="Times,serif" font-size="14.00" fill="#000000">grad 0.0707</text>
</g>
<!-- 140292327528272&#45;&gt;140292327529360+ -->
<g id="edge6" class="edge">
<title>140292327528272&#45;&gt;140292327529360+</title>
<path fill="none" stroke="#000000" d="M970.0706,-82.9262C979.4774,-81.3677 988.5019,-79.8725 996.6341,-78.5251"/>
<polygon fill="#000000" stroke="#000000" points="997.4742,-81.9337 1006.7676,-76.8462 996.33,-75.0279 997.4742,-81.9337"/>
</g>
<!-- 140292327528272+&#45;&gt;140292327528272 -->
<g id="edge4" class="edge">
<title>140292327528272+&#45;&gt;140292327528272</title>
<path fill="none" stroke="#000000" d="M722.1528,-100.5C729.6901,-100.5 738.3801,-100.5 747.6713,-100.5"/>
<polygon fill="#000000" stroke="#000000" points="747.9632,-104.0001 757.9631,-100.5 747.9631,-97.0001 747.9632,-104.0001"/>
</g>
<!-- 140292327583120 -->
<g id="node13" class="node">
<title>140292327583120</title>
<polygon fill="none" stroke="#000000" points="26.5,-110.5 26.5,-146.5 239.5,-146.5 239.5,-110.5 26.5,-110.5"/>
<text text-anchor="middle" x="44" y="-124.8" font-family="Times,serif" font-size="14.00" fill="#000000">w2</text>
<polyline fill="none" stroke="#000000" points="61.5,-110.5 61.5,-146.5 "/>
<text text-anchor="middle" x="107" y="-124.8" font-family="Times,serif" font-size="14.00" fill="#000000">valor 1.0000</text>
<polyline fill="none" stroke="#000000" points="152.5,-110.5 152.5,-146.5 "/>
<text text-anchor="middle" x="196" y="-124.8" font-family="Times,serif" font-size="14.00" fill="#000000">grad 0.3533</text>
</g>
<!-- 140292327583120&#45;&gt;140292327583504* -->
<g id="edge9" class="edge">
<title>140292327583120&#45;&gt;140292327583504*</title>
<path fill="none" stroke="#000000" d="M239.6034,-128.5C258.2439,-128.5 276.466,-128.5 291.5441,-128.5"/>
<polygon fill="#000000" stroke="#000000" points="291.9288,-132.0001 301.9287,-128.5 291.9287,-125.0001 291.9288,-132.0001"/>
</g>
<!-- 140292327529360 -->
<g id="node14" class="node">
<title>140292327529360</title>
<polygon fill="none" stroke="#000000" points="1096,-54.5 1096,-90.5 1298,-90.5 1298,-54.5 1096,-54.5"/>
<text text-anchor="middle" x="1108" y="-68.8" font-family="Times,serif" font-size="14.00" fill="#000000">n</text>
<polyline fill="none" stroke="#000000" points="1120,-54.5 1120,-90.5 "/>
<text text-anchor="middle" x="1165.5" y="-68.8" font-family="Times,serif" font-size="14.00" fill="#000000">valor 2.0000</text>
<polyline fill="none" stroke="#000000" points="1211,-54.5 1211,-90.5 "/>
<text text-anchor="middle" x="1254.5" y="-68.8" font-family="Times,serif" font-size="14.00" fill="#000000">grad 0.0707</text>
</g>
<!-- 140292327529360&#45;&gt;140292329595216tanh -->
<g id="edge13" class="edge">
<title>140292327529360&#45;&gt;140292329595216tanh</title>
<path fill="none" stroke="#000000" d="M1298.0623,-72.5C1307.0352,-72.5 1315.6857,-72.5 1323.551,-72.5"/>
<polygon fill="#000000" stroke="#000000" points="1323.7462,-76.0001 1333.7462,-72.5 1323.7461,-69.0001 1323.7462,-76.0001"/>
</g>
<!-- 140292327529360+&#45;&gt;140292327529360 -->
<g id="edge5" class="edge">
<title>140292327529360+&#45;&gt;140292327529360</title>
<path fill="none" stroke="#000000" d="M1060.0813,-72.5C1067.631,-72.5 1076.3302,-72.5 1085.608,-72.5"/>
<polygon fill="#000000" stroke="#000000" points="1085.8754,-76.0001 1095.8754,-72.5 1085.8754,-69.0001 1085.8754,-76.0001"/>
</g>
</g>
</svg>