<?xml version="1.0" encoding="UTF-8" standalone="no"?>
<!DOCTYPE svg PUBLIC "-//W3C//DTD SVG 1.1//EN"
 "http://www.w3.org/Graphics/SVG/1.1/DTD/svg11.dtd">
<!-- Generated by graphviz version 2.40.1 (20161225.0304)
 -->
<!-- Title: %3 Pages: 1 -->
<svg width="1518pt" height="237pt"
 viewBox="0.00 0.00 1518.00 237.00" xmlns="http://www.w3.org/2000/svg" xmlns:xlink="http://www.w3.org/1999/xlink">
<g id="graph0" class="graph" transform="scale(1 1) rotate(0) translate(4 233)">
<title>%3</title>
<polygon fill="#ffffff" stroke="transparent" points="-4,4 -4,-233 1514,-233 1514,4 -4,4"/>
<!-- 139854932596752 -->
<g id="node1" class="node">
<title>139854932596752</title>
<polygon fill="none" stroke="#000000" points="1308,-109.5 1308,-145.5 1510,-145.5 1510,-109.5 1308,-109.5"/>
<text text-anchor="middle" x="1318" y="-123.8" font-family="Times,serif" font-size="14.00" fill="#000000"> </text>
<polyline fill="none" stroke="#000000" points="1328,-109.5 1328,-145.5 "/>
<text text-anchor="middle" x="1375.5" y="-123.8" font-family="Times,serif" font-size="14.00" fill="#000000">valor &#45;0.7373</text>
<polyline fill="none" stroke="#000000" points="1423,-109.5 1423,-145.5 "/>
<text text-anchor="middle" x="1466.5" y="-123.8" font-family="Times,serif" font-size="14.00" fill="#000000">grad 0.0000</text>
</g>
<!-- 139854932596752tanh -->
<g id="node2" class="node">
<title>139854932596752tanh</title>
<ellipse fill="none" stroke="#000000" cx="1245" cy="-127.5" rx="27" ry="18"/>
<text text-anchor="middle" x="1245" y="-123.8" font-family="Times,serif" font-size="14.00" fill="#000000">tanh</text>
</g>
<!-- 139854932596752tanh&#45;&gt;139854932596752 -->
<g id="edge1" class="edge">
<title>139854932596752tanh&#45;&gt;139854932596752</title>
<path fill="none" stroke="#000000" d="M1272.0813,-127.5C1279.631,-127.5 1288.3302,-127.5 1297.608,-127.5"/>
<polygon fill="#000000" stroke="#000000" points="1297.8754,-131.0001 1307.8754,-127.5 1297.8754,-124.0001 1297.8754,-131.0001"/>
</g>
<!-- 139854932596304 -->
<g id="node3" class="node">
<title>139854932596304</title>
<polygon fill="none" stroke="#000000" points="326,-192.5 326,-228.5 524,-228.5 524,-192.5 326,-192.5"/>
<text text-anchor="middle" x="336" y="-206.8" font-family="Times,serif" font-size="14.00" fill="#000000"> </text>
<polyline fill="none" stroke="#000000" points="346,-192.5 346,-228.5 "/>
<text text-anchor="middle" x="391.5" y="-206.8" font-family="Times,serif" font-size="14.00" fill="#000000">valor 3.0000</text>
<polyline fill="none" stroke="#000000" points="437,-192.5 437,-228.5 "/>
<text text-anchor="middle" x="480.5" y="-206.8" font-family="Times,serif" font-size="14.00" fill="#000000">grad 0.0000</text>
</g>
<!-- 139854932596368* -->
<g id="node8" class="node">
<title>139854932596368*</title>
<ellipse fill="none" stroke="#000000" cx="589" cy="-155.5" rx="27" ry="18"/>
<text text-anchor="middle" x="589" y="-151.8" font-family="Times,serif" font-size="14.00" fill="#000000">*</text>
</g>
<!-- 139854932596304&#45;&gt;139854932596368* -->
<g id="edge6" class="edge">
<title>139854932596304&#45;&gt;139854932596368*</title>
<path fill="none" stroke="#000000" d="M497.9672,-192.4603C507.4685,-189.6838 517.0156,-186.6753 526,-183.5 536.6044,-179.7522 547.9122,-174.9831 557.9782,-170.4475"/>
<polygon fill="#000000" stroke="#000000" points="559.5636,-173.5708 567.1852,-166.2114 556.6377,-167.2116 559.5636,-173.5708"/>
</g>
<!-- 139854932595088 -->
<g id="node4" class="node">
<title>139854932595088</title>
<polygon fill="none" stroke="#000000" points="324,-82.5 324,-118.5 526,-118.5 526,-82.5 324,-82.5"/>
<text text-anchor="middle" x="334" y="-96.8" font-family="Times,serif" font-size="14.00" fill="#000000"> </text>
<polyline fill="none" stroke="#000000" points="344,-82.5 344,-118.5 "/>
<text text-anchor="middle" x="391.5" y="-96.8" font-family="Times,serif" font-size="14.00" fill="#000000">valor &#45;0.4388</text>
<polyline fill="none" stroke="#000000" points="439,-82.5 439,-118.5 "/>
<text text-anchor="middle" x="482.5" y="-96.8" font-family="Times,serif" font-size="14.00" fill="#000000">grad 0.0000</text>
</g>
<!-- 139854932596048+ -->
<g id="node12" class="node">
<title>139854932596048+</title>
<ellipse fill="none" stroke="#000000" cx="589" cy="-100.5" rx="27" ry="18"/>
<text text-anchor="middle" x="589" y="-96.8" font-family="Times,serif" font-size="14.00" fill="#000000">+</text>
</g>
<!-- 139854932595088&#45;&gt;139854932596048+ -->
<g id="edge13" class="edge">
<title>139854932595088&#45;&gt;139854932596048+</title>
<path fill="none" stroke="#000000" d="M526.0623,-100.5C535.0352,-100.5 543.6857,-100.5 551.551,-100.5"/>
<polygon fill="#000000" stroke="#000000" points="551.7462,-104.0001 561.7462,-100.5 551.7461,-97.0001 551.7462,-104.0001"/>
</g>
<!-- 139854932595792 -->
<g id="node5" class="node">
<title>139854932595792</title>
<polygon fill="none" stroke="#000000" points="326,-27.5 326,-63.5 524,-63.5 524,-27.5 326,-27.5"/>
<text text-anchor="middle" x="336" y="-41.8" font-family="Times,serif" font-size="14.00" fill="#000000"> </text>
<polyline fill="none" stroke="#000000" points="346,-27.5 346,-63.5 "/>
<text text-anchor="middle" x="391.5" y="-41.8" font-family="Times,serif" font-size="14.00" fill="#000000">valor 1.0261</text>
<polyline fill="none" stroke="#000000" points="437,-27.5 437,-63.5 "/>
<text text-anchor="middle" x="480.5" y="-41.8" font-family="Times,serif" font-size="14.00" fill="#000000">grad 0.0000</text>
</g>
<!-- 139854932595792&#45;&gt;139854932596048+ -->
<g id="edge12" class="edge">
<title>139854932595792&#45;&gt;139854932596048+</title>
<path fill="none" stroke="#000000" d="M494.9256,-63.565C505.4122,-66.6544 516.0422,-70.0037 526,-73.5 536.4654,-77.1745 547.6619,-81.7527 557.6696,-86.0893"/>
<polygon fill="#000000" stroke="#000000" points="556.2759,-89.2999 566.8378,-90.1357 559.1024,-82.8959 556.2759,-89.2999"/>
</g>
<!-- 139854932595792* -->
<g id="node6" class="node">
<title>139854932595792*</title>
<ellipse fill="none" stroke="#000000" cx="261" cy="-45.5" rx="27" ry="18"/>
<text text-anchor="middle" x="261" y="-41.8" font-family="Times,serif" font-size="14.00" fill="#000000">*</text>
</g>
<!-- 139854932595792*&#45;&gt;139854932595792 -->
<g id="edge2" class="edge">
<title>139854932595792*&#45;&gt;139854932595792</title>
<path fill="none" stroke="#000000" d="M288.0813,-45.5C296.201,-45.5 305.6504,-45.5 315.7192,-45.5"/>
<polygon fill="#000000" stroke="#000000" points="315.9681,-49.0001 325.968,-45.5 315.968,-42.0001 315.9681,-49.0001"/>
</g>
<!-- 139854932596368 -->
<g id="node7" class="node">
<title>139854932596368</title>
<polygon fill="none" stroke="#000000" points="652,-137.5 652,-173.5 854,-173.5 854,-137.5 652,-137.5"/>
<text text-anchor="middle" x="662" y="-151.8" font-family="Times,serif" font-size="14.00" fill="#000000"> </text>
<polyline fill="none" stroke="#000000" points="672,-137.5 672,-173.5 "/>
<text text-anchor="middle" x="719.5" y="-151.8" font-family="Times,serif" font-size="14.00" fill="#000000">valor &#45;1.5319</text>
<polyline fill="none" stroke="#000000" points="767,-137.5 767,-173.5 "/>
<text text-anchor="middle" x="810.5" y="-151.8" font-family="Times,serif" font-size="14.00" fill="#000000">grad 0.0000</text>
</g>
<!-- 139854932596624+ -->
<g id="node14" class="node">
<title>139854932596624+</title>
<ellipse fill="none" stroke="#000000" cx="917" cy="-127.5" rx="27" ry="18"/>
<text text-anchor="middle" x="917" y="-123.8" font-family="Times,serif" font-size="14.00" fill="#000000">+</text>
</g>
<!-- 139854932596368&#45;&gt;139854932596624+ -->
<g id="edge14" class="edge">
<title>139854932596368&#45;&gt;139854932596624+</title>
<path fill="none" stroke="#000000" d="M854.0623,-138.2455C863.5172,-136.6312 872.6142,-135.0781 880.8116,-133.6785"/>
<polygon fill="#000000" stroke="#000000" points="881.405,-137.1279 890.6733,-131.9948 880.2269,-130.2278 881.405,-137.1279"/>
</g>
<!-- 139854932596368*&#45;&gt;139854932596368 -->
<g id="edge3" class="edge">
<title>139854932596368*&#45;&gt;139854932596368</title>
<path fill="none" stroke="#000000" d="M616.0813,-155.5C623.631,-155.5 632.3302,-155.5 641.608,-155.5"/>
<polygon fill="#000000" stroke="#000000" points="641.8754,-159.0001 651.8754,-155.5 641.8754,-152.0001 641.8754,-159.0001"/>
</g>
<!-- 139854932594896 -->
<g id="node9" class="node">
<title>139854932594896</title>
<polygon fill="none" stroke="#000000" points="0,-55.5 0,-91.5 198,-91.5 198,-55.5 0,-55.5"/>
<text text-anchor="middle" x="10" y="-69.8" font-family="Times,serif" font-size="14.00" fill="#000000"> </text>
<polyline fill="none" stroke="#000000" points="20,-55.5 20,-91.5 "/>
<text text-anchor="middle" x="65.5" y="-69.8" font-family="Times,serif" font-size="14.00" fill="#000000">valor 0.5131</text>
<polyline fill="none" stroke="#000000" points="111,-55.5 111,-91.5 "/>
<text text-anchor="middle" x="154.5" y="-69.8" font-family="Times,serif" font-size="14.00" fill="#000000">grad 0.0000</text>
</g>
<!-- 139854932594896&#45;&gt;139854932595792* -->
<g id="edge9" class="edge">
<title>139854932594896&#45;&gt;139854932595792*</title>
<path fill="none" stroke="#000000" d="M198.3666,-56.3255C207.6566,-54.7198 216.6064,-53.173 224.6914,-51.7756"/>
<polygon fill="#000000" stroke="#000000" points="225.52,-55.1843 234.7778,-50.0322 224.3277,-48.2866 225.52,-55.1843"/>
</g>
<!-- 139854932595024 -->
<g id="node10" class="node">
<title>139854932595024</title>
<polygon fill="none" stroke="#000000" points="324,-137.5 324,-173.5 526,-173.5 526,-137.5 324,-137.5"/>
<text text-anchor="middle" x="334" y="-151.8" font-family="Times,serif" font-size="14.00" fill="#000000"> </text>
<polyline fill="none" stroke="#000000" points="344,-137.5 344,-173.5 "/>
<text text-anchor="middle" x="391.5" y="-151.8" font-family="Times,serif" font-size="14.00" fill="#000000">valor &#45;0.5106</text>
<polyline fill="none" stroke="#000000" points="439,-137.5 439,-173.5 "/>
<text text-anchor="middle" x="482.5" y="-151.8" font-family="Times,serif" font-size="14.00" fill="#000000">grad 0.0000</text>
</g>
<!-- 139854932595024&#45;&gt;139854932596368* -->
<g id="edge10" class="edge">
<title>139854932595024&#45;&gt;139854932596368*</title>
<path fill="none" stroke="#000000" d="M526.0623,-155.5C535.0352,-155.5 543.6857,-155.5 551.551,-155.5"/>
<polygon fill="#000000" stroke="#000000" points="551.7462,-159.0001 561.7462,-155.5 551.7461,-152.0001 551.7462,-159.0001"/>
</g>
<!-- 139854932596048 -->
<g id="node11" class="node">
<title>139854932596048</title>
<polygon fill="none" stroke="#000000" points="654,-82.5 654,-118.5 852,-118.5 852,-82.5 654,-82.5"/>
<text text-anchor="middle" x="664" y="-96.8" font-family="Times,serif" font-size="14.00" fill="#000000"> </text>
<polyline fill="none" stroke="#000000" points="674,-82.5 674,-118.5 "/>
<text text-anchor="middle" x="719.5" y="-96.8" font-family="Times,serif" font-size="14.00" fill="#000000">valor 0.5873</text>
<polyline fill="none" stroke="#000000" points="765,-82.5 765,-118.5 "/>
<text text-anchor="middle" x="808.5" y="-96.8" font-family="Times,serif" font-size="14.00" fill="#000000">grad 0.0000</text>
</g>
<!-- 139854932596048&#45;&gt;139854932596624+ -->
<g id="edge7" class="edge">
<title>139854932596048&#45;&gt;139854932596624+</title>
<path fill="none" stroke="#000000" d="M852.1829,-116.8289C862.2539,-118.4869 871.9628,-120.0853 880.6645,-121.5179"/>
<polygon fill="#000000" stroke="#000000" points="880.3001,-125.005 890.7358,-123.176 881.4373,-118.098 880.3001,-125.005"/>
</g>
<!-- 139854932596048+&#45;&gt;139854932596048 -->
<g id="edge4" class="edge">
<title>139854932596048+&#45;&gt;139854932596048</title>
<path fill="none" stroke="#000000" d="M616.0813,-100.5C624.201,-100.5 633.6504,-100.5 643.7192,-100.5"/>
<polygon fill="#000000" stroke="#000000" points="643.9681,-104.0001 653.968,-100.5 643.968,-97.0001 643.9681,-104.0001"/>
</g>
<!-- 139854932596624 -->
<g id="node13" class="node">
<title>139854932596624</title>
<polygon fill="none" stroke="#000000" points="980,-109.5 980,-145.5 1182,-145.5 1182,-109.5 980,-109.5"/>
<text text-anchor="middle" x="990" y="-123.8" font-family="Times,serif" font-size="14.00" fill="#000000"> </text>
<polyline fill="none" stroke="#000000" points="1000,-109.5 1000,-145.5 "/>
<text text-anchor="middle" x="1047.5" y="-123.8" font-family="Times,serif" font-size="14.00" fill="#000000">valor &#45;0.9446</text>
<polyline fill="none" stroke="#000000" points="1095,-109.5 1095,-145.5 "/>
<text text-anchor="middle" x="1138.5" y="-123.8" font-family="Times,serif" font-size="14.00" fill="#000000">grad 0.0000</text>
</g>
<!-- 139854932596624&#45;&gt;139854932596752tanh -->
<g id="edge11" class="edge">
<title>139854932596624&#45;&gt;139854932596752tanh</title>
<path fill="none" stroke="#000000" d="M1182.0623,-127.5C1191.0352,-127.5 1199.6857,-127.5 1207.551,-127.5"/>
<polygon fill="#000000" stroke="#000000" points="1207.7462,-131.0001 1217.7462,-127.5 1207.7461,-124.0001 1207.7462,-131.0001"/>
</g>
<!-- 139854932596624+&#45;&gt;139854932596624 -->
<g id="edge5" class="edge">
<title>139854932596624+&#45;&gt;139854932596624</title>
<path fill="none" stroke="#000000" d="M944.0813,-127.5C951.631,-127.5 960.3302,-127.5 969.608,-127.5"/>
<polygon fill="#000000" stroke="#000000" points="969.8754,-131.0001 979.8754,-127.5 969.8754,-124.0001 969.8754,-131.0001"/>
</g>
<!-- 139854932595664 -->
<g id="node15" class="node">
<title>139854932595664</title>
<polygon fill="none" stroke="#000000" points="0,-.5 0,-36.5 198,-36.5 198,-.5 0,-.5"/>
<text text-anchor="middle" x="10" y="-14.8" font-family="Times,serif" font-size="14.00" fill="#000000"> </text>
<polyline fill="none" stroke="#000000" points="20,-.5 20,-36.5 "/>
<text text-anchor="middle" x="65.5" y="-14.8" font-family="Times,serif" font-size="14.00" fill="#000000">valor 2.0000</text>
<polyline fill="none" stroke="#000000" points="111,-.5 111,-36.5 "/>
<text text-anchor="middle" x="154.5" y="-14.8" font-family="Times,serif" font-size="14.00" fill="#000000">grad 0.0000</text>
</g>
<!-- 139854932595664&#45;&gt;139854932595792* -->
<g id="edge8" class="edge">
<title>139854932595664&#45;&gt;139854932595792*</title>
<path fill="none" stroke="#000000" d="M198.3666,-35.0611C207.6566,-36.6094 216.6064,-38.1011 224.6914,-39.4486"/>
<polygon fill="#000000" stroke="#000000" points="224.3384,-42.9379 234.7778,-41.1296 225.4893,-36.0332 224.3384,-42.9379"/>
</g>
</g>
</svg>
