<?xml version="1.0" encoding="UTF-8" standalone="no"?>
<!DOCTYPE svg PUBLIC "-//W3C//DTD SVG 1.1//EN"
 "http://www.w3.org/Graphics/SVG/1.1/DTD/svg11.dtd">
<!-- Generated by graphviz version 2.40.1 (20161225.0304)
 -->
<!-- Title: %3 Pages: 1 -->
<svg width="1571pt" height="210pt"
 viewBox="0.00 0.00 1571.00 210.00" xmlns="http://www.w3.org/2000/svg" xmlns:xlink="http://www.w3.org/1999/xlink">
<g id="graph0" class="graph" transform="scale(1 1) rotate(0) translate(4 206)">
<title>%3</title>
<polygon fill="#ffffff" stroke="transparent" points="-4,4 -4,-206 1567,-206 1567,4 -4,4"/>
<!-- 139854933049936 -->
<g id="node1" class="node">
<title>139854933049936</title>
<polygon fill="none" stroke="#000000" points="702,-137.5 702,-173.5 904,-173.5 904,-137.5 702,-137.5"/>
<text text-anchor="middle" x="714" y="-151.8" font-family="Times,serif" font-size="14.00" fill="#000000">b</text>
<polyline fill="none" stroke="#000000" points="726,-137.5 726,-173.5 "/>
<text text-anchor="middle" x="771.5" y="-151.8" font-family="Times,serif" font-size="14.00" fill="#000000">valor 6.8813</text>
<polyline fill="none" stroke="#000000" points="817,-137.5 817,-173.5 "/>
<text text-anchor="middle" x="860.5" y="-151.8" font-family="Times,serif" font-size="14.00" fill="#000000">grad 0.5001</text>
</g>
<!-- 139854933050832+ -->
<g id="node15" class="node">
<title>139854933050832+</title>
<ellipse fill="none" stroke="#000000" cx="968" cy="-127.5" rx="27" ry="18"/>
<text text-anchor="middle" x="968" y="-123.8" font-family="Times,serif" font-size="14.00" fill="#000000">+</text>
</g>
<!-- 139854933049936&#45;&gt;139854933050832+ -->
<g id="edge14" class="edge">
<title>139854933049936&#45;&gt;139854933050832+</title>
<path fill="none" stroke="#000000" d="M904.2067,-138.3255C913.8689,-136.6859 923.1697,-135.1076 931.5403,-133.6871"/>
<polygon fill="#000000" stroke="#000000" points="932.3294,-137.1033 941.6028,-131.9795 931.1582,-130.202 932.3294,-137.1033"/>
</g>
<!-- 139854933049488 -->
<g id="node2" class="node">
<title>139854933049488</title>
<polygon fill="none" stroke="#000000" points="3.5,-165.5 3.5,-201.5 213.5,-201.5 213.5,-165.5 3.5,-165.5"/>
<text text-anchor="middle" x="19.5" y="-179.8" font-family="Times,serif" font-size="14.00" fill="#000000">x2</text>
<polyline fill="none" stroke="#000000" points="35.5,-165.5 35.5,-201.5 "/>
<text text-anchor="middle" x="81" y="-179.8" font-family="Times,serif" font-size="14.00" fill="#000000">valor 0.0000</text>
<polyline fill="none" stroke="#000000" points="126.5,-165.5 126.5,-201.5 "/>
<text text-anchor="middle" x="170" y="-179.8" font-family="Times,serif" font-size="14.00" fill="#000000">grad 0.5001</text>
</g>
<!-- 139854933050320* -->
<g id="node11" class="node">
<title>139854933050320*</title>
<ellipse fill="none" stroke="#000000" cx="280" cy="-128.5" rx="27" ry="18"/>
<text text-anchor="middle" x="280" y="-124.8" font-family="Times,serif" font-size="14.00" fill="#000000">*</text>
</g>
<!-- 139854933049488&#45;&gt;139854933050320* -->
<g id="edge9" class="edge">
<title>139854933049488&#45;&gt;139854933050320*</title>
<path fill="none" stroke="#000000" d="M187.7867,-165.4782C197.6997,-162.7252 207.6378,-159.7179 217,-156.5 227.6365,-152.8442 238.9528,-148.0995 249.0168,-143.558"/>
<polygon fill="#000000" stroke="#000000" points="250.6078,-146.6785 258.2189,-139.3082 247.6729,-140.3235 250.6078,-146.6785"/>
</g>
<!-- 139854933050576 -->
<g id="node3" class="node">
<title>139854933050576</title>
<polygon fill="none" stroke="#000000" points="701,-82.5 701,-118.5 905,-118.5 905,-82.5 701,-82.5"/>
<text text-anchor="middle" x="712" y="-96.8" font-family="Times,serif" font-size="14.00" fill="#000000">s</text>
<polyline fill="none" stroke="#000000" points="723,-82.5 723,-118.5 "/>
<text text-anchor="middle" x="770.5" y="-96.8" font-family="Times,serif" font-size="14.00" fill="#000000">valor &#45;6.0000</text>
<polyline fill="none" stroke="#000000" points="818,-82.5 818,-118.5 "/>
<text text-anchor="middle" x="861.5" y="-96.8" font-family="Times,serif" font-size="14.00" fill="#000000">grad 0.5001</text>
</g>
<!-- 139854933050576&#45;&gt;139854933050832+ -->
<g id="edge12" class="edge">
<title>139854933050576&#45;&gt;139854933050832+</title>
<path fill="none" stroke="#000000" d="M905.1499,-117.2154C914.5013,-118.7457 923.4951,-120.2174 931.6117,-121.5455"/>
<polygon fill="#000000" stroke="#000000" points="931.2987,-125.0408 941.7327,-123.2017 932.4292,-118.1327 931.2987,-125.0408"/>
</g>
<!-- 139854933050576+ -->
<g id="node4" class="node">
<title>139854933050576+</title>
<ellipse fill="none" stroke="#000000" cx="638" cy="-100.5" rx="27" ry="18"/>
<text text-anchor="middle" x="638" y="-96.8" font-family="Times,serif" font-size="14.00" fill="#000000">+</text>
</g>
<!-- 139854933050576+&#45;&gt;139854933050576 -->
<g id="edge1" class="edge">
<title>139854933050576+&#45;&gt;139854933050576</title>
<path fill="none" stroke="#000000" d="M665.2464,-100.5C672.7749,-100.5 681.4396,-100.5 690.6811,-100.5"/>
<polygon fill="#000000" stroke="#000000" points="690.909,-104.0001 700.909,-100.5 690.909,-97.0001 690.909,-104.0001"/>
</g>
<!-- 139854933051088 -->
<g id="node5" class="node">
<title>139854933051088</title>
<polygon fill="none" stroke="#000000" points="1359,-109.5 1359,-145.5 1563,-145.5 1563,-109.5 1359,-109.5"/>
<text text-anchor="middle" x="1372" y="-123.8" font-family="Times,serif" font-size="14.00" fill="#000000">L</text>
<polyline fill="none" stroke="#000000" points="1385,-109.5 1385,-145.5 "/>
<text text-anchor="middle" x="1430.5" y="-123.8" font-family="Times,serif" font-size="14.00" fill="#000000">valor 0.7071</text>
<polyline fill="none" stroke="#000000" points="1476,-109.5 1476,-145.5 "/>
<text text-anchor="middle" x="1519.5" y="-123.8" font-family="Times,serif" font-size="14.00" fill="#000000">grad 1.0000</text>
</g>
<!-- 139854933051088tanh -->
<g id="node6" class="node">
<title>139854933051088tanh</title>
<ellipse fill="none" stroke="#000000" cx="1296" cy="-127.5" rx="27" ry="18"/>
<text text-anchor="middle" x="1296" y="-123.8" font-family="Times,serif" font-size="14.00" fill="#000000">tanh</text>
</g>
<!-- 139854933051088tanh&#45;&gt;139854933051088 -->
<g id="edge2" class="edge">
<title>139854933051088tanh&#45;&gt;139854933051088</title>
<path fill="none" stroke="#000000" d="M1323.2464,-127.5C1330.7749,-127.5 1339.4396,-127.5 1348.6811,-127.5"/>
<polygon fill="#000000" stroke="#000000" points="1348.909,-131.0001 1358.909,-127.5 1348.909,-124.0001 1348.909,-131.0001"/>
</g>
<!-- 139854933049552 -->
<g id="node7" class="node">
<title>139854933049552</title>
<polygon fill="none" stroke="#000000" points="1,-55.5 1,-91.5 216,-91.5 216,-55.5 1,-55.5"/>
<text text-anchor="middle" x="17" y="-69.8" font-family="Times,serif" font-size="14.00" fill="#000000">x1</text>
<polyline fill="none" stroke="#000000" points="33,-55.5 33,-91.5 "/>
<text text-anchor="middle" x="78.5" y="-69.8" font-family="Times,serif" font-size="14.00" fill="#000000">valor 2.0000</text>
<polyline fill="none" stroke="#000000" points="124,-55.5 124,-91.5 "/>
<text text-anchor="middle" x="170" y="-69.8" font-family="Times,serif" font-size="14.00" fill="#000000">grad &#45;1.5002</text>
</g>
<!-- 139854933049744* -->
<g id="node13" class="node">
<title>139854933049744*</title>
<ellipse fill="none" stroke="#000000" cx="280" cy="-73.5" rx="27" ry="18"/>
<text text-anchor="middle" x="280" y="-69.8" font-family="Times,serif" font-size="14.00" fill="#000000">*</text>
</g>
<!-- 139854933049552&#45;&gt;139854933049744* -->
<g id="edge7" class="edge">
<title>139854933049552&#45;&gt;139854933049744*</title>
<path fill="none" stroke="#000000" d="M216.1397,-73.5C225.4985,-73.5 234.4844,-73.5 242.6096,-73.5"/>
<polygon fill="#000000" stroke="#000000" points="242.7543,-77.0001 252.7543,-73.5 242.7542,-70.0001 242.7543,-77.0001"/>
</g>
<!-- 139854933049616 -->
<g id="node8" class="node">
<title>139854933049616</title>
<polygon fill="none" stroke="#000000" points="0,-.5 0,-36.5 217,-36.5 217,-.5 0,-.5"/>
<text text-anchor="middle" x="17.5" y="-14.8" font-family="Times,serif" font-size="14.00" fill="#000000">w1</text>
<polyline fill="none" stroke="#000000" points="35,-.5 35,-36.5 "/>
<text text-anchor="middle" x="82.5" y="-14.8" font-family="Times,serif" font-size="14.00" fill="#000000">valor &#45;3.0000</text>
<polyline fill="none" stroke="#000000" points="130,-.5 130,-36.5 "/>
<text text-anchor="middle" x="173.5" y="-14.8" font-family="Times,serif" font-size="14.00" fill="#000000">grad 1.0001</text>
</g>
<!-- 139854933049616&#45;&gt;139854933049744* -->
<g id="edge10" class="edge">
<title>139854933049616&#45;&gt;139854933049744*</title>
<path fill="none" stroke="#000000" d="M184.5246,-36.5455C195.501,-39.6056 206.5971,-42.9516 217,-46.5 227.4979,-50.0808 238.7032,-54.6335 248.709,-58.9756"/>
<polygon fill="#000000" stroke="#000000" points="247.3118,-62.1847 257.8724,-63.0356 250.1474,-55.7847 247.3118,-62.1847"/>
</g>
<!-- 139854933049808 -->
<g id="node9" class="node">
<title>139854933049808</title>
<polygon fill="none" stroke="#000000" points="2,-110.5 2,-146.5 215,-146.5 215,-110.5 2,-110.5"/>
<text text-anchor="middle" x="19.5" y="-124.8" font-family="Times,serif" font-size="14.00" fill="#000000">w2</text>
<polyline fill="none" stroke="#000000" points="37,-110.5 37,-146.5 "/>
<text text-anchor="middle" x="82.5" y="-124.8" font-family="Times,serif" font-size="14.00" fill="#000000">valor 1.0000</text>
<polyline fill="none" stroke="#000000" points="128,-110.5 128,-146.5 "/>
<text text-anchor="middle" x="171.5" y="-124.8" font-family="Times,serif" font-size="14.00" fill="#000000">grad 0.0000</text>
</g>
<!-- 139854933049808&#45;&gt;139854933050320* -->
<g id="edge6" class="edge">
<title>139854933049808&#45;&gt;139854933050320*</title>
<path fill="none" stroke="#000000" d="M215.1632,-128.5C224.9338,-128.5 234.3186,-128.5 242.7669,-128.5"/>
<polygon fill="#000000" stroke="#000000" points="242.9259,-132.0001 252.9259,-128.5 242.9258,-125.0001 242.9259,-132.0001"/>
</g>
<!-- 139854933050320 -->
<g id="node10" class="node">
<title>139854933050320</title>
<polygon fill="none" stroke="#000000" points="345,-110.5 345,-146.5 573,-146.5 573,-110.5 345,-110.5"/>
<text text-anchor="middle" x="370" y="-124.8" font-family="Times,serif" font-size="14.00" fill="#000000">x2w2</text>
<polyline fill="none" stroke="#000000" points="395,-110.5 395,-146.5 "/>
<text text-anchor="middle" x="440.5" y="-124.8" font-family="Times,serif" font-size="14.00" fill="#000000">valor 0.0000</text>
<polyline fill="none" stroke="#000000" points="486,-110.5 486,-146.5 "/>
<text text-anchor="middle" x="529.5" y="-124.8" font-family="Times,serif" font-size="14.00" fill="#000000">grad 0.5001</text>
</g>
<!-- 139854933050320&#45;&gt;139854933050576+ -->
<g id="edge13" class="edge">
<title>139854933050320&#45;&gt;139854933050576+</title>
<path fill="none" stroke="#000000" d="M573.1238,-110.6482C583.2879,-109.0583 592.9926,-107.5403 601.6553,-106.1852"/>
<polygon fill="#000000" stroke="#000000" points="602.3272,-109.6228 611.6661,-104.6193 601.2453,-102.7069 602.3272,-109.6228"/>
</g>
<!-- 139854933050320*&#45;&gt;139854933050320 -->
<g id="edge3" class="edge">
<title>139854933050320*&#45;&gt;139854933050320</title>
<path fill="none" stroke="#000000" d="M307.1862,-128.5C315.1816,-128.5 324.494,-128.5 334.4992,-128.5"/>
<polygon fill="#000000" stroke="#000000" points="334.7121,-132.0001 344.7121,-128.5 334.712,-125.0001 334.7121,-132.0001"/>
</g>
<!-- 139854933049744 -->
<g id="node12" class="node">
<title>139854933049744</title>
<polygon fill="none" stroke="#000000" points="343,-55.5 343,-91.5 575,-91.5 575,-55.5 343,-55.5"/>
<text text-anchor="middle" x="368" y="-69.8" font-family="Times,serif" font-size="14.00" fill="#000000">x1w1</text>
<polyline fill="none" stroke="#000000" points="393,-55.5 393,-91.5 "/>
<text text-anchor="middle" x="440.5" y="-69.8" font-family="Times,serif" font-size="14.00" fill="#000000">valor &#45;6.0000</text>
<polyline fill="none" stroke="#000000" points="488,-55.5 488,-91.5 "/>
<text text-anchor="middle" x="531.5" y="-69.8" font-family="Times,serif" font-size="14.00" fill="#000000">grad 0.5001</text>
</g>
<!-- 139854933049744&#45;&gt;139854933050576+ -->
<g id="edge8" class="edge">
<title>139854933049744&#45;&gt;139854933050576+</title>
<path fill="none" stroke="#000000" d="M575.143,-91.0188C584.5525,-92.4381 593.5297,-93.7922 601.6037,-95.01"/>
<polygon fill="#000000" stroke="#000000" points="601.2476,-98.4959 611.6578,-96.5266 602.2917,-91.5742 601.2476,-98.4959"/>
</g>
<!-- 139854933049744*&#45;&gt;139854933049744 -->
<g id="edge4" class="edge">
<title>139854933049744*&#45;&gt;139854933049744</title>
<path fill="none" stroke="#000000" d="M307.1862,-73.5C314.6559,-73.5 323.2751,-73.5 332.5348,-73.5"/>
<polygon fill="#000000" stroke="#000000" points="332.8099,-77.0001 342.8098,-73.5 332.8098,-70.0001 332.8099,-77.0001"/>
</g>
<!-- 139854933050832 -->
<g id="node14" class="node">
<title>139854933050832</title>
<polygon fill="none" stroke="#000000" points="1031,-109.5 1031,-145.5 1233,-145.5 1233,-109.5 1031,-109.5"/>
<text text-anchor="middle" x="1043" y="-123.8" font-family="Times,serif" font-size="14.00" fill="#000000">n</text>
<polyline fill="none" stroke="#000000" points="1055,-109.5 1055,-145.5 "/>
<text text-anchor="middle" x="1100.5" y="-123.8" font-family="Times,serif" font-size="14.00" fill="#000000">valor 0.8813</text>
<polyline fill="none" stroke="#000000" points="1146,-109.5 1146,-145.5 "/>
<text text-anchor="middle" x="1189.5" y="-123.8" font-family="Times,serif" font-size="14.00" fill="#000000">grad 0.5001</text>
</g>
<!-- 139854933050832&#45;&gt;139854933051088tanh -->
<g id="edge11" class="edge">
<title>139854933050832&#45;&gt;139854933051088tanh</title>
<path fill="none" stroke="#000000" d="M1233.0623,-127.5C1242.0352,-127.5 1250.6857,-127.5 1258.551,-127.5"/>
<polygon fill="#000000" stroke="#000000" points="1258.7462,-131.0001 1268.7462,-127.5 1258.7461,-124.0001 1258.7462,-131.0001"/>
</g>
<!-- 139854933050832+&#45;&gt;139854933050832 -->
<g id="edge5" class="edge">
<title>139854933050832+&#45;&gt;139854933050832</title>
<path fill="none" stroke="#000000" d="M995.0813,-127.5C1002.631,-127.5 1011.3302,-127.5 1020.608,-127.5"/>
<polygon fill="#000000" stroke="#000000" points="1020.8754,-131.0001 1030.8754,-127.5 1020.8754,-124.0001 1020.8754,-131.0001"/>
</g>
</g>
</svg>
