<?xml version="1.0" encoding="UTF-8" standalone="no"?>
<!DOCTYPE svg PUBLIC "-//W3C//DTD SVG 1.1//EN"
 "http://www.w3.org/Graphics/SVG/1.1/DTD/svg11.dtd">
<!-- Generated by graphviz version 2.40.1 (20161225.0304)
 -->
<!-- Title: %3 Pages: 1 -->
<svg width="1224pt" height="128pt"
 viewBox="0.00 0.00 1224.00 128.00" xmlns="http://www.w3.org/2000/svg" xmlns:xlink="http://www.w3.org/1999/xlink">
<g id="graph0" class="graph" transform="scale(1 1) rotate(0) translate(4 124)">
<title>%3</title>
<polygon fill="#ffffff" stroke="transparent" points="-4,4 -4,-124 1220,-124 1220,4 -4,4"/>
<!-- 140292368429584 -->
<g id="node1" class="node">
<title>140292368429584</title>
<polygon fill="none" stroke="#000000" points="336,-83.5 336,-119.5 550,-119.5 550,-83.5 336,-83.5"/>
<text text-anchor="middle" x="348" y="-97.8" font-family="Times,serif" font-size="14.00" fill="#000000">d</text>
<polyline fill="none" stroke="#000000" points="360,-83.5 360,-119.5 "/>
<text text-anchor="middle" x="409" y="-97.8" font-family="Times,serif" font-size="14.00" fill="#000000">valor 10.0000</text>
<polyline fill="none" stroke="#000000" points="458,-83.5 458,-119.5 "/>
<text text-anchor="middle" x="504" y="-97.8" font-family="Times,serif" font-size="14.00" fill="#000000">grad &#45;3.0000</text>
</g>
<!-- 140292368432080+ -->
<g id="node8" class="node">
<title>140292368432080+</title>
<ellipse fill="none" stroke="#000000" cx="613" cy="-73.5" rx="27" ry="18"/>
<text text-anchor="middle" x="613" y="-69.8" font-family="Times,serif" font-size="14.00" fill="#000000">+</text>
</g>
<!-- 140292368429584&#45;&gt;140292368432080+ -->
<g id="edge5" class="edge">
<title>140292368429584&#45;&gt;140292368432080+</title>
<path fill="none" stroke="#000000" d="M550.1813,-83.8466C559.4937,-82.3128 568.4242,-80.8419 576.4815,-79.5148"/>
<polygon fill="#000000" stroke="#000000" points="577.2311,-82.9386 586.5294,-77.8599 576.0935,-76.0316 577.2311,-82.9386"/>
</g>
<!-- 140292368429136 -->
<g id="node2" class="node">
<title>140292368429136</title>
<polygon fill="none" stroke="#000000" points="1008,-27.5 1008,-63.5 1216,-63.5 1216,-27.5 1008,-27.5"/>
<text text-anchor="middle" x="1021" y="-41.8" font-family="Times,serif" font-size="14.00" fill="#000000">L</text>
<polyline fill="none" stroke="#000000" points="1034,-27.5 1034,-63.5 "/>
<text text-anchor="middle" x="1081.5" y="-41.8" font-family="Times,serif" font-size="14.00" fill="#000000">valor &#45;3.9000</text>
<polyline fill="none" stroke="#000000" points="1129,-27.5 1129,-63.5 "/>
<text text-anchor="middle" x="1172.5" y="-41.8" font-family="Times,serif" font-size="14.00" fill="#000000">grad 1.0000</text>
</g>
<!-- 140292368429136* -->
<g id="node3" class="node">
<title>140292368429136*</title>
<ellipse fill="none" stroke="#000000" cx="945" cy="-45.5" rx="27" ry="18"/>
<text text-anchor="middle" x="945" y="-41.8" font-family="Times,serif" font-size="14.00" fill="#000000">*</text>
</g>
<!-- 140292368429136*&#45;&gt;140292368429136 -->
<g id="edge1" class="edge">
<title>140292368429136*&#45;&gt;140292368429136</title>
<path fill="none" stroke="#000000" d="M972.2031,-45.5C979.7372,-45.5 988.4158,-45.5 997.6835,-45.5"/>
<polygon fill="#000000" stroke="#000000" points="997.945,-49.0001 1007.945,-45.5 997.9449,-42.0001 997.945,-49.0001"/>
</g>
<!-- 140292368431696 -->
<g id="node4" class="node">
<title>140292368431696</title>
<polygon fill="none" stroke="#000000" points="0,-56.5 0,-92.5 210,-92.5 210,-56.5 0,-56.5"/>
<text text-anchor="middle" x="11.5" y="-70.8" font-family="Times,serif" font-size="14.00" fill="#000000">a</text>
<polyline fill="none" stroke="#000000" points="23,-56.5 23,-92.5 "/>
<text text-anchor="middle" x="70.5" y="-70.8" font-family="Times,serif" font-size="14.00" fill="#000000">valor &#45;2.9000</text>
<polyline fill="none" stroke="#000000" points="118,-56.5 118,-92.5 "/>
<text text-anchor="middle" x="164" y="-70.8" font-family="Times,serif" font-size="14.00" fill="#000000">grad &#45;9.0000</text>
</g>
<!-- 140292368430800* -->
<g id="node6" class="node">
<title>140292368430800*</title>
<ellipse fill="none" stroke="#000000" cx="273" cy="-46.5" rx="27" ry="18"/>
<text text-anchor="middle" x="273" y="-42.8" font-family="Times,serif" font-size="14.00" fill="#000000">*</text>
</g>
<!-- 140292368431696&#45;&gt;140292368430800* -->
<g id="edge4" class="edge">
<title>140292368431696&#45;&gt;140292368430800*</title>
<path fill="none" stroke="#000000" d="M210.443,-56.9262C219.7024,-55.3829 228.5893,-53.9018 236.6112,-52.5648"/>
<polygon fill="#000000" stroke="#000000" points="237.3287,-55.9936 246.6172,-50.8971 236.1779,-49.0888 237.3287,-55.9936"/>
</g>
<!-- 140292368430800 -->
<g id="node5" class="node">
<title>140292368430800</title>
<polygon fill="none" stroke="#000000" points="338,-28.5 338,-64.5 548,-64.5 548,-28.5 338,-28.5"/>
<text text-anchor="middle" x="349.5" y="-42.8" font-family="Times,serif" font-size="14.00" fill="#000000">c</text>
<polyline fill="none" stroke="#000000" points="361,-28.5 361,-64.5 "/>
<text text-anchor="middle" x="408.5" y="-42.8" font-family="Times,serif" font-size="14.00" fill="#000000">valor &#45;8.7000</text>
<polyline fill="none" stroke="#000000" points="456,-28.5 456,-64.5 "/>
<text text-anchor="middle" x="502" y="-42.8" font-family="Times,serif" font-size="14.00" fill="#000000">grad &#45;3.0000</text>
</g>
<!-- 140292368430800&#45;&gt;140292368432080+ -->
<g id="edge6" class="edge">
<title>140292368430800&#45;&gt;140292368432080+</title>
<path fill="none" stroke="#000000" d="M548.2453,-63.2154C558.2898,-64.8107 567.9338,-66.3424 576.5708,-67.7142"/>
<polygon fill="#000000" stroke="#000000" points="576.1405,-71.1896 586.5658,-69.3016 577.2386,-64.2763 576.1405,-71.1896"/>
</g>
<!-- 140292368430800*&#45;&gt;140292368430800 -->
<g id="edge2" class="edge">
<title>140292368430800*&#45;&gt;140292368430800</title>
<path fill="none" stroke="#000000" d="M300.3134,-46.5C308.3383,-46.5 317.6619,-46.5 327.6269,-46.5"/>
<polygon fill="#000000" stroke="#000000" points="327.7812,-50.0001 337.7812,-46.5 327.7812,-43.0001 327.7812,-50.0001"/>
</g>
<!-- 140292368432080 -->
<g id="node7" class="node">
<title>140292368432080</title>
<polygon fill="none" stroke="#000000" points="676,-55.5 676,-91.5 882,-91.5 882,-55.5 676,-55.5"/>
<text text-anchor="middle" x="687.5" y="-69.8" font-family="Times,serif" font-size="14.00" fill="#000000">e</text>
<polyline fill="none" stroke="#000000" points="699,-55.5 699,-91.5 "/>
<text text-anchor="middle" x="744.5" y="-69.8" font-family="Times,serif" font-size="14.00" fill="#000000">valor 1.3000</text>
<polyline fill="none" stroke="#000000" points="790,-55.5 790,-91.5 "/>
<text text-anchor="middle" x="836" y="-69.8" font-family="Times,serif" font-size="14.00" fill="#000000">grad &#45;3.0000</text>
</g>
<!-- 140292368432080&#45;&gt;140292368429136* -->
<g id="edge7" class="edge">
<title>140292368432080&#45;&gt;140292368429136*</title>
<path fill="none" stroke="#000000" d="M882.2425,-56.0856C891.5947,-54.5081 900.5817,-52.9922 908.6881,-51.6249"/>
<polygon fill="#000000" stroke="#000000" points="909.5156,-55.0348 918.7941,-49.9203 908.3513,-48.1324 909.5156,-55.0348"/>
</g>
<!-- 140292368432080+&#45;&gt;140292368432080 -->
<g id="edge3" class="edge">
<title>140292368432080+&#45;&gt;140292368432080</title>
<path fill="none" stroke="#000000" d="M640.0402,-73.5C647.677,-73.5 656.4969,-73.5 665.9144,-73.5"/>
<polygon fill="#000000" stroke="#000000" points="665.9202,-77.0001 675.9202,-73.5 665.9202,-70.0001 665.9202,-77.0001"/>
</g>
<!-- 140292368430864 -->
<g id="node9" class="node">
<title>140292368430864</title>
<polygon fill="none" stroke="#000000" points="4,-1.5 4,-37.5 206,-37.5 206,-1.5 4,-1.5"/>
<text text-anchor="middle" x="16" y="-15.8" font-family="Times,serif" font-size="14.00" fill="#000000">b</text>
<polyline fill="none" stroke="#000000" points="28,-1.5 28,-37.5 "/>
<text text-anchor="middle" x="73.5" y="-15.8" font-family="Times,serif" font-size="14.00" fill="#000000">valor 3.0000</text>
<polyline fill="none" stroke="#000000" points="119,-1.5 119,-37.5 "/>
<text text-anchor="middle" x="162.5" y="-15.8" font-family="Times,serif" font-size="14.00" fill="#000000">grad 8.7000</text>
</g>
<!-- 140292368430864&#45;&gt;140292368430800* -->
<g id="edge8" class="edge">
<title>140292368430864&#45;&gt;140292368430800*</title>
<path fill="none" stroke="#000000" d="M206.1192,-35.7513C216.9242,-37.4878 227.3345,-39.1609 236.5934,-40.6489"/>
<polygon fill="#000000" stroke="#000000" points="236.0888,-44.1127 246.5175,-42.2439 237.1996,-37.2014 236.0888,-44.1127"/>
</g>
<!-- 140292368432592 -->
<g id="node10" class="node">
<title>140292368432592</title>
<polygon fill="none" stroke="#000000" points="677.5,-.5 677.5,-36.5 880.5,-36.5 880.5,-.5 677.5,-.5"/>
<text text-anchor="middle" x="688" y="-14.8" font-family="Times,serif" font-size="14.00" fill="#000000">f</text>
<polyline fill="none" stroke="#000000" points="698.5,-.5 698.5,-36.5 "/>
<text text-anchor="middle" x="746" y="-14.8" font-family="Times,serif" font-size="14.00" fill="#000000">valor &#45;3.0000</text>
<polyline fill="none" stroke="#000000" points="793.5,-.5 793.5,-36.5 "/>
<text text-anchor="middle" x="837" y="-14.8" font-family="Times,serif" font-size="14.00" fill="#000000">grad 1.3000</text>
</g>
<!-- 140292368432592&#45;&gt;140292368429136* -->
<g id="edge9" class="edge">
<title>140292368432592&#45;&gt;140292368429136*</title>
<path fill="none" stroke="#000000" d="M880.8201,-35.0611C890.7442,-36.6753 900.2895,-38.2278 908.8468,-39.6197"/>
<polygon fill="#000000" stroke="#000000" points="908.3219,-43.0802 918.7541,-41.2311 909.4457,-36.171 908.3219,-43.0802"/>
</g>
</g>
</svg>
