<?xml version="1.0" encoding="UTF-8" standalone="no"?>
<!DOCTYPE svg PUBLIC "-//W3C//DTD SVG 1.1//EN"
 "http://www.w3.org/Graphics/SVG/1.1/DTD/svg11.dtd">
<!-- Generated by graphviz version 2.40.1 (20161225.0304)
 -->
<!-- Title: %3 Pages: 1 -->
<svg width="871pt" height="154pt"
 viewBox="0.00 0.00 871.00 154.00" xmlns="http://www.w3.org/2000/svg" xmlns:xlink="http://www.w3.org/1999/xlink">
<g id="graph0" class="graph" transform="scale(1 1) rotate(0) translate(4 150)">
<title>%3</title>
<polygon fill="#ffffff" stroke="transparent" points="-4,4 -4,-150 867,-150 867,4 -4,4"/>
<!-- 140206658105872 -->
<g id="node1" class="node">
<title>140206658105872</title>
<polygon fill="none" stroke="#000000" points="493,-54.5 493,-90.5 607,-90.5 607,-54.5 493,-54.5"/>
<text text-anchor="middle" x="504.5" y="-68.8" font-family="Times,serif" font-size="14.00" fill="#000000">e</text>
<polyline fill="none" stroke="#000000" points="516,-54.5 516,-90.5 "/>
<text text-anchor="middle" x="561.5" y="-68.8" font-family="Times,serif" font-size="14.00" fill="#000000">valor 4.0000</text>
</g>
<!-- 140206658106960* -->
<g id="node4" class="node">
<title>140206658106960*</title>
<ellipse fill="none" stroke="#000000" cx="671" cy="-99.5" rx="27" ry="18"/>
<text text-anchor="middle" x="671" y="-95.8" font-family="Times,serif" font-size="14.00" fill="#000000">*</text>
</g>
<!-- 140206658105872&#45;&gt;140206658106960* -->
<g id="edge8" class="edge">
<title>140206658105872&#45;&gt;140206658106960*</title>
<path fill="none" stroke="#000000" d="M607.3109,-85.2884C616.8819,-87.4241 626.5597,-89.5836 635.3825,-91.5523"/>
<polygon fill="#000000" stroke="#000000" points="634.767,-95.001 645.2893,-93.7629 636.2916,-88.169 634.767,-95.001"/>
</g>
<!-- 140206658105872+ -->
<g id="node2" class="node">
<title>140206658105872+</title>
<ellipse fill="none" stroke="#000000" cx="429" cy="-72.5" rx="27" ry="18"/>
<text text-anchor="middle" x="429" y="-68.8" font-family="Times,serif" font-size="14.00" fill="#000000">+</text>
</g>
<!-- 140206658105872+&#45;&gt;140206658105872 -->
<g id="edge1" class="edge">
<title>140206658105872+&#45;&gt;140206658105872</title>
<path fill="none" stroke="#000000" d="M456.1548,-72.5C464.1372,-72.5 473.2459,-72.5 482.5772,-72.5"/>
<polygon fill="#000000" stroke="#000000" points="482.7472,-76.0001 492.7472,-72.5 482.7472,-69.0001 482.7472,-76.0001"/>
</g>
<!-- 140206658106960 -->
<g id="node3" class="node">
<title>140206658106960</title>
<polygon fill="none" stroke="#000000" points="734,-81.5 734,-117.5 863,-117.5 863,-81.5 734,-81.5"/>
<text text-anchor="middle" x="747" y="-95.8" font-family="Times,serif" font-size="14.00" fill="#000000">L</text>
<polyline fill="none" stroke="#000000" points="760,-81.5 760,-117.5 "/>
<text text-anchor="middle" x="811.5" y="-95.8" font-family="Times,serif" font-size="14.00" fill="#000000">valor &#45;12.0000</text>
</g>
<!-- 140206658106960*&#45;&gt;140206658106960 -->
<g id="edge2" class="edge">
<title>140206658106960*&#45;&gt;140206658106960</title>
<path fill="none" stroke="#000000" d="M698.0395,-99.5C705.8233,-99.5 714.7148,-99.5 723.9166,-99.5"/>
<polygon fill="#000000" stroke="#000000" points="723.9855,-103.0001 733.9854,-99.5 723.9854,-96.0001 723.9855,-103.0001"/>
</g>
<!-- 140206658106000 -->
<g id="node5" class="node">
<title>140206658106000</title>
<polygon fill="none" stroke="#000000" points="244,-82.5 244,-118.5 366,-118.5 366,-82.5 244,-82.5"/>
<text text-anchor="middle" x="256" y="-96.8" font-family="Times,serif" font-size="14.00" fill="#000000">d</text>
<polyline fill="none" stroke="#000000" points="268,-82.5 268,-118.5 "/>
<text text-anchor="middle" x="317" y="-96.8" font-family="Times,serif" font-size="14.00" fill="#000000">valor 10.0000</text>
</g>
<!-- 140206658106000&#45;&gt;140206658105872+ -->
<g id="edge6" class="edge">
<title>140206658106000&#45;&gt;140206658105872+</title>
<path fill="none" stroke="#000000" d="M366.2735,-86.6641C375.5565,-84.5679 384.8612,-82.4668 393.3551,-80.5488"/>
<polygon fill="#000000" stroke="#000000" points="394.2742,-83.9295 403.2577,-78.3128 392.7324,-77.1014 394.2742,-83.9295"/>
</g>
<!-- 140206658107024 -->
<g id="node6" class="node">
<title>140206658107024</title>
<polygon fill="none" stroke="#000000" points="492,-109.5 492,-145.5 608,-145.5 608,-109.5 492,-109.5"/>
<text text-anchor="middle" x="502.5" y="-123.8" font-family="Times,serif" font-size="14.00" fill="#000000">f</text>
<polyline fill="none" stroke="#000000" points="513,-109.5 513,-145.5 "/>
<text text-anchor="middle" x="560.5" y="-123.8" font-family="Times,serif" font-size="14.00" fill="#000000">valor &#45;3.0000</text>
</g>
<!-- 140206658107024&#45;&gt;140206658106960* -->
<g id="edge9" class="edge">
<title>140206658107024&#45;&gt;140206658106960*</title>
<path fill="none" stroke="#000000" d="M608.0192,-114.0741C617.3331,-111.9188 626.7255,-109.7453 635.3115,-107.7585"/>
<polygon fill="#000000" stroke="#000000" points="636.3717,-111.1057 645.3251,-105.4413 634.7935,-104.2859 636.3717,-111.1057"/>
</g>
<!-- 140206658106064 -->
<g id="node7" class="node">
<title>140206658106064</title>
<polygon fill="none" stroke="#000000" points="246,-27.5 246,-63.5 364,-63.5 364,-27.5 246,-27.5"/>
<text text-anchor="middle" x="257.5" y="-41.8" font-family="Times,serif" font-size="14.00" fill="#000000">c</text>
<polyline fill="none" stroke="#000000" points="269,-27.5 269,-63.5 "/>
<text text-anchor="middle" x="316.5" y="-41.8" font-family="Times,serif" font-size="14.00" fill="#000000">valor &#45;6.0000</text>
</g>
<!-- 140206658106064&#45;&gt;140206658105872+ -->
<g id="edge4" class="edge">
<title>140206658106064&#45;&gt;140206658105872+</title>
<path fill="none" stroke="#000000" d="M364.0947,-58.3674C374.0654,-60.5384 384.1366,-62.7314 393.2736,-64.7209"/>
<polygon fill="#000000" stroke="#000000" points="392.6219,-68.1609 403.1376,-66.8687 394.1112,-61.3212 392.6219,-68.1609"/>
</g>
<!-- 140206658106064* -->
<g id="node8" class="node">
<title>140206658106064*</title>
<ellipse fill="none" stroke="#000000" cx="181" cy="-45.5" rx="27" ry="18"/>
<text text-anchor="middle" x="181" y="-41.8" font-family="Times,serif" font-size="14.00" fill="#000000">*</text>
</g>
<!-- 140206658106064*&#45;&gt;140206658106064 -->
<g id="edge3" class="edge">
<title>140206658106064*&#45;&gt;140206658106064</title>
<path fill="none" stroke="#000000" d="M208.2123,-45.5C216.4666,-45.5 225.9371,-45.5 235.6518,-45.5"/>
<polygon fill="#000000" stroke="#000000" points="235.8231,-49.0001 245.8231,-45.5 235.823,-42.0001 235.8231,-49.0001"/>
</g>
<!-- 140206658106640 -->
<g id="node9" class="node">
<title>140206658106640</title>
<polygon fill="none" stroke="#000000" points="0,-55.5 0,-91.5 118,-91.5 118,-55.5 0,-55.5"/>
<text text-anchor="middle" x="11.5" y="-69.8" font-family="Times,serif" font-size="14.00" fill="#000000">a</text>
<polyline fill="none" stroke="#000000" points="23,-55.5 23,-91.5 "/>
<text text-anchor="middle" x="70.5" y="-69.8" font-family="Times,serif" font-size="14.00" fill="#000000">valor &#45;2.0000</text>
</g>
<!-- 140206658106640&#45;&gt;140206658106064* -->
<g id="edge5" class="edge">
<title>140206658106640&#45;&gt;140206658106064*</title>
<path fill="none" stroke="#000000" d="M118.2131,-59.9101C127.536,-57.7704 136.9146,-55.618 145.4768,-53.6529"/>
<polygon fill="#000000" stroke="#000000" points="146.4937,-57.0106 155.4573,-51.3623 144.9278,-50.1879 146.4937,-57.0106"/>
</g>
<!-- 140206658106128 -->
<g id="node10" class="node">
<title>140206658106128</title>
<polygon fill="none" stroke="#000000" points="1.5,-.5 1.5,-36.5 116.5,-36.5 116.5,-.5 1.5,-.5"/>
<text text-anchor="middle" x="13.5" y="-14.8" font-family="Times,serif" font-size="14.00" fill="#000000">b</text>
<polyline fill="none" stroke="#000000" points="25.5,-.5 25.5,-36.5 "/>
<text text-anchor="middle" x="71" y="-14.8" font-family="Times,serif" font-size="14.00" fill="#000000">valor 3.0000</text>
</g>
<!-- 140206658106128&#45;&gt;140206658106064* -->
<g id="edge7" class="edge">
<title>140206658106128&#45;&gt;140206658106064*</title>
<path fill="none" stroke="#000000" d="M116.7845,-31.2884C126.4347,-33.4241 136.1924,-35.5836 145.0881,-37.5523"/>
<polygon fill="#000000" stroke="#000000" points="144.5567,-41.0193 155.0768,-39.7629 146.0694,-34.1847 144.5567,-41.0193"/>
</g>
</g>
</svg>
