<?xml version="1.0" encoding="UTF-8" standalone="no"?>
<!DOCTYPE svg PUBLIC "-//W3C//DTD SVG 1.1//EN"
 "http://www.w3.org/Graphics/SVG/1.1/DTD/svg11.dtd">
<!-- Generated by graphviz version 2.40.1 (20161225.0304)
 -->
<!-- Title: %3 Pages: 1 -->
<svg width="1850pt" height="293pt"
 viewBox="0.00 0.00 1850.00 293.00" xmlns="http://www.w3.org/2000/svg" xmlns:xlink="http://www.w3.org/1999/xlink">
<g id="graph0" class="graph" transform="scale(1 1) rotate(0) translate(4 289)">
<title>%3</title>
<polygon fill="#ffffff" stroke="transparent" points="-4,4 -4,-289 1846,-289 1846,4 -4,4"/>
<!-- 140592619189264 -->
<g id="node1" class="node">
<title>140592619189264</title>
<polygon fill="none" stroke="#000000" points="984,-55.5 984,-91.5 1186,-91.5 1186,-55.5 984,-55.5"/>
<text text-anchor="middle" x="994" y="-69.8" font-family="Times,serif" font-size="14.00" fill="#000000"> </text>
<polyline fill="none" stroke="#000000" points="1004,-55.5 1004,-91.5 "/>
<text text-anchor="middle" x="1051.5" y="-69.8" font-family="Times,serif" font-size="14.00" fill="#000000">valor &#45;2.0874</text>
<polyline fill="none" stroke="#000000" points="1099,-55.5 1099,-91.5 "/>
<text text-anchor="middle" x="1142.5" y="-69.8" font-family="Times,serif" font-size="14.00" fill="#000000">grad 0.0000</text>
</g>
<!-- 140592619189520+ -->
<g id="node15" class="node">
<title>140592619189520+</title>
<ellipse fill="none" stroke="#000000" cx="1249" cy="-100.5" rx="27" ry="18"/>
<text text-anchor="middle" x="1249" y="-96.8" font-family="Times,serif" font-size="14.00" fill="#000000">+</text>
</g>
<!-- 140592619189264&#45;&gt;140592619189520+ -->
<g id="edge11" class="edge">
<title>140592619189264&#45;&gt;140592619189520+</title>
<path fill="none" stroke="#000000" d="M1186.0623,-90.1383C1195.4122,-91.6776 1204.412,-93.1593 1212.5381,-94.4971"/>
<polygon fill="#000000" stroke="#000000" points="1212.2375,-97.9947 1222.6733,-96.1657 1213.3747,-91.0877 1212.2375,-97.9947"/>
</g>
<!-- 140592619189264* -->
<g id="node2" class="node">
<title>140592619189264*</title>
<ellipse fill="none" stroke="#000000" cx="921" cy="-73.5" rx="27" ry="18"/>
<text text-anchor="middle" x="921" y="-69.8" font-family="Times,serif" font-size="14.00" fill="#000000">*</text>
</g>
<!-- 140592619189264*&#45;&gt;140592619189264 -->
<g id="edge1" class="edge">
<title>140592619189264*&#45;&gt;140592619189264</title>
<path fill="none" stroke="#000000" d="M948.0813,-73.5C955.631,-73.5 964.3302,-73.5 973.608,-73.5"/>
<polygon fill="#000000" stroke="#000000" points="973.8754,-77.0001 983.8754,-73.5 973.8754,-70.0001 973.8754,-77.0001"/>
</g>
<!-- 140592619150864 -->
<g id="node3" class="node">
<title>140592619150864</title>
<polygon fill="none" stroke="#000000" points="656,-55.5 656,-91.5 858,-91.5 858,-55.5 656,-55.5"/>
<text text-anchor="middle" x="666" y="-69.8" font-family="Times,serif" font-size="14.00" fill="#000000"> </text>
<polyline fill="none" stroke="#000000" points="676,-55.5 676,-91.5 "/>
<text text-anchor="middle" x="723.5" y="-69.8" font-family="Times,serif" font-size="14.00" fill="#000000">valor &#45;0.6958</text>
<polyline fill="none" stroke="#000000" points="771,-55.5 771,-91.5 "/>
<text text-anchor="middle" x="814.5" y="-69.8" font-family="Times,serif" font-size="14.00" fill="#000000">grad 0.0000</text>
</g>
<!-- 140592619150864&#45;&gt;140592619189264* -->
<g id="edge20" class="edge">
<title>140592619150864&#45;&gt;140592619189264*</title>
<path fill="none" stroke="#000000" d="M858.0623,-73.5C867.0352,-73.5 875.6857,-73.5 883.551,-73.5"/>
<polygon fill="#000000" stroke="#000000" points="883.7462,-77.0001 893.7462,-73.5 883.7461,-70.0001 883.7462,-77.0001"/>
</g>
<!-- 140592624348688 -->
<g id="node4" class="node">
<title>140592624348688</title>
<polygon fill="none" stroke="#000000" points="328,-220.5 328,-256.5 530,-256.5 530,-220.5 328,-220.5"/>
<text text-anchor="middle" x="338" y="-234.8" font-family="Times,serif" font-size="14.00" fill="#000000"> </text>
<polyline fill="none" stroke="#000000" points="348,-220.5 348,-256.5 "/>
<text text-anchor="middle" x="395.5" y="-234.8" font-family="Times,serif" font-size="14.00" fill="#000000">valor &#45;0.4450</text>
<polyline fill="none" stroke="#000000" points="443,-220.5 443,-256.5 "/>
<text text-anchor="middle" x="486.5" y="-234.8" font-family="Times,serif" font-size="14.00" fill="#000000">grad 0.0000</text>
</g>
<!-- 140592619188368+ -->
<g id="node9" class="node">
<title>140592619188368+</title>
<ellipse fill="none" stroke="#000000" cx="593" cy="-183.5" rx="27" ry="18"/>
<text text-anchor="middle" x="593" y="-179.8" font-family="Times,serif" font-size="14.00" fill="#000000">+</text>
</g>
<!-- 140592624348688&#45;&gt;140592619188368+ -->
<g id="edge17" class="edge">
<title>140592624348688&#45;&gt;140592619188368+</title>
<path fill="none" stroke="#000000" d="M501.9672,-220.4603C511.4685,-217.6838 521.0156,-214.6753 530,-211.5 540.6044,-207.7522 551.9122,-202.9831 561.9782,-198.4475"/>
<polygon fill="#000000" stroke="#000000" points="563.5636,-201.5708 571.1852,-194.2114 560.6377,-195.2116 563.5636,-201.5708"/>
</g>
<!-- 140592624348688* -->
<g id="node5" class="node">
<title>140592624348688*</title>
<ellipse fill="none" stroke="#000000" cx="265" cy="-238.5" rx="27" ry="18"/>
<text text-anchor="middle" x="265" y="-234.8" font-family="Times,serif" font-size="14.00" fill="#000000">*</text>
</g>
<!-- 140592624348688*&#45;&gt;140592624348688 -->
<g id="edge2" class="edge">
<title>140592624348688*&#45;&gt;140592624348688</title>
<path fill="none" stroke="#000000" d="M292.0813,-238.5C299.631,-238.5 308.3302,-238.5 317.608,-238.5"/>
<polygon fill="#000000" stroke="#000000" points="317.8754,-242.0001 327.8754,-238.5 317.8754,-235.0001 317.8754,-242.0001"/>
</g>
<!-- 140592624348752 -->
<g id="node6" class="node">
<title>140592624348752</title>
<polygon fill="none" stroke="#000000" points="2,-248.5 2,-284.5 200,-284.5 200,-248.5 2,-248.5"/>
<text text-anchor="middle" x="12" y="-262.8" font-family="Times,serif" font-size="14.00" fill="#000000"> </text>
<polyline fill="none" stroke="#000000" points="22,-248.5 22,-284.5 "/>
<text text-anchor="middle" x="67.5" y="-262.8" font-family="Times,serif" font-size="14.00" fill="#000000">valor 1.0000</text>
<polyline fill="none" stroke="#000000" points="113,-248.5 113,-284.5 "/>
<text text-anchor="middle" x="156.5" y="-262.8" font-family="Times,serif" font-size="14.00" fill="#000000">grad 0.0000</text>
</g>
<!-- 140592624348752&#45;&gt;140592624348688* -->
<g id="edge19" class="edge">
<title>140592624348752&#45;&gt;140592624348688*</title>
<path fill="none" stroke="#000000" d="M200.1829,-249.5663C210.2539,-247.8469 219.9628,-246.1893 228.6645,-244.7036"/>
<polygon fill="#000000" stroke="#000000" points="229.4675,-248.1172 238.7358,-242.9841 228.2894,-241.2171 229.4675,-248.1172"/>
</g>
<!-- 140592619150928 -->
<g id="node7" class="node">
<title>140592619150928</title>
<polygon fill="none" stroke="#000000" points="330,-110.5 330,-146.5 528,-146.5 528,-110.5 330,-110.5"/>
<text text-anchor="middle" x="340" y="-124.8" font-family="Times,serif" font-size="14.00" fill="#000000"> </text>
<polyline fill="none" stroke="#000000" points="350,-110.5 350,-146.5 "/>
<text text-anchor="middle" x="395.5" y="-124.8" font-family="Times,serif" font-size="14.00" fill="#000000">valor 0.4313</text>
<polyline fill="none" stroke="#000000" points="441,-110.5 441,-146.5 "/>
<text text-anchor="middle" x="484.5" y="-124.8" font-family="Times,serif" font-size="14.00" fill="#000000">grad 0.0000</text>
</g>
<!-- 140592619188688* -->
<g id="node11" class="node">
<title>140592619188688*</title>
<ellipse fill="none" stroke="#000000" cx="593" cy="-128.5" rx="27" ry="18"/>
<text text-anchor="middle" x="593" y="-124.8" font-family="Times,serif" font-size="14.00" fill="#000000">*</text>
</g>
<!-- 140592619150928&#45;&gt;140592619188688* -->
<g id="edge10" class="edge">
<title>140592619150928&#45;&gt;140592619188688*</title>
<path fill="none" stroke="#000000" d="M528.1829,-128.5C537.8586,-128.5 547.2002,-128.5 555.6354,-128.5"/>
<polygon fill="#000000" stroke="#000000" points="555.7923,-132.0001 565.7922,-128.5 555.7922,-125.0001 555.7923,-132.0001"/>
</g>
<!-- 140592619188368 -->
<g id="node8" class="node">
<title>140592619188368</title>
<polygon fill="none" stroke="#000000" points="656,-165.5 656,-201.5 858,-201.5 858,-165.5 656,-165.5"/>
<text text-anchor="middle" x="666" y="-179.8" font-family="Times,serif" font-size="14.00" fill="#000000"> </text>
<polyline fill="none" stroke="#000000" points="676,-165.5 676,-201.5 "/>
<text text-anchor="middle" x="723.5" y="-179.8" font-family="Times,serif" font-size="14.00" fill="#000000">valor &#45;0.9073</text>
<polyline fill="none" stroke="#000000" points="771,-165.5 771,-201.5 "/>
<text text-anchor="middle" x="814.5" y="-179.8" font-family="Times,serif" font-size="14.00" fill="#000000">grad 0.0000</text>
</g>
<!-- 140592619188944+ -->
<g id="node13" class="node">
<title>140592619188944+</title>
<ellipse fill="none" stroke="#000000" cx="921" cy="-128.5" rx="27" ry="18"/>
<text text-anchor="middle" x="921" y="-124.8" font-family="Times,serif" font-size="14.00" fill="#000000">+</text>
</g>
<!-- 140592619188368&#45;&gt;140592619188944+ -->
<g id="edge8" class="edge">
<title>140592619188368&#45;&gt;140592619188944+</title>
<path fill="none" stroke="#000000" d="M829.9672,-165.4603C839.4685,-162.6838 849.0156,-159.6753 858,-156.5 868.6044,-152.7522 879.9122,-147.9831 889.9782,-143.4475"/>
<polygon fill="#000000" stroke="#000000" points="891.5636,-146.5708 899.1852,-139.2114 888.6377,-140.2116 891.5636,-146.5708"/>
</g>
<!-- 140592619188368+&#45;&gt;140592619188368 -->
<g id="edge3" class="edge">
<title>140592619188368+&#45;&gt;140592619188368</title>
<path fill="none" stroke="#000000" d="M620.0813,-183.5C627.631,-183.5 636.3302,-183.5 645.608,-183.5"/>
<polygon fill="#000000" stroke="#000000" points="645.8754,-187.0001 655.8754,-183.5 645.8754,-180.0001 645.8754,-187.0001"/>
</g>
<!-- 140592619188688 -->
<g id="node10" class="node">
<title>140592619188688</title>
<polygon fill="none" stroke="#000000" points="658,-110.5 658,-146.5 856,-146.5 856,-110.5 658,-110.5"/>
<text text-anchor="middle" x="668" y="-124.8" font-family="Times,serif" font-size="14.00" fill="#000000"> </text>
<polyline fill="none" stroke="#000000" points="678,-110.5 678,-146.5 "/>
<text text-anchor="middle" x="723.5" y="-124.8" font-family="Times,serif" font-size="14.00" fill="#000000">valor 0.8627</text>
<polyline fill="none" stroke="#000000" points="769,-110.5 769,-146.5 "/>
<text text-anchor="middle" x="812.5" y="-124.8" font-family="Times,serif" font-size="14.00" fill="#000000">grad 0.0000</text>
</g>
<!-- 140592619188688&#45;&gt;140592619188944+ -->
<g id="edge18" class="edge">
<title>140592619188688&#45;&gt;140592619188944+</title>
<path fill="none" stroke="#000000" d="M856.1829,-128.5C865.8586,-128.5 875.2002,-128.5 883.6354,-128.5"/>
<polygon fill="#000000" stroke="#000000" points="883.7923,-132.0001 893.7922,-128.5 883.7922,-125.0001 883.7923,-132.0001"/>
</g>
<!-- 140592619188688*&#45;&gt;140592619188688 -->
<g id="edge4" class="edge">
<title>140592619188688*&#45;&gt;140592619188688</title>
<path fill="none" stroke="#000000" d="M620.0813,-128.5C628.201,-128.5 637.6504,-128.5 647.7192,-128.5"/>
<polygon fill="#000000" stroke="#000000" points="647.9681,-132.0001 657.968,-128.5 647.968,-125.0001 647.9681,-132.0001"/>
</g>
<!-- 140592619188944 -->
<g id="node12" class="node">
<title>140592619188944</title>
<polygon fill="none" stroke="#000000" points="984,-110.5 984,-146.5 1186,-146.5 1186,-110.5 984,-110.5"/>
<text text-anchor="middle" x="994" y="-124.8" font-family="Times,serif" font-size="14.00" fill="#000000"> </text>
<polyline fill="none" stroke="#000000" points="1004,-110.5 1004,-146.5 "/>
<text text-anchor="middle" x="1051.5" y="-124.8" font-family="Times,serif" font-size="14.00" fill="#000000">valor &#45;0.0447</text>
<polyline fill="none" stroke="#000000" points="1099,-110.5 1099,-146.5 "/>
<text text-anchor="middle" x="1142.5" y="-124.8" font-family="Times,serif" font-size="14.00" fill="#000000">grad 0.0000</text>
</g>
<!-- 140592619188944&#45;&gt;140592619189520+ -->
<g id="edge12" class="edge">
<title>140592619188944&#45;&gt;140592619189520+</title>
<path fill="none" stroke="#000000" d="M1186.0623,-111.2455C1195.5172,-109.6312 1204.6142,-108.0781 1212.8116,-106.6785"/>
<polygon fill="#000000" stroke="#000000" points="1213.405,-110.1279 1222.6733,-104.9948 1212.2269,-103.2278 1213.405,-110.1279"/>
</g>
<!-- 140592619188944+&#45;&gt;140592619188944 -->
<g id="edge5" class="edge">
<title>140592619188944+&#45;&gt;140592619188944</title>
<path fill="none" stroke="#000000" d="M948.0813,-128.5C955.631,-128.5 964.3302,-128.5 973.608,-128.5"/>
<polygon fill="#000000" stroke="#000000" points="973.8754,-132.0001 983.8754,-128.5 973.8754,-125.0001 973.8754,-132.0001"/>
</g>
<!-- 140592619189520 -->
<g id="node14" class="node">
<title>140592619189520</title>
<polygon fill="none" stroke="#000000" points="1312,-82.5 1312,-118.5 1514,-118.5 1514,-82.5 1312,-82.5"/>
<text text-anchor="middle" x="1322" y="-96.8" font-family="Times,serif" font-size="14.00" fill="#000000"> </text>
<polyline fill="none" stroke="#000000" points="1332,-82.5 1332,-118.5 "/>
<text text-anchor="middle" x="1379.5" y="-96.8" font-family="Times,serif" font-size="14.00" fill="#000000">valor &#45;2.1320</text>
<polyline fill="none" stroke="#000000" points="1427,-82.5 1427,-118.5 "/>
<text text-anchor="middle" x="1470.5" y="-96.8" font-family="Times,serif" font-size="14.00" fill="#000000">grad 0.0000</text>
</g>
<!-- 140592619189648tanh -->
<g id="node19" class="node">
<title>140592619189648tanh</title>
<ellipse fill="none" stroke="#000000" cx="1577" cy="-100.5" rx="27" ry="18"/>
<text text-anchor="middle" x="1577" y="-96.8" font-family="Times,serif" font-size="14.00" fill="#000000">tanh</text>
</g>
<!-- 140592619189520&#45;&gt;140592619189648tanh -->
<g id="edge16" class="edge">
<title>140592619189520&#45;&gt;140592619189648tanh</title>
<path fill="none" stroke="#000000" d="M1514.0623,-100.5C1523.0352,-100.5 1531.6857,-100.5 1539.551,-100.5"/>
<polygon fill="#000000" stroke="#000000" points="1539.7462,-104.0001 1549.7462,-100.5 1539.7461,-97.0001 1539.7462,-104.0001"/>
</g>
<!-- 140592619189520+&#45;&gt;140592619189520 -->
<g id="edge6" class="edge">
<title>140592619189520+&#45;&gt;140592619189520</title>
<path fill="none" stroke="#000000" d="M1276.0813,-100.5C1283.631,-100.5 1292.3302,-100.5 1301.608,-100.5"/>
<polygon fill="#000000" stroke="#000000" points="1301.8754,-104.0001 1311.8754,-100.5 1301.8754,-97.0001 1301.8754,-104.0001"/>
</g>
<!-- 140592619149136 -->
<g id="node16" class="node">
<title>140592619149136</title>
<polygon fill="none" stroke="#000000" points="328,-165.5 328,-201.5 530,-201.5 530,-165.5 328,-165.5"/>
<text text-anchor="middle" x="338" y="-179.8" font-family="Times,serif" font-size="14.00" fill="#000000"> </text>
<polyline fill="none" stroke="#000000" points="348,-165.5 348,-201.5 "/>
<text text-anchor="middle" x="395.5" y="-179.8" font-family="Times,serif" font-size="14.00" fill="#000000">valor &#45;0.4624</text>
<polyline fill="none" stroke="#000000" points="443,-165.5 443,-201.5 "/>
<text text-anchor="middle" x="486.5" y="-179.8" font-family="Times,serif" font-size="14.00" fill="#000000">grad 0.0000</text>
</g>
<!-- 140592619149136&#45;&gt;140592619188368+ -->
<g id="edge15" class="edge">
<title>140592619149136&#45;&gt;140592619188368+</title>
<path fill="none" stroke="#000000" d="M530.0623,-183.5C539.0352,-183.5 547.6857,-183.5 555.551,-183.5"/>
<polygon fill="#000000" stroke="#000000" points="555.7462,-187.0001 565.7462,-183.5 555.7461,-180.0001 555.7462,-187.0001"/>
</g>
<!-- 140592619188624 -->
<g id="node17" class="node">
<title>140592619188624</title>
<polygon fill="none" stroke="#000000" points="330,-55.5 330,-91.5 528,-91.5 528,-55.5 330,-55.5"/>
<text text-anchor="middle" x="340" y="-69.8" font-family="Times,serif" font-size="14.00" fill="#000000"> </text>
<polyline fill="none" stroke="#000000" points="350,-55.5 350,-91.5 "/>
<text text-anchor="middle" x="395.5" y="-69.8" font-family="Times,serif" font-size="14.00" fill="#000000">valor 2.0000</text>
<polyline fill="none" stroke="#000000" points="441,-55.5 441,-91.5 "/>
<text text-anchor="middle" x="484.5" y="-69.8" font-family="Times,serif" font-size="14.00" fill="#000000">grad 0.0000</text>
</g>
<!-- 140592619188624&#45;&gt;140592619188688* -->
<g id="edge9" class="edge">
<title>140592619188624&#45;&gt;140592619188688*</title>
<path fill="none" stroke="#000000" d="M501.9672,-91.5397C511.4685,-94.3162 521.0156,-97.3247 530,-100.5 540.6044,-104.2478 551.9122,-109.0169 561.9782,-113.5525"/>
<polygon fill="#000000" stroke="#000000" points="560.6377,-116.7884 571.1852,-117.7886 563.5636,-110.4292 560.6377,-116.7884"/>
</g>
<!-- 140592619189648 -->
<g id="node18" class="node">
<title>140592619189648</title>
<polygon fill="none" stroke="#000000" points="1640,-82.5 1640,-118.5 1842,-118.5 1842,-82.5 1640,-82.5"/>
<text text-anchor="middle" x="1650" y="-96.8" font-family="Times,serif" font-size="14.00" fill="#000000"> </text>
<polyline fill="none" stroke="#000000" points="1660,-82.5 1660,-118.5 "/>
<text text-anchor="middle" x="1707.5" y="-96.8" font-family="Times,serif" font-size="14.00" fill="#000000">valor &#45;0.9723</text>
<polyline fill="none" stroke="#000000" points="1755,-82.5 1755,-118.5 "/>
<text text-anchor="middle" x="1798.5" y="-96.8" font-family="Times,serif" font-size="14.00" fill="#000000">grad 0.0000</text>
</g>
<!-- 140592619189648tanh&#45;&gt;140592619189648 -->
<g id="edge7" class="edge">
<title>140592619189648tanh&#45;&gt;140592619189648</title>
<path fill="none" stroke="#000000" d="M1604.0813,-100.5C1611.631,-100.5 1620.3302,-100.5 1629.608,-100.5"/>
<polygon fill="#000000" stroke="#000000" points="1629.8754,-104.0001 1639.8754,-100.5 1629.8754,-97.0001 1629.8754,-104.0001"/>
</g>
<!-- 140592619189200 -->
<g id="node20" class="node">
<title>140592619189200</title>
<polygon fill="none" stroke="#000000" points="658,-.5 658,-36.5 856,-36.5 856,-.5 658,-.5"/>
<text text-anchor="middle" x="668" y="-14.8" font-family="Times,serif" font-size="14.00" fill="#000000"> </text>
<polyline fill="none" stroke="#000000" points="678,-.5 678,-36.5 "/>
<text text-anchor="middle" x="723.5" y="-14.8" font-family="Times,serif" font-size="14.00" fill="#000000">valor 3.0000</text>
<polyline fill="none" stroke="#000000" points="769,-.5 769,-36.5 "/>
<text text-anchor="middle" x="812.5" y="-14.8" font-family="Times,serif" font-size="14.00" fill="#000000">grad 0.0000</text>
</g>
<!-- 140592619189200&#45;&gt;140592619189264* -->
<g id="edge13" class="edge">
<title>140592619189200&#45;&gt;140592619189264*</title>
<path fill="none" stroke="#000000" d="M829.9672,-36.5397C839.4685,-39.3162 849.0156,-42.3247 858,-45.5 868.6044,-49.2478 879.9122,-54.0169 889.9782,-58.5525"/>
<polygon fill="#000000" stroke="#000000" points="888.6377,-61.7884 899.1852,-62.7886 891.5636,-55.4292 888.6377,-61.7884"/>
</g>
<!-- 140592619149776 -->
<g id="node21" class="node">
<title>140592619149776</title>
<polygon fill="none" stroke="#000000" points="0,-193.5 0,-229.5 202,-229.5 202,-193.5 0,-193.5"/>
<text text-anchor="middle" x="10" y="-207.8" font-family="Times,serif" font-size="14.00" fill="#000000"> </text>
<polyline fill="none" stroke="#000000" points="20,-193.5 20,-229.5 "/>
<text text-anchor="middle" x="67.5" y="-207.8" font-family="Times,serif" font-size="14.00" fill="#000000">valor &#45;0.4450</text>
<polyline fill="none" stroke="#000000" points="115,-193.5 115,-229.5 "/>
<text text-anchor="middle" x="158.5" y="-207.8" font-family="Times,serif" font-size="14.00" fill="#000000">grad 0.0000</text>
</g>
<!-- 140592619149776&#45;&gt;140592624348688* -->
<g id="edge14" class="edge">
<title>140592619149776&#45;&gt;140592624348688*</title>
<path fill="none" stroke="#000000" d="M202.0623,-228.1383C211.4122,-229.6776 220.412,-231.1593 228.5381,-232.4971"/>
<polygon fill="#000000" stroke="#000000" points="228.2375,-235.9947 238.6733,-234.1657 229.3747,-229.0877 228.2375,-235.9947"/>
</g>
</g>
</svg>
