<?xml version="1.0" encoding="UTF-8" standalone="no"?>
<!DOCTYPE svg PUBLIC "-//W3C//DTD SVG 1.1//EN"
 "http://www.w3.org/Graphics/SVG/1.1/DTD/svg11.dtd">
<!-- Generated by graphviz version 2.40.1 (20161225.0304)
 -->
<!-- Title: %3 Pages: 1 -->
<svg width="1635pt" height="210pt"
 viewBox="0.00 0.00 1635.00 210.00" xmlns="http://www.w3.org/2000/svg" xmlns:xlink="http://www.w3.org/1999/xlink">
<g id="graph0" class="graph" transform="scale(1 1) rotate(0) translate(4 206)">
<title>%3</title>
<polygon fill="#ffffff" stroke="transparent" points="-4,4 -4,-206 1631,-206 1631,4 -4,4"/>
<!-- 140592636909136 -->
<g id="node1" class="node">
<title>140592636909136</title>
<polygon fill="none" stroke="#000000" points="1429,-82.5 1429,-118.5 1627,-118.5 1627,-82.5 1429,-82.5"/>
<text text-anchor="middle" x="1439" y="-96.8" font-family="Times,serif" font-size="14.00" fill="#000000"> </text>
<polyline fill="none" stroke="#000000" points="1449,-82.5 1449,-118.5 "/>
<text text-anchor="middle" x="1494.5" y="-96.8" font-family="Times,serif" font-size="14.00" fill="#000000">valor 0.7088</text>
<polyline fill="none" stroke="#000000" points="1540,-82.5 1540,-118.5 "/>
<text text-anchor="middle" x="1583.5" y="-96.8" font-family="Times,serif" font-size="14.00" fill="#000000">grad 1.0000</text>
</g>
<!-- 140592636909136tanh -->
<g id="node2" class="node">
<title>140592636909136tanh</title>
<ellipse fill="none" stroke="#000000" cx="1366" cy="-100.5" rx="27" ry="18"/>
<text text-anchor="middle" x="1366" y="-96.8" font-family="Times,serif" font-size="14.00" fill="#000000">tanh</text>
</g>
<!-- 140592636909136tanh&#45;&gt;140592636909136 -->
<g id="edge1" class="edge">
<title>140592636909136tanh&#45;&gt;140592636909136</title>
<path fill="none" stroke="#000000" d="M1393.1152,-100.5C1400.656,-100.5 1409.3371,-100.5 1418.584,-100.5"/>
<polygon fill="#000000" stroke="#000000" points="1418.8128,-104.0001 1428.8128,-100.5 1418.8127,-97.0001 1418.8128,-104.0001"/>
</g>
<!-- 140592638568400 -->
<g id="node3" class="node">
<title>140592638568400</title>
<polygon fill="none" stroke="#000000" points="392,-55.5 392,-91.5 651,-91.5 651,-55.5 392,-55.5"/>
<text text-anchor="middle" x="432.5" y="-69.8" font-family="Times,serif" font-size="14.00" fill="#000000">calificacion</text>
<polyline fill="none" stroke="#000000" points="473,-55.5 473,-91.5 "/>
<text text-anchor="middle" x="518.5" y="-69.8" font-family="Times,serif" font-size="14.00" fill="#000000">valor 5.0000</text>
<polyline fill="none" stroke="#000000" points="564,-55.5 564,-91.5 "/>
<text text-anchor="middle" x="607.5" y="-69.8" font-family="Times,serif" font-size="14.00" fill="#000000">grad 0.3090</text>
</g>
<!-- 140592658572752* -->
<g id="node15" class="node">
<title>140592658572752*</title>
<ellipse fill="none" stroke="#000000" cx="714" cy="-73.5" rx="27" ry="18"/>
<text text-anchor="middle" x="714" y="-69.8" font-family="Times,serif" font-size="14.00" fill="#000000">*</text>
</g>
<!-- 140592638568400&#45;&gt;140592658572752* -->
<g id="edge7" class="edge">
<title>140592638568400&#45;&gt;140592658572752*</title>
<path fill="none" stroke="#000000" d="M651.2347,-73.5C660.3669,-73.5 669.0397,-73.5 676.8624,-73.5"/>
<polygon fill="#000000" stroke="#000000" points="676.966,-77.0001 686.966,-73.5 676.9659,-70.0001 676.966,-77.0001"/>
</g>
<!-- 140592638569040 -->
<g id="node4" class="node">
<title>140592638569040</title>
<polygon fill="none" stroke="#000000" points="32,-138.5 32,-174.5 234,-174.5 234,-138.5 32,-138.5"/>
<text text-anchor="middle" x="42" y="-152.8" font-family="Times,serif" font-size="14.00" fill="#000000"> </text>
<polyline fill="none" stroke="#000000" points="52,-138.5 52,-174.5 "/>
<text text-anchor="middle" x="99.5" y="-152.8" font-family="Times,serif" font-size="14.00" fill="#000000">valor &#45;0.2629</text>
<polyline fill="none" stroke="#000000" points="147,-138.5 147,-174.5 "/>
<text text-anchor="middle" x="190.5" y="-152.8" font-family="Times,serif" font-size="14.00" fill="#000000">grad 2.4877</text>
</g>
<!-- 140592625390928* -->
<g id="node11" class="node">
<title>140592625390928*</title>
<ellipse fill="none" stroke="#000000" cx="329" cy="-128.5" rx="27" ry="18"/>
<text text-anchor="middle" x="329" y="-124.8" font-family="Times,serif" font-size="14.00" fill="#000000">*</text>
</g>
<!-- 140592638569040&#45;&gt;140592625390928* -->
<g id="edge13" class="edge">
<title>140592638569040&#45;&gt;140592625390928*</title>
<path fill="none" stroke="#000000" d="M234.1577,-142.0489C254.8895,-139.0872 275.4326,-136.1525 292.0708,-133.7756"/>
<polygon fill="#000000" stroke="#000000" points="292.9988,-137.1787 302.4033,-132.2995 292.0088,-130.249 292.9988,-137.1787"/>
</g>
<!-- 140592767843472 -->
<g id="node5" class="node">
<title>140592767843472</title>
<polygon fill="none" stroke="#000000" points="1105,-82.5 1105,-118.5 1303,-118.5 1303,-82.5 1105,-82.5"/>
<text text-anchor="middle" x="1115" y="-96.8" font-family="Times,serif" font-size="14.00" fill="#000000"> </text>
<polyline fill="none" stroke="#000000" points="1125,-82.5 1125,-118.5 "/>
<text text-anchor="middle" x="1170.5" y="-96.8" font-family="Times,serif" font-size="14.00" fill="#000000">valor 0.8849</text>
<polyline fill="none" stroke="#000000" points="1216,-82.5 1216,-118.5 "/>
<text text-anchor="middle" x="1259.5" y="-96.8" font-family="Times,serif" font-size="14.00" fill="#000000">grad 0.4975</text>
</g>
<!-- 140592767843472&#45;&gt;140592636909136tanh -->
<g id="edge14" class="edge">
<title>140592767843472&#45;&gt;140592636909136tanh</title>
<path fill="none" stroke="#000000" d="M1303.3666,-100.5C1312.282,-100.5 1320.8842,-100.5 1328.7093,-100.5"/>
<polygon fill="#000000" stroke="#000000" points="1328.8549,-104.0001 1338.8549,-100.5 1328.8549,-97.0001 1328.8549,-104.0001"/>
</g>
<!-- 140592767843472+ -->
<g id="node6" class="node">
<title>140592767843472+</title>
<ellipse fill="none" stroke="#000000" cx="1042" cy="-100.5" rx="27" ry="18"/>
<text text-anchor="middle" x="1042" y="-96.8" font-family="Times,serif" font-size="14.00" fill="#000000">+</text>
</g>
<!-- 140592767843472+&#45;&gt;140592767843472 -->
<g id="edge2" class="edge">
<title>140592767843472+&#45;&gt;140592767843472</title>
<path fill="none" stroke="#000000" d="M1069.1152,-100.5C1076.656,-100.5 1085.3371,-100.5 1094.584,-100.5"/>
<polygon fill="#000000" stroke="#000000" points="1094.8128,-104.0001 1104.8128,-100.5 1094.8127,-97.0001 1094.8128,-104.0001"/>
</g>
<!-- 140592638570128 -->
<g id="node7" class="node">
<title>140592638570128</title>
<polygon fill="none" stroke="#000000" points="420.5,-165.5 420.5,-201.5 622.5,-201.5 622.5,-165.5 420.5,-165.5"/>
<text text-anchor="middle" x="430.5" y="-179.8" font-family="Times,serif" font-size="14.00" fill="#000000"> </text>
<polyline fill="none" stroke="#000000" points="440.5,-165.5 440.5,-201.5 "/>
<text text-anchor="middle" x="488" y="-179.8" font-family="Times,serif" font-size="14.00" fill="#000000">valor &#45;0.9060</text>
<polyline fill="none" stroke="#000000" points="535.5,-165.5 535.5,-201.5 "/>
<text text-anchor="middle" x="579" y="-179.8" font-family="Times,serif" font-size="14.00" fill="#000000">grad 0.4975</text>
</g>
<!-- 140592884314960+ -->
<g id="node9" class="node">
<title>140592884314960+</title>
<ellipse fill="none" stroke="#000000" cx="714" cy="-128.5" rx="27" ry="18"/>
<text text-anchor="middle" x="714" y="-124.8" font-family="Times,serif" font-size="14.00" fill="#000000">+</text>
</g>
<!-- 140592638570128&#45;&gt;140592884314960+ -->
<g id="edge10" class="edge">
<title>140592638570128&#45;&gt;140592884314960+</title>
<path fill="none" stroke="#000000" d="M619.3133,-165.4327C630.0917,-162.7543 640.836,-159.777 651,-156.5 661.7046,-153.0487 673.0391,-148.3585 683.0987,-143.8039"/>
<polygon fill="#000000" stroke="#000000" points="684.7028,-146.9178 692.2907,-139.5235 681.7478,-140.5721 684.7028,-146.9178"/>
</g>
<!-- 140592884314960 -->
<g id="node8" class="node">
<title>140592884314960</title>
<polygon fill="none" stroke="#000000" points="777,-110.5 777,-146.5 979,-146.5 979,-110.5 777,-110.5"/>
<text text-anchor="middle" x="787" y="-124.8" font-family="Times,serif" font-size="14.00" fill="#000000"> </text>
<polyline fill="none" stroke="#000000" points="797,-110.5 797,-146.5 "/>
<text text-anchor="middle" x="844.5" y="-124.8" font-family="Times,serif" font-size="14.00" fill="#000000">valor &#45;2.2203</text>
<polyline fill="none" stroke="#000000" points="892,-110.5 892,-146.5 "/>
<text text-anchor="middle" x="935.5" y="-124.8" font-family="Times,serif" font-size="14.00" fill="#000000">grad 0.4975</text>
</g>
<!-- 140592884314960&#45;&gt;140592767843472+ -->
<g id="edge11" class="edge">
<title>140592884314960&#45;&gt;140592767843472+</title>
<path fill="none" stroke="#000000" d="M979.0623,-111.2455C988.5172,-109.6312 997.6142,-108.0781 1005.8116,-106.6785"/>
<polygon fill="#000000" stroke="#000000" points="1006.405,-110.1279 1015.6733,-104.9948 1005.2269,-103.2278 1006.405,-110.1279"/>
</g>
<!-- 140592884314960+&#45;&gt;140592884314960 -->
<g id="edge3" class="edge">
<title>140592884314960+&#45;&gt;140592884314960</title>
<path fill="none" stroke="#000000" d="M741.0813,-128.5C748.631,-128.5 757.3302,-128.5 766.608,-128.5"/>
<polygon fill="#000000" stroke="#000000" points="766.8754,-132.0001 776.8754,-128.5 766.8754,-125.0001 766.8754,-132.0001"/>
</g>
<!-- 140592625390928 -->
<g id="node10" class="node">
<title>140592625390928</title>
<polygon fill="none" stroke="#000000" points="420.5,-110.5 420.5,-146.5 622.5,-146.5 622.5,-110.5 420.5,-110.5"/>
<text text-anchor="middle" x="430.5" y="-124.8" font-family="Times,serif" font-size="14.00" fill="#000000"> </text>
<polyline fill="none" stroke="#000000" points="440.5,-110.5 440.5,-146.5 "/>
<text text-anchor="middle" x="488" y="-124.8" font-family="Times,serif" font-size="14.00" fill="#000000">valor &#45;1.3143</text>
<polyline fill="none" stroke="#000000" points="535.5,-110.5 535.5,-146.5 "/>
<text text-anchor="middle" x="579" y="-124.8" font-family="Times,serif" font-size="14.00" fill="#000000">grad 0.4975</text>
</g>
<!-- 140592625390928&#45;&gt;140592884314960+ -->
<g id="edge8" class="edge">
<title>140592625390928&#45;&gt;140592884314960+</title>
<path fill="none" stroke="#000000" d="M622.5419,-128.5C641.8653,-128.5 660.9304,-128.5 676.6117,-128.5"/>
<polygon fill="#000000" stroke="#000000" points="676.889,-132.0001 686.8889,-128.5 676.8889,-125.0001 676.889,-132.0001"/>
</g>
<!-- 140592625390928*&#45;&gt;140592625390928 -->
<g id="edge4" class="edge">
<title>140592625390928*&#45;&gt;140592625390928</title>
<path fill="none" stroke="#000000" d="M356.1723,-128.5C370.801,-128.5 389.9294,-128.5 409.9646,-128.5"/>
<polygon fill="#000000" stroke="#000000" points="410.1797,-132.0001 420.1797,-128.5 410.1797,-125.0001 410.1797,-132.0001"/>
</g>
<!-- 140592638570384 -->
<g id="node12" class="node">
<title>140592638570384</title>
<polygon fill="none" stroke="#000000" points="0,-83.5 0,-119.5 266,-119.5 266,-83.5 0,-83.5"/>
<text text-anchor="middle" x="41.5" y="-97.8" font-family="Times,serif" font-size="14.00" fill="#000000">sentimiento</text>
<polyline fill="none" stroke="#000000" points="83,-83.5 83,-119.5 "/>
<text text-anchor="middle" x="128.5" y="-97.8" font-family="Times,serif" font-size="14.00" fill="#000000">valor 5.0000</text>
<polyline fill="none" stroke="#000000" points="174,-83.5 174,-119.5 "/>
<text text-anchor="middle" x="220" y="-97.8" font-family="Times,serif" font-size="14.00" fill="#000000">grad &#45;0.1308</text>
</g>
<!-- 140592638570384&#45;&gt;140592625390928* -->
<g id="edge12" class="edge">
<title>140592638570384&#45;&gt;140592625390928*</title>
<path fill="none" stroke="#000000" d="M263.7348,-119.5094C274.0189,-120.9261 283.7596,-122.2679 292.4264,-123.4618"/>
<polygon fill="#000000" stroke="#000000" points="292.0455,-126.9423 302.4296,-124.8398 293.0008,-120.0078 292.0455,-126.9423"/>
</g>
<!-- 140592638567824 -->
<g id="node13" class="node">
<title>140592638567824</title>
<polygon fill="none" stroke="#000000" points="422.5,-.5 422.5,-36.5 620.5,-36.5 620.5,-.5 422.5,-.5"/>
<text text-anchor="middle" x="432.5" y="-14.8" font-family="Times,serif" font-size="14.00" fill="#000000"> </text>
<polyline fill="none" stroke="#000000" points="442.5,-.5 442.5,-36.5 "/>
<text text-anchor="middle" x="488" y="-14.8" font-family="Times,serif" font-size="14.00" fill="#000000">valor 0.6210</text>
<polyline fill="none" stroke="#000000" points="533.5,-.5 533.5,-36.5 "/>
<text text-anchor="middle" x="577" y="-14.8" font-family="Times,serif" font-size="14.00" fill="#000000">grad 2.4877</text>
</g>
<!-- 140592638567824&#45;&gt;140592658572752* -->
<g id="edge6" class="edge">
<title>140592638567824&#45;&gt;140592658572752*</title>
<path fill="none" stroke="#000000" d="M619.3133,-36.5673C630.0917,-39.2457 640.836,-42.223 651,-45.5 661.7046,-48.9513 673.0391,-53.6415 683.0987,-58.1961"/>
<polygon fill="#000000" stroke="#000000" points="681.7478,-61.4279 692.2907,-62.4765 684.7028,-55.0822 681.7478,-61.4279"/>
</g>
<!-- 140592658572752 -->
<g id="node14" class="node">
<title>140592658572752</title>
<polygon fill="none" stroke="#000000" points="779,-55.5 779,-91.5 977,-91.5 977,-55.5 779,-55.5"/>
<text text-anchor="middle" x="789" y="-69.8" font-family="Times,serif" font-size="14.00" fill="#000000"> </text>
<polyline fill="none" stroke="#000000" points="799,-55.5 799,-91.5 "/>
<text text-anchor="middle" x="844.5" y="-69.8" font-family="Times,serif" font-size="14.00" fill="#000000">valor 3.1052</text>
<polyline fill="none" stroke="#000000" points="890,-55.5 890,-91.5 "/>
<text text-anchor="middle" x="933.5" y="-69.8" font-family="Times,serif" font-size="14.00" fill="#000000">grad 0.4975</text>
</g>
<!-- 140592658572752&#45;&gt;140592767843472+ -->
<g id="edge9" class="edge">
<title>140592658572752&#45;&gt;140592767843472+</title>
<path fill="none" stroke="#000000" d="M977.1829,-89.8289C987.2539,-91.4869 996.9628,-93.0853 1005.6645,-94.5179"/>
<polygon fill="#000000" stroke="#000000" points="1005.3001,-98.005 1015.7358,-96.176 1006.4373,-91.098 1005.3001,-98.005"/>
</g>
<!-- 140592658572752*&#45;&gt;140592658572752 -->
<g id="edge5" class="edge">
<title>140592658572752*&#45;&gt;140592658572752</title>
<path fill="none" stroke="#000000" d="M741.0813,-73.5C749.201,-73.5 758.6504,-73.5 768.7192,-73.5"/>
<polygon fill="#000000" stroke="#000000" points="768.9681,-77.0001 778.968,-73.5 768.968,-70.0001 768.9681,-77.0001"/>
</g>
</g>
</svg>
