<?xml version="1.0" encoding="UTF-8" standalone="no"?>
<!DOCTYPE svg PUBLIC "-//W3C//DTD SVG 1.1//EN"
 "http://www.w3.org/Graphics/SVG/1.1/DTD/svg11.dtd">
<!-- Generated by graphviz version 2.40.1 (20161225.0304)
 -->
<!-- Title: %3 Pages: 1 -->
<svg width="1220pt" height="128pt"
 viewBox="0.00 0.00 1220.00 128.00" xmlns="http://www.w3.org/2000/svg" xmlns:xlink="http://www.w3.org/1999/xlink">
<g id="graph0" class="graph" transform="scale(1 1) rotate(0) translate(4 124)">
<title>%3</title>
<polygon fill="#ffffff" stroke="transparent" points="-4,4 -4,-124 1216,-124 1216,4 -4,4"/>
<!-- 139854933314128 -->
<g id="node1" class="node">
<title>139854933314128</title>
<polygon fill="none" stroke="#000000" points="1004,-27.5 1004,-63.5 1212,-63.5 1212,-27.5 1004,-27.5"/>
<text text-anchor="middle" x="1017" y="-41.8" font-family="Times,serif" font-size="14.00" fill="#000000">L</text>
<polyline fill="none" stroke="#000000" points="1030,-27.5 1030,-63.5 "/>
<text text-anchor="middle" x="1077.5" y="-41.8" font-family="Times,serif" font-size="14.00" fill="#000000">valor &#45;2.2100</text>
<polyline fill="none" stroke="#000000" points="1125,-27.5 1125,-63.5 "/>
<text text-anchor="middle" x="1168.5" y="-41.8" font-family="Times,serif" font-size="14.00" fill="#000000">grad 1.0000</text>
</g>
<!-- 139854933314128* -->
<g id="node2" class="node">
<title>139854933314128*</title>
<ellipse fill="none" stroke="#000000" cx="941" cy="-45.5" rx="27" ry="18"/>
<text text-anchor="middle" x="941" y="-41.8" font-family="Times,serif" font-size="14.00" fill="#000000">*</text>
</g>
<!-- 139854933314128*&#45;&gt;139854933314128 -->
<g id="edge1" class="edge">
<title>139854933314128*&#45;&gt;139854933314128</title>
<path fill="none" stroke="#000000" d="M968.2031,-45.5C975.7372,-45.5 984.4158,-45.5 993.6835,-45.5"/>
<polygon fill="#000000" stroke="#000000" points="993.945,-49.0001 1003.945,-45.5 993.9449,-42.0001 993.945,-49.0001"/>
</g>
<!-- 139855012263120 -->
<g id="node3" class="node">
<title>139855012263120</title>
<polygon fill="none" stroke="#000000" points="672,-55.5 672,-91.5 878,-91.5 878,-55.5 672,-55.5"/>
<text text-anchor="middle" x="683.5" y="-69.8" font-family="Times,serif" font-size="14.00" fill="#000000">e</text>
<polyline fill="none" stroke="#000000" points="695,-55.5 695,-91.5 "/>
<text text-anchor="middle" x="740.5" y="-69.8" font-family="Times,serif" font-size="14.00" fill="#000000">valor 0.7399</text>
<polyline fill="none" stroke="#000000" points="786,-55.5 786,-91.5 "/>
<text text-anchor="middle" x="832" y="-69.8" font-family="Times,serif" font-size="14.00" fill="#000000">grad &#45;2.9870</text>
</g>
<!-- 139855012263120&#45;&gt;139854933314128* -->
<g id="edge7" class="edge">
<title>139855012263120&#45;&gt;139854933314128*</title>
<path fill="none" stroke="#000000" d="M878.2425,-56.0856C887.5947,-54.5081 896.5817,-52.9922 904.6881,-51.6249"/>
<polygon fill="#000000" stroke="#000000" points="905.5156,-55.0348 914.7941,-49.9203 904.3513,-48.1324 905.5156,-55.0348"/>
</g>
<!-- 139855012263120+ -->
<g id="node4" class="node">
<title>139855012263120+</title>
<ellipse fill="none" stroke="#000000" cx="609" cy="-73.5" rx="27" ry="18"/>
<text text-anchor="middle" x="609" y="-69.8" font-family="Times,serif" font-size="14.00" fill="#000000">+</text>
</g>
<!-- 139855012263120+&#45;&gt;139855012263120 -->
<g id="edge2" class="edge">
<title>139855012263120+&#45;&gt;139855012263120</title>
<path fill="none" stroke="#000000" d="M636.0402,-73.5C643.677,-73.5 652.4969,-73.5 661.9144,-73.5"/>
<polygon fill="#000000" stroke="#000000" points="661.9202,-77.0001 671.9202,-73.5 661.9202,-70.0001 661.9202,-77.0001"/>
</g>
<!-- 139854933370576 -->
<g id="node5" class="node">
<title>139854933370576</title>
<polygon fill="none" stroke="#000000" points="0,-56.5 0,-92.5 210,-92.5 210,-56.5 0,-56.5"/>
<text text-anchor="middle" x="11.5" y="-70.8" font-family="Times,serif" font-size="14.00" fill="#000000">a</text>
<polyline fill="none" stroke="#000000" points="23,-56.5 23,-92.5 "/>
<text text-anchor="middle" x="70.5" y="-70.8" font-family="Times,serif" font-size="14.00" fill="#000000">valor &#45;2.9900</text>
<polyline fill="none" stroke="#000000" points="118,-56.5 118,-92.5 "/>
<text text-anchor="middle" x="164" y="-70.8" font-family="Times,serif" font-size="14.00" fill="#000000">grad &#45;9.2209</text>
</g>
<!-- 139855012262736* -->
<g id="node9" class="node">
<title>139855012262736*</title>
<ellipse fill="none" stroke="#000000" cx="273" cy="-46.5" rx="27" ry="18"/>
<text text-anchor="middle" x="273" y="-42.8" font-family="Times,serif" font-size="14.00" fill="#000000">*</text>
</g>
<!-- 139854933370576&#45;&gt;139855012262736* -->
<g id="edge4" class="edge">
<title>139854933370576&#45;&gt;139855012262736*</title>
<path fill="none" stroke="#000000" d="M210.443,-56.9262C219.7024,-55.3829 228.5893,-53.9018 236.6112,-52.5648"/>
<polygon fill="#000000" stroke="#000000" points="237.3287,-55.9936 246.6172,-50.8971 236.1779,-49.0888 237.3287,-55.9936"/>
</g>
<!-- 139855012262160 -->
<g id="node6" class="node">
<title>139855012262160</title>
<polygon fill="none" stroke="#000000" points="337.5,-83.5 337.5,-119.5 544.5,-119.5 544.5,-83.5 337.5,-83.5"/>
<text text-anchor="middle" x="349.5" y="-97.8" font-family="Times,serif" font-size="14.00" fill="#000000">d</text>
<polyline fill="none" stroke="#000000" points="361.5,-83.5 361.5,-119.5 "/>
<text text-anchor="middle" x="407" y="-97.8" font-family="Times,serif" font-size="14.00" fill="#000000">valor 9.9700</text>
<polyline fill="none" stroke="#000000" points="452.5,-83.5 452.5,-119.5 "/>
<text text-anchor="middle" x="498.5" y="-97.8" font-family="Times,serif" font-size="14.00" fill="#000000">grad &#45;2.9870</text>
</g>
<!-- 139855012262160&#45;&gt;139855012263120+ -->
<g id="edge5" class="edge">
<title>139855012262160&#45;&gt;139855012263120+</title>
<path fill="none" stroke="#000000" d="M544.5273,-84.2455C554.5124,-82.5813 564.1078,-80.982 572.7057,-79.549"/>
<polygon fill="#000000" stroke="#000000" points="573.3691,-82.9868 582.6577,-77.8904 572.2183,-76.0821 573.3691,-82.9868"/>
</g>
<!-- 139854933371792 -->
<g id="node7" class="node">
<title>139854933371792</title>
<polygon fill="none" stroke="#000000" points="4.5,-1.5 4.5,-37.5 205.5,-37.5 205.5,-1.5 4.5,-1.5"/>
<text text-anchor="middle" x="16.5" y="-15.8" font-family="Times,serif" font-size="14.00" fill="#000000">b</text>
<polyline fill="none" stroke="#000000" points="28.5,-1.5 28.5,-37.5 "/>
<text text-anchor="middle" x="74" y="-15.8" font-family="Times,serif" font-size="14.00" fill="#000000">valor 3.0870</text>
<polyline fill="none" stroke="#000000" points="119.5,-1.5 119.5,-37.5 "/>
<text text-anchor="middle" x="162.5" y="-15.8" font-family="Times,serif" font-size="14.00" fill="#000000">grad 8.9311</text>
</g>
<!-- 139854933371792&#45;&gt;139855012262736* -->
<g id="edge8" class="edge">
<title>139854933371792&#45;&gt;139855012262736*</title>
<path fill="none" stroke="#000000" d="M205.636,-35.6736C216.603,-37.4362 227.176,-39.1354 236.566,-40.6445"/>
<polygon fill="#000000" stroke="#000000" points="236.1943,-44.1296 246.623,-42.2608 237.3051,-37.2183 236.1943,-44.1296"/>
</g>
<!-- 139855012262736 -->
<g id="node8" class="node">
<title>139855012262736</title>
<polygon fill="none" stroke="#000000" points="336,-28.5 336,-64.5 546,-64.5 546,-28.5 336,-28.5"/>
<text text-anchor="middle" x="347.5" y="-42.8" font-family="Times,serif" font-size="14.00" fill="#000000">c</text>
<polyline fill="none" stroke="#000000" points="359,-28.5 359,-64.5 "/>
<text text-anchor="middle" x="406.5" y="-42.8" font-family="Times,serif" font-size="14.00" fill="#000000">valor &#45;9.2301</text>
<polyline fill="none" stroke="#000000" points="454,-28.5 454,-64.5 "/>
<text text-anchor="middle" x="500" y="-42.8" font-family="Times,serif" font-size="14.00" fill="#000000">grad &#45;2.9870</text>
</g>
<!-- 139855012262736&#45;&gt;139855012263120+ -->
<g id="edge9" class="edge">
<title>139855012262736&#45;&gt;139855012263120+</title>
<path fill="none" stroke="#000000" d="M546.443,-63.4462C555.7024,-64.9343 564.5893,-66.3626 572.6112,-67.6518"/>
<polygon fill="#000000" stroke="#000000" points="572.1885,-71.1287 582.6172,-69.2599 573.2993,-64.2174 572.1885,-71.1287"/>
</g>
<!-- 139855012262736*&#45;&gt;139855012262736 -->
<g id="edge3" class="edge">
<title>139855012262736*&#45;&gt;139855012262736</title>
<path fill="none" stroke="#000000" d="M300.366,-46.5C307.8769,-46.5 316.5185,-46.5 325.7472,-46.5"/>
<polygon fill="#000000" stroke="#000000" points="325.9659,-50.0001 335.9659,-46.5 325.9658,-43.0001 325.9659,-50.0001"/>
</g>
<!-- 139855012263312 -->
<g id="node10" class="node">
<title>139855012263312</title>
<polygon fill="none" stroke="#000000" points="673.5,-.5 673.5,-36.5 876.5,-36.5 876.5,-.5 673.5,-.5"/>
<text text-anchor="middle" x="684" y="-14.8" font-family="Times,serif" font-size="14.00" fill="#000000">f</text>
<polyline fill="none" stroke="#000000" points="694.5,-.5 694.5,-36.5 "/>
<text text-anchor="middle" x="742" y="-14.8" font-family="Times,serif" font-size="14.00" fill="#000000">valor &#45;2.9870</text>
<polyline fill="none" stroke="#000000" points="789.5,-.5 789.5,-36.5 "/>
<text text-anchor="middle" x="833" y="-14.8" font-family="Times,serif" font-size="14.00" fill="#000000">grad 0.7399</text>
</g>
<!-- 139855012263312&#45;&gt;139854933314128* -->
<g id="edge6" class="edge">
<title>139855012263312&#45;&gt;139854933314128*</title>
<path fill="none" stroke="#000000" d="M876.8201,-35.0611C886.7442,-36.6753 896.2895,-38.2278 904.8468,-39.6197"/>
<polygon fill="#000000" stroke="#000000" points="904.3219,-43.0802 914.7541,-41.2311 905.4457,-36.171 904.3219,-43.0802"/>
</g>
</g>
</svg>
