<?xml version="1.0" encoding="UTF-8" standalone="no"?>
<!DOCTYPE svg PUBLIC "-//W3C//DTD SVG 1.1//EN"
 "http://www.w3.org/Graphics/SVG/1.1/DTD/svg11.dtd">
<!-- Generated by graphviz version 2.40.1 (20161225.0304)
 -->
<!-- Title: %3 Pages: 1 -->
<svg width="1220pt" height="128pt"
 viewBox="0.00 0.00 1220.00 128.00" xmlns="http://www.w3.org/2000/svg" xmlns:xlink="http://www.w3.org/1999/xlink">
<g id="graph0" class="graph" transform="scale(1 1) rotate(0) translate(4 124)">
<title>%3</title>
<polygon fill="#ffffff" stroke="transparent" points="-4,4 -4,-124 1216,-124 1216,4 -4,4"/>
<!-- 140370304192016 -->
<g id="node1" class="node">
<title>140370304192016</title>
<polygon fill="none" stroke="#000000" points="672,-27.5 672,-63.5 878,-63.5 878,-27.5 672,-27.5"/>
<text text-anchor="middle" x="683.5" y="-41.8" font-family="Times,serif" font-size="14.00" fill="#000000">e</text>
<polyline fill="none" stroke="#000000" points="695,-27.5 695,-63.5 "/>
<text text-anchor="middle" x="740.5" y="-41.8" font-family="Times,serif" font-size="14.00" fill="#000000">valor 0.1501</text>
<polyline fill="none" stroke="#000000" points="786,-27.5 786,-63.5 "/>
<text text-anchor="middle" x="832" y="-41.8" font-family="Times,serif" font-size="14.00" fill="#000000">grad &#45;2.9796</text>
</g>
<!-- 140370304192144* -->
<g id="node7" class="node">
<title>140370304192144*</title>
<ellipse fill="none" stroke="#000000" cx="941" cy="-72.5" rx="27" ry="18"/>
<text text-anchor="middle" x="941" y="-68.8" font-family="Times,serif" font-size="14.00" fill="#000000">*</text>
</g>
<!-- 140370304192016&#45;&gt;140370304192144* -->
<g id="edge8" class="edge">
<title>140370304192016&#45;&gt;140370304192144*</title>
<path fill="none" stroke="#000000" d="M878.2425,-62.2925C887.503,-63.7987 896.4054,-65.2467 904.4494,-66.555"/>
<polygon fill="#000000" stroke="#000000" points="904.0552,-70.0368 914.4874,-68.1877 905.179,-63.1276 904.0552,-70.0368"/>
</g>
<!-- 140370304192016+ -->
<g id="node2" class="node">
<title>140370304192016+</title>
<ellipse fill="none" stroke="#000000" cx="609" cy="-45.5" rx="27" ry="18"/>
<text text-anchor="middle" x="609" y="-41.8" font-family="Times,serif" font-size="14.00" fill="#000000">+</text>
</g>
<!-- 140370304192016+&#45;&gt;140370304192016 -->
<g id="edge1" class="edge">
<title>140370304192016+&#45;&gt;140370304192016</title>
<path fill="none" stroke="#000000" d="M636.0402,-45.5C643.677,-45.5 652.4969,-45.5 661.9144,-45.5"/>
<polygon fill="#000000" stroke="#000000" points="661.9202,-49.0001 671.9202,-45.5 661.9202,-42.0001 661.9202,-49.0001"/>
</g>
<!-- 140370303742992 -->
<g id="node3" class="node">
<title>140370303742992</title>
<polygon fill="none" stroke="#000000" points="0,-83.5 0,-119.5 210,-119.5 210,-83.5 0,-83.5"/>
<text text-anchor="middle" x="11.5" y="-97.8" font-family="Times,serif" font-size="14.00" fill="#000000">a</text>
<polyline fill="none" stroke="#000000" points="23,-83.5 23,-119.5 "/>
<text text-anchor="middle" x="70.5" y="-97.8" font-family="Times,serif" font-size="14.00" fill="#000000">valor &#45;3.0822</text>
<polyline fill="none" stroke="#000000" points="118,-83.5 118,-119.5 "/>
<text text-anchor="middle" x="164" y="-97.8" font-family="Times,serif" font-size="14.00" fill="#000000">grad &#45;9.4641</text>
</g>
<!-- 140370303745104* -->
<g id="node5" class="node">
<title>140370303745104*</title>
<ellipse fill="none" stroke="#000000" cx="273" cy="-73.5" rx="27" ry="18"/>
<text text-anchor="middle" x="273" y="-69.8" font-family="Times,serif" font-size="14.00" fill="#000000">*</text>
</g>
<!-- 140370303742992&#45;&gt;140370303745104* -->
<g id="edge5" class="edge">
<title>140370303742992&#45;&gt;140370303745104*</title>
<path fill="none" stroke="#000000" d="M210.443,-83.9262C219.7024,-82.3829 228.5893,-80.9018 236.6112,-79.5648"/>
<polygon fill="#000000" stroke="#000000" points="237.3287,-82.9936 246.6172,-77.8971 236.1779,-76.0888 237.3287,-82.9936"/>
</g>
<!-- 140370303745104 -->
<g id="node4" class="node">
<title>140370303745104</title>
<polygon fill="none" stroke="#000000" points="336,-55.5 336,-91.5 546,-91.5 546,-55.5 336,-55.5"/>
<text text-anchor="middle" x="347.5" y="-69.8" font-family="Times,serif" font-size="14.00" fill="#000000">c</text>
<polyline fill="none" stroke="#000000" points="359,-55.5 359,-91.5 "/>
<text text-anchor="middle" x="406.5" y="-69.8" font-family="Times,serif" font-size="14.00" fill="#000000">valor &#45;9.7901</text>
<polyline fill="none" stroke="#000000" points="454,-55.5 454,-91.5 "/>
<text text-anchor="middle" x="500" y="-69.8" font-family="Times,serif" font-size="14.00" fill="#000000">grad &#45;2.9796</text>
</g>
<!-- 140370303745104&#45;&gt;140370304192016+ -->
<g id="edge9" class="edge">
<title>140370303745104&#45;&gt;140370304192016+</title>
<path fill="none" stroke="#000000" d="M546.443,-55.9262C555.7024,-54.3829 564.5893,-52.9018 572.6112,-51.5648"/>
<polygon fill="#000000" stroke="#000000" points="573.3287,-54.9936 582.6172,-49.8971 572.1779,-48.0888 573.3287,-54.9936"/>
</g>
<!-- 140370303745104*&#45;&gt;140370303745104 -->
<g id="edge2" class="edge">
<title>140370303745104*&#45;&gt;140370303745104</title>
<path fill="none" stroke="#000000" d="M300.366,-73.5C307.8769,-73.5 316.5185,-73.5 325.7472,-73.5"/>
<polygon fill="#000000" stroke="#000000" points="325.9659,-77.0001 335.9659,-73.5 325.9658,-70.0001 325.9659,-77.0001"/>
</g>
<!-- 140370304192144 -->
<g id="node6" class="node">
<title>140370304192144</title>
<polygon fill="none" stroke="#000000" points="1004,-54.5 1004,-90.5 1212,-90.5 1212,-54.5 1004,-54.5"/>
<text text-anchor="middle" x="1017" y="-68.8" font-family="Times,serif" font-size="14.00" fill="#000000">L</text>
<polyline fill="none" stroke="#000000" points="1030,-54.5 1030,-90.5 "/>
<text text-anchor="middle" x="1077.5" y="-68.8" font-family="Times,serif" font-size="14.00" fill="#000000">valor &#45;0.4472</text>
<polyline fill="none" stroke="#000000" points="1125,-54.5 1125,-90.5 "/>
<text text-anchor="middle" x="1168.5" y="-68.8" font-family="Times,serif" font-size="14.00" fill="#000000">grad 1.0000</text>
</g>
<!-- 140370304192144*&#45;&gt;140370304192144 -->
<g id="edge3" class="edge">
<title>140370304192144*&#45;&gt;140370304192144</title>
<path fill="none" stroke="#000000" d="M968.2031,-72.5C975.7372,-72.5 984.4158,-72.5 993.6835,-72.5"/>
<polygon fill="#000000" stroke="#000000" points="993.945,-76.0001 1003.945,-72.5 993.9449,-69.0001 993.945,-76.0001"/>
</g>
<!-- 140370303744720 -->
<g id="node8" class="node">
<title>140370303744720</title>
<polygon fill="none" stroke="#000000" points="337.5,-.5 337.5,-36.5 544.5,-36.5 544.5,-.5 337.5,-.5"/>
<text text-anchor="middle" x="349.5" y="-14.8" font-family="Times,serif" font-size="14.00" fill="#000000">d</text>
<polyline fill="none" stroke="#000000" points="361.5,-.5 361.5,-36.5 "/>
<text text-anchor="middle" x="407" y="-14.8" font-family="Times,serif" font-size="14.00" fill="#000000">valor 9.9401</text>
<polyline fill="none" stroke="#000000" points="452.5,-.5 452.5,-36.5 "/>
<text text-anchor="middle" x="498.5" y="-14.8" font-family="Times,serif" font-size="14.00" fill="#000000">grad &#45;2.9796</text>
</g>
<!-- 140370303744720&#45;&gt;140370304192016+ -->
<g id="edge4" class="edge">
<title>140370303744720&#45;&gt;140370304192016+</title>
<path fill="none" stroke="#000000" d="M544.5273,-35.1383C554.5124,-36.7431 564.1078,-38.2852 572.7057,-39.667"/>
<polygon fill="#000000" stroke="#000000" points="572.2289,-43.1352 582.6577,-41.2664 573.3398,-36.2239 572.2289,-43.1352"/>
</g>
<!-- 140370303745360 -->
<g id="node9" class="node">
<title>140370303745360</title>
<polygon fill="none" stroke="#000000" points="4,-28.5 4,-64.5 206,-64.5 206,-28.5 4,-28.5"/>
<text text-anchor="middle" x="16" y="-42.8" font-family="Times,serif" font-size="14.00" fill="#000000">b</text>
<polyline fill="none" stroke="#000000" points="28,-28.5 28,-64.5 "/>
<text text-anchor="middle" x="73.5" y="-42.8" font-family="Times,serif" font-size="14.00" fill="#000000">valor 3.1763</text>
<polyline fill="none" stroke="#000000" points="119,-28.5 119,-64.5 "/>
<text text-anchor="middle" x="162.5" y="-42.8" font-family="Times,serif" font-size="14.00" fill="#000000">grad 9.1838</text>
</g>
<!-- 140370303745360&#45;&gt;140370303745104* -->
<g id="edge7" class="edge">
<title>140370303745360&#45;&gt;140370303745104*</title>
<path fill="none" stroke="#000000" d="M206.1192,-62.7513C216.9242,-64.4878 227.3345,-66.1609 236.5934,-67.6489"/>
<polygon fill="#000000" stroke="#000000" points="236.0888,-71.1127 246.5175,-69.2439 237.1996,-64.2014 236.0888,-71.1127"/>
</g>
<!-- 140370304191312 -->
<g id="node10" class="node">
<title>140370304191312</title>
<polygon fill="none" stroke="#000000" points="673.5,-82.5 673.5,-118.5 876.5,-118.5 876.5,-82.5 673.5,-82.5"/>
<text text-anchor="middle" x="684" y="-96.8" font-family="Times,serif" font-size="14.00" fill="#000000">f</text>
<polyline fill="none" stroke="#000000" points="694.5,-82.5 694.5,-118.5 "/>
<text text-anchor="middle" x="742" y="-96.8" font-family="Times,serif" font-size="14.00" fill="#000000">valor &#45;2.9796</text>
<polyline fill="none" stroke="#000000" points="789.5,-82.5 789.5,-118.5 "/>
<text text-anchor="middle" x="833" y="-96.8" font-family="Times,serif" font-size="14.00" fill="#000000">grad 0.1501</text>
</g>
<!-- 140370304191312&#45;&gt;140370304192144* -->
<g id="edge6" class="edge">
<title>140370304191312&#45;&gt;140370304192144*</title>
<path fill="none" stroke="#000000" d="M876.8201,-83.3255C886.7442,-81.6516 896.2895,-80.0415 904.8468,-78.5981"/>
<polygon fill="#000000" stroke="#000000" points="905.4755,-82.0416 914.7541,-76.927 904.3112,-75.1391 905.4755,-82.0416"/>
</g>
</g>
</svg>
