<?xml version="1.0" encoding="UTF-8" standalone="no"?>
<!DOCTYPE svg PUBLIC "-//W3C//DTD SVG 1.1//EN"
 "http://www.w3.org/Graphics/SVG/1.1/DTD/svg11.dtd">
<!-- Generated by graphviz version 2.40.1 (20161225.0304)
 -->
<!-- Title: %3 Pages: 1 -->
<svg width="1626pt" height="237pt"
 viewBox="0.00 0.00 1626.00 237.00" xmlns="http://www.w3.org/2000/svg" xmlns:xlink="http://www.w3.org/1999/xlink">
<g id="graph0" class="graph" transform="scale(1 1) rotate(0) translate(4 233)">
<title>%3</title>
<polygon fill="#ffffff" stroke="transparent" points="-4,4 -4,-233 1622,-233 1622,4 -4,4"/>
<!-- 140292329596944 -->
<g id="node1" class="node">
<title>140292329596944</title>
<polygon fill="none" stroke="#000000" points="772,-82.5 772,-118.5 970,-118.5 970,-82.5 772,-82.5"/>
<text text-anchor="middle" x="782" y="-96.8" font-family="Times,serif" font-size="14.00" fill="#000000"> </text>
<polyline fill="none" stroke="#000000" points="792,-82.5 792,-118.5 "/>
<text text-anchor="middle" x="837.5" y="-96.8" font-family="Times,serif" font-size="14.00" fill="#000000">valor 0.6218</text>
<polyline fill="none" stroke="#000000" points="883,-82.5 883,-118.5 "/>
<text text-anchor="middle" x="926.5" y="-96.8" font-family="Times,serif" font-size="14.00" fill="#000000">grad 0.3029</text>
</g>
<!-- 140292329597776+ -->
<g id="node12" class="node">
<title>140292329597776+</title>
<ellipse fill="none" stroke="#000000" cx="1033" cy="-127.5" rx="27" ry="18"/>
<text text-anchor="middle" x="1033" y="-123.8" font-family="Times,serif" font-size="14.00" fill="#000000">+</text>
</g>
<!-- 140292329596944&#45;&gt;140292329597776+ -->
<g id="edge7" class="edge">
<title>140292329596944&#45;&gt;140292329597776+</title>
<path fill="none" stroke="#000000" d="M970.3666,-117.0611C979.6566,-118.6094 988.6064,-120.1011 996.6914,-121.4486"/>
<polygon fill="#000000" stroke="#000000" points="996.3384,-124.9379 1006.7778,-123.1296 997.4893,-118.0332 996.3384,-124.9379"/>
</g>
<!-- 140292329596944+ -->
<g id="node2" class="node">
<title>140292329596944+</title>
<ellipse fill="none" stroke="#000000" cx="709" cy="-100.5" rx="27" ry="18"/>
<text text-anchor="middle" x="709" y="-96.8" font-family="Times,serif" font-size="14.00" fill="#000000">+</text>
</g>
<!-- 140292329596944+&#45;&gt;140292329596944 -->
<g id="edge1" class="edge">
<title>140292329596944+&#45;&gt;140292329596944</title>
<path fill="none" stroke="#000000" d="M736.1152,-100.5C743.656,-100.5 752.3371,-100.5 761.584,-100.5"/>
<polygon fill="#000000" stroke="#000000" points="761.8128,-104.0001 771.8128,-100.5 761.8127,-97.0001 761.8128,-104.0001"/>
</g>
<!-- 140292329277584 -->
<g id="node3" class="node">
<title>140292329277584</title>
<polygon fill="none" stroke="#000000" points="0,-55.5 0,-91.5 261,-91.5 261,-55.5 0,-55.5"/>
<text text-anchor="middle" x="41.5" y="-69.8" font-family="Times,serif" font-size="14.00" fill="#000000">sentimiento</text>
<polyline fill="none" stroke="#000000" points="83,-55.5 83,-91.5 "/>
<text text-anchor="middle" x="128.5" y="-69.8" font-family="Times,serif" font-size="14.00" fill="#000000">valor 5.0000</text>
<polyline fill="none" stroke="#000000" points="174,-55.5 174,-91.5 "/>
<text text-anchor="middle" x="217.5" y="-69.8" font-family="Times,serif" font-size="14.00" fill="#000000">grad 0.0253</text>
</g>
<!-- 140292329597840* -->
<g id="node10" class="node">
<title>140292329597840*</title>
<ellipse fill="none" stroke="#000000" cx="324" cy="-45.5" rx="27" ry="18"/>
<text text-anchor="middle" x="324" y="-41.8" font-family="Times,serif" font-size="14.00" fill="#000000">*</text>
</g>
<!-- 140292329277584&#45;&gt;140292329597840* -->
<g id="edge14" class="edge">
<title>140292329277584&#45;&gt;140292329597840*</title>
<path fill="none" stroke="#000000" d="M254.9616,-55.4901C266.5989,-53.8061 277.6521,-52.2067 287.366,-50.801"/>
<polygon fill="#000000" stroke="#000000" points="287.9497,-54.2531 297.3453,-49.357 286.9471,-47.3253 287.9497,-54.2531"/>
</g>
<!-- 140292329039568 -->
<g id="node4" class="node">
<title>140292329039568</title>
<polygon fill="none" stroke="#000000" points="417.5,-82.5 417.5,-118.5 615.5,-118.5 615.5,-82.5 417.5,-82.5"/>
<text text-anchor="middle" x="427.5" y="-96.8" font-family="Times,serif" font-size="14.00" fill="#000000"> </text>
<polyline fill="none" stroke="#000000" points="437.5,-82.5 437.5,-118.5 "/>
<text text-anchor="middle" x="483" y="-96.8" font-family="Times,serif" font-size="14.00" fill="#000000">valor 0.2038</text>
<polyline fill="none" stroke="#000000" points="528.5,-82.5 528.5,-118.5 "/>
<text text-anchor="middle" x="572" y="-96.8" font-family="Times,serif" font-size="14.00" fill="#000000">grad 0.3029</text>
</g>
<!-- 140292329039568&#45;&gt;140292329596944+ -->
<g id="edge8" class="edge">
<title>140292329039568&#45;&gt;140292329596944+</title>
<path fill="none" stroke="#000000" d="M615.5695,-100.5C635.671,-100.5 655.6085,-100.5 671.8707,-100.5"/>
<polygon fill="#000000" stroke="#000000" points="671.9914,-104.0001 681.9914,-100.5 671.9913,-97.0001 671.9914,-104.0001"/>
</g>
<!-- 140292329038224 -->
<g id="node5" class="node">
<title>140292329038224</title>
<polygon fill="none" stroke="#000000" points="31.5,-.5 31.5,-36.5 229.5,-36.5 229.5,-.5 31.5,-.5"/>
<text text-anchor="middle" x="41.5" y="-14.8" font-family="Times,serif" font-size="14.00" fill="#000000"> </text>
<polyline fill="none" stroke="#000000" points="51.5,-.5 51.5,-36.5 "/>
<text text-anchor="middle" x="97" y="-14.8" font-family="Times,serif" font-size="14.00" fill="#000000">valor 0.0836</text>
<polyline fill="none" stroke="#000000" points="142.5,-.5 142.5,-36.5 "/>
<text text-anchor="middle" x="186" y="-14.8" font-family="Times,serif" font-size="14.00" fill="#000000">grad 1.5147</text>
</g>
<!-- 140292329038224&#45;&gt;140292329597840* -->
<g id="edge10" class="edge">
<title>140292329038224&#45;&gt;140292329597840*</title>
<path fill="none" stroke="#000000" d="M229.5174,-32.3164C250.1118,-35.19 270.5691,-38.0445 287.1541,-40.3587"/>
<polygon fill="#000000" stroke="#000000" points="287.0684,-43.8806 297.4561,-41.7962 288.0358,-36.9477 287.0684,-43.8806"/>
</g>
<!-- 140292329598160 -->
<g id="node6" class="node">
<title>140292329598160</title>
<polygon fill="none" stroke="#000000" points="772,-137.5 772,-173.5 970,-173.5 970,-137.5 772,-137.5"/>
<text text-anchor="middle" x="782" y="-151.8" font-family="Times,serif" font-size="14.00" fill="#000000"> </text>
<polyline fill="none" stroke="#000000" points="792,-137.5 792,-173.5 "/>
<text text-anchor="middle" x="837.5" y="-151.8" font-family="Times,serif" font-size="14.00" fill="#000000">valor 0.5823</text>
<polyline fill="none" stroke="#000000" points="883,-137.5 883,-173.5 "/>
<text text-anchor="middle" x="926.5" y="-151.8" font-family="Times,serif" font-size="14.00" fill="#000000">grad 0.3029</text>
</g>
<!-- 140292329598160&#45;&gt;140292329597776+ -->
<g id="edge11" class="edge">
<title>140292329598160&#45;&gt;140292329597776+</title>
<path fill="none" stroke="#000000" d="M970.3666,-138.3255C979.6566,-136.7198 988.6064,-135.173 996.6914,-133.7756"/>
<polygon fill="#000000" stroke="#000000" points="997.52,-137.1843 1006.7778,-132.0322 996.3277,-130.2866 997.52,-137.1843"/>
</g>
<!-- 140292329598160* -->
<g id="node7" class="node">
<title>140292329598160*</title>
<ellipse fill="none" stroke="#000000" cx="709" cy="-155.5" rx="27" ry="18"/>
<text text-anchor="middle" x="709" y="-151.8" font-family="Times,serif" font-size="14.00" fill="#000000">*</text>
</g>
<!-- 140292329598160*&#45;&gt;140292329598160 -->
<g id="edge2" class="edge">
<title>140292329598160*&#45;&gt;140292329598160</title>
<path fill="none" stroke="#000000" d="M736.1152,-155.5C743.656,-155.5 752.3371,-155.5 761.584,-155.5"/>
<polygon fill="#000000" stroke="#000000" points="761.8128,-159.0001 771.8128,-155.5 761.8127,-152.0001 761.8128,-159.0001"/>
</g>
<!-- 140292329276624 -->
<g id="node8" class="node">
<title>140292329276624</title>
<polygon fill="none" stroke="#000000" points="387,-192.5 387,-228.5 646,-228.5 646,-192.5 387,-192.5"/>
<text text-anchor="middle" x="427.5" y="-206.8" font-family="Times,serif" font-size="14.00" fill="#000000">calificacion</text>
<polyline fill="none" stroke="#000000" points="468,-192.5 468,-228.5 "/>
<text text-anchor="middle" x="513.5" y="-206.8" font-family="Times,serif" font-size="14.00" fill="#000000">valor 5.0000</text>
<polyline fill="none" stroke="#000000" points="559,-192.5 559,-228.5 "/>
<text text-anchor="middle" x="602.5" y="-206.8" font-family="Times,serif" font-size="14.00" fill="#000000">grad 0.0353</text>
</g>
<!-- 140292329276624&#45;&gt;140292329598160* -->
<g id="edge9" class="edge">
<title>140292329276624&#45;&gt;140292329598160*</title>
<path fill="none" stroke="#000000" d="M614.3133,-192.4327C625.0917,-189.7543 635.836,-186.777 646,-183.5 656.7046,-180.0487 668.0391,-175.3585 678.0987,-170.8039"/>
<polygon fill="#000000" stroke="#000000" points="679.7028,-173.9178 687.2907,-166.5235 676.7478,-167.5721 679.7028,-173.9178"/>
</g>
<!-- 140292329597840 -->
<g id="node9" class="node">
<title>140292329597840</title>
<polygon fill="none" stroke="#000000" points="417.5,-27.5 417.5,-63.5 615.5,-63.5 615.5,-27.5 417.5,-27.5"/>
<text text-anchor="middle" x="427.5" y="-41.8" font-family="Times,serif" font-size="14.00" fill="#000000"> </text>
<polyline fill="none" stroke="#000000" points="437.5,-27.5 437.5,-63.5 "/>
<text text-anchor="middle" x="483" y="-41.8" font-family="Times,serif" font-size="14.00" fill="#000000">valor 0.4179</text>
<polyline fill="none" stroke="#000000" points="528.5,-27.5 528.5,-63.5 "/>
<text text-anchor="middle" x="572" y="-41.8" font-family="Times,serif" font-size="14.00" fill="#000000">grad 0.3029</text>
</g>
<!-- 140292329597840&#45;&gt;140292329596944+ -->
<g id="edge13" class="edge">
<title>140292329597840&#45;&gt;140292329596944+</title>
<path fill="none" stroke="#000000" d="M610.4336,-63.5759C622.4962,-66.5491 634.6051,-69.8635 646,-73.5 656.5667,-76.8722 667.7907,-81.3682 677.7925,-85.7225"/>
<polygon fill="#000000" stroke="#000000" points="676.3881,-88.9285 686.946,-89.8126 679.2439,-82.5375 676.3881,-88.9285"/>
</g>
<!-- 140292329597840*&#45;&gt;140292329597840 -->
<g id="edge3" class="edge">
<title>140292329597840*&#45;&gt;140292329597840</title>
<path fill="none" stroke="#000000" d="M351.1723,-45.5C366.3132,-45.5 386.2742,-45.5 407.0719,-45.5"/>
<polygon fill="#000000" stroke="#000000" points="407.3315,-49.0001 417.3314,-45.5 407.3314,-42.0001 407.3315,-49.0001"/>
</g>
<!-- 140292329597776 -->
<g id="node11" class="node">
<title>140292329597776</title>
<polygon fill="none" stroke="#000000" points="1096,-109.5 1096,-145.5 1294,-145.5 1294,-109.5 1096,-109.5"/>
<text text-anchor="middle" x="1106" y="-123.8" font-family="Times,serif" font-size="14.00" fill="#000000"> </text>
<polyline fill="none" stroke="#000000" points="1116,-109.5 1116,-145.5 "/>
<text text-anchor="middle" x="1161.5" y="-123.8" font-family="Times,serif" font-size="14.00" fill="#000000">valor 1.2041</text>
<polyline fill="none" stroke="#000000" points="1207,-109.5 1207,-145.5 "/>
<text text-anchor="middle" x="1250.5" y="-123.8" font-family="Times,serif" font-size="14.00" fill="#000000">grad 0.3029</text>
</g>
<!-- 140292329595792tanh -->
<g id="node15" class="node">
<title>140292329595792tanh</title>
<ellipse fill="none" stroke="#000000" cx="1357" cy="-127.5" rx="27" ry="18"/>
<text text-anchor="middle" x="1357" y="-123.8" font-family="Times,serif" font-size="14.00" fill="#000000">tanh</text>
</g>
<!-- 140292329597776&#45;&gt;140292329595792tanh -->
<g id="edge6" class="edge">
<title>140292329597776&#45;&gt;140292329595792tanh</title>
<path fill="none" stroke="#000000" d="M1294.3666,-127.5C1303.282,-127.5 1311.8842,-127.5 1319.7093,-127.5"/>
<polygon fill="#000000" stroke="#000000" points="1319.8549,-131.0001 1329.8549,-127.5 1319.8549,-124.0001 1319.8549,-131.0001"/>
</g>
<!-- 140292329597776+&#45;&gt;140292329597776 -->
<g id="edge4" class="edge">
<title>140292329597776+&#45;&gt;140292329597776</title>
<path fill="none" stroke="#000000" d="M1060.1152,-127.5C1067.656,-127.5 1076.3371,-127.5 1085.584,-127.5"/>
<polygon fill="#000000" stroke="#000000" points="1085.8128,-131.0001 1095.8128,-127.5 1085.8127,-124.0001 1085.8128,-131.0001"/>
</g>
<!-- 140292329041808 -->
<g id="node13" class="node">
<title>140292329041808</title>
<polygon fill="none" stroke="#000000" points="418,-137.5 418,-173.5 615,-173.5 615,-137.5 418,-137.5"/>
<text text-anchor="middle" x="428" y="-151.8" font-family="Times,serif" font-size="14.00" fill="#000000"> </text>
<polyline fill="none" stroke="#000000" points="438,-137.5 438,-173.5 "/>
<text text-anchor="middle" x="483" y="-151.8" font-family="Times,serif" font-size="14.00" fill="#000000">valor 0.1165</text>
<polyline fill="none" stroke="#000000" points="528,-137.5 528,-173.5 "/>
<text text-anchor="middle" x="571.5" y="-151.8" font-family="Times,serif" font-size="14.00" fill="#000000">grad 1.5147</text>
</g>
<!-- 140292329041808&#45;&gt;140292329598160* -->
<g id="edge12" class="edge">
<title>140292329041808&#45;&gt;140292329598160*</title>
<path fill="none" stroke="#000000" d="M615.0057,-155.5C635.1901,-155.5 655.2422,-155.5 671.6087,-155.5"/>
<polygon fill="#000000" stroke="#000000" points="671.796,-159.0001 681.7959,-155.5 671.7959,-152.0001 671.796,-159.0001"/>
</g>
<!-- 140292329595792 -->
<g id="node14" class="node">
<title>140292329595792</title>
<polygon fill="none" stroke="#000000" points="1420,-109.5 1420,-145.5 1618,-145.5 1618,-109.5 1420,-109.5"/>
<text text-anchor="middle" x="1430" y="-123.8" font-family="Times,serif" font-size="14.00" fill="#000000"> </text>
<polyline fill="none" stroke="#000000" points="1440,-109.5 1440,-145.5 "/>
<text text-anchor="middle" x="1485.5" y="-123.8" font-family="Times,serif" font-size="14.00" fill="#000000">valor 0.8349</text>
<polyline fill="none" stroke="#000000" points="1531,-109.5 1531,-145.5 "/>
<text text-anchor="middle" x="1574.5" y="-123.8" font-family="Times,serif" font-size="14.00" fill="#000000">grad 1.0000</text>
</g>
<!-- 140292329595792tanh&#45;&gt;140292329595792 -->
<g id="edge5" class="edge">
<title>140292329595792tanh&#45;&gt;140292329595792</title>
<path fill="none" stroke="#000000" d="M1384.1152,-127.5C1391.656,-127.5 1400.3371,-127.5 1409.584,-127.5"/>
<polygon fill="#000000" stroke="#000000" points="1409.8128,-131.0001 1419.8128,-127.5 1409.8127,-124.0001 1409.8128,-131.0001"/>
</g>
</g>
</svg>