<?xml version="1.0" encoding="UTF-8" standalone="no"?>
<!DOCTYPE svg PUBLIC "-//W3C//DTD SVG 1.1//EN"
 "http://www.w3.org/Graphics/SVG/1.1/DTD/svg11.dtd">
<!-- Generated by graphviz version 2.40.1 (20161225.0304)
 -->
<!-- Title: %3 Pages: 1 -->
<svg width="614pt" height="128pt"
 viewBox="0.00 0.00 614.00 128.00" xmlns="http://www.w3.org/2000/svg" xmlns:xlink="http://www.w3.org/1999/xlink">
<g id="graph0" class="graph" transform="scale(1 1) rotate(0) translate(4 124)">
<title>%3</title>
<polygon fill="#ffffff" stroke="transparent" points="-4,4 -4,-124 610,-124 610,4 -4,4"/>
<!-- 139800168188496 -->
<g id="node1" class="node">
<title>139800168188496</title>
<polygon fill="none" stroke="#000000" points="0,-83.5 0,-119.5 119,-119.5 119,-83.5 0,-83.5"/>
<text text-anchor="middle" x="12" y="-97.8" font-family="Times,serif" font-size="14.00" fill="#000000">b</text>
<polyline fill="none" stroke="#000000" points="24,-83.5 24,-119.5 "/>
<text text-anchor="middle" x="71.5" y="-97.8" font-family="Times,serif" font-size="14.00" fill="#000000">valor &#45;3.0000</text>
</g>
<!-- 139800168187536* -->
<g id="node3" class="node">
<title>139800168187536*</title>
<ellipse fill="none" stroke="#000000" cx="182" cy="-73.5" rx="27" ry="18"/>
<text text-anchor="middle" x="182" y="-69.8" font-family="Times,serif" font-size="14.00" fill="#000000">*</text>
</g>
<!-- 139800168188496&#45;&gt;139800168187536* -->
<g id="edge4" class="edge">
<title>139800168188496&#45;&gt;139800168187536*</title>
<path fill="none" stroke="#000000" d="M119.3146,-87.8281C128.5547,-85.7161 137.8384,-83.5941 146.324,-81.6545"/>
<polygon fill="#000000" stroke="#000000" points="147.2533,-85.0325 156.222,-79.3921 145.6935,-78.2084 147.2533,-85.0325"/>
</g>
<!-- 139800168187536 -->
<g id="node2" class="node">
<title>139800168187536</title>
<polygon fill="none" stroke="#000000" points="246,-55.5 246,-91.5 365,-91.5 365,-55.5 246,-55.5"/>
<text text-anchor="middle" x="258" y="-69.8" font-family="Times,serif" font-size="14.00" fill="#000000">d</text>
<polyline fill="none" stroke="#000000" points="270,-55.5 270,-91.5 "/>
<text text-anchor="middle" x="317.5" y="-69.8" font-family="Times,serif" font-size="14.00" fill="#000000">valor &#45;6.0000</text>
</g>
<!-- 139800168187856+ -->
<g id="node6" class="node">
<title>139800168187856+</title>
<ellipse fill="none" stroke="#000000" cx="429" cy="-45.5" rx="27" ry="18"/>
<text text-anchor="middle" x="429" y="-41.8" font-family="Times,serif" font-size="14.00" fill="#000000">+</text>
</g>
<!-- 139800168187536&#45;&gt;139800168187856+ -->
<g id="edge3" class="edge">
<title>139800168187536&#45;&gt;139800168187856+</title>
<path fill="none" stroke="#000000" d="M365.0795,-59.9921C374.7443,-57.8009 384.4801,-55.5936 393.3383,-53.5852"/>
<polygon fill="#000000" stroke="#000000" points="394.2985,-56.9565 403.2771,-51.3319 392.7507,-50.1297 394.2985,-56.9565"/>
</g>
<!-- 139800168187536*&#45;&gt;139800168187536 -->
<g id="edge1" class="edge">
<title>139800168187536*&#45;&gt;139800168187536</title>
<path fill="none" stroke="#000000" d="M209.1026,-73.5C217.0806,-73.5 226.1995,-73.5 235.5742,-73.5"/>
<polygon fill="#000000" stroke="#000000" points="235.8054,-77.0001 245.8054,-73.5 235.8053,-70.0001 235.8054,-77.0001"/>
</g>
<!-- 139800168189584 -->
<g id="node4" class="node">
<title>139800168189584</title>
<polygon fill="none" stroke="#000000" points="245,-.5 245,-36.5 366,-36.5 366,-.5 245,-.5"/>
<text text-anchor="middle" x="256.5" y="-14.8" font-family="Times,serif" font-size="14.00" fill="#000000">c</text>
<polyline fill="none" stroke="#000000" points="268,-.5 268,-36.5 "/>
<text text-anchor="middle" x="317" y="-14.8" font-family="Times,serif" font-size="14.00" fill="#000000">valor 10.0000</text>
</g>
<!-- 139800168189584&#45;&gt;139800168187856+ -->
<g id="edge6" class="edge">
<title>139800168189584&#45;&gt;139800168187856+</title>
<path fill="none" stroke="#000000" d="M366.1646,-31.7627C375.4453,-33.7917 384.7588,-35.8278 393.266,-37.6877"/>
<polygon fill="#000000" stroke="#000000" points="392.6699,-41.14 403.1867,-39.8566 394.165,-34.3015 392.6699,-41.14"/>
</g>
<!-- 139800168187856 -->
<g id="node5" class="node">
<title>139800168187856</title>
<polygon fill="none" stroke="#000000" points="492,-27.5 492,-63.5 606,-63.5 606,-27.5 492,-27.5"/>
<text text-anchor="middle" x="503.5" y="-41.8" font-family="Times,serif" font-size="14.00" fill="#000000">e</text>
<polyline fill="none" stroke="#000000" points="515,-27.5 515,-63.5 "/>
<text text-anchor="middle" x="560.5" y="-41.8" font-family="Times,serif" font-size="14.00" fill="#000000">valor 4.0000</text>
</g>
<!-- 139800168187856+&#45;&gt;139800168187856 -->
<g id="edge2" class="edge">
<title>139800168187856+&#45;&gt;139800168187856</title>
<path fill="none" stroke="#000000" d="M456.2299,-45.5C463.9671,-45.5 472.7532,-45.5 481.7601,-45.5"/>
<polygon fill="#000000" stroke="#000000" points="481.979,-49.0001 491.979,-45.5 481.9789,-42.0001 481.979,-49.0001"/>
</g>
<!-- 139800168189904 -->
<g id="node7" class="node">
<title>139800168189904</title>
<polygon fill="none" stroke="#000000" points="2.5,-28.5 2.5,-64.5 116.5,-64.5 116.5,-28.5 2.5,-28.5"/>
<text text-anchor="middle" x="14" y="-42.8" font-family="Times,serif" font-size="14.00" fill="#000000">a</text>
<polyline fill="none" stroke="#000000" points="25.5,-28.5 25.5,-64.5 "/>
<text text-anchor="middle" x="71" y="-42.8" font-family="Times,serif" font-size="14.00" fill="#000000">valor 2.0000</text>
</g>
<!-- 139800168189904&#45;&gt;139800168187536* -->
<g id="edge5" class="edge">
<title>139800168189904&#45;&gt;139800168187536*</title>
<path fill="none" stroke="#000000" d="M116.8047,-59.1304C126.8485,-61.3442 137.0345,-63.5892 146.2761,-65.6262"/>
<polygon fill="#000000" stroke="#000000" points="145.7322,-69.0902 156.2512,-67.8247 147.2389,-62.2543 145.7322,-69.0902"/>
</g>
</g>
</svg>
