<?xml version="1.0" encoding="UTF-8" standalone="no"?>
<!DOCTYPE svg PUBLIC "-//W3C//DTD SVG 1.1//EN"
 "http://www.w3.org/Graphics/SVG/1.1/DTD/svg11.dtd">
<!-- Generated by graphviz version 2.40.1 (20161225.0304)
 -->
<!-- Title: %3 Pages: 1 -->
<svg width="1626pt" height="238pt"
 viewBox="0.00 0.00 1626.00 238.00" xmlns="http://www.w3.org/2000/svg" xmlns:xlink="http://www.w3.org/1999/xlink">
<g id="graph0" class="graph" transform="scale(1 1) rotate(0) translate(4 234)">
<title>%3</title>
<polygon fill="#ffffff" stroke="transparent" points="-4,4 -4,-234 1622,-234 1622,4 -4,4"/>
<!-- 140292369003536 -->
<g id="node1" class="node">
<title>140292369003536</title>
<polygon fill="none" stroke="#000000" points="1096,-82.5 1096,-118.5 1294,-118.5 1294,-82.5 1096,-82.5"/>
<text text-anchor="middle" x="1106" y="-96.8" font-family="Times,serif" font-size="14.00" fill="#000000"> </text>
<polyline fill="none" stroke="#000000" points="1116,-82.5 1116,-118.5 "/>
<text text-anchor="middle" x="1161.5" y="-96.8" font-family="Times,serif" font-size="14.00" fill="#000000">valor 3.9996</text>
<polyline fill="none" stroke="#000000" points="1207,-82.5 1207,-118.5 "/>
<text text-anchor="middle" x="1250.5" y="-96.8" font-family="Times,serif" font-size="14.00" fill="#000000">grad 0.0013</text>
</g>
<!-- 140292369004752tanh -->
<g id="node9" class="node">
<title>140292369004752tanh</title>
<ellipse fill="none" stroke="#000000" cx="1357" cy="-100.5" rx="27" ry="18"/>
<text text-anchor="middle" x="1357" y="-96.8" font-family="Times,serif" font-size="14.00" fill="#000000">tanh</text>
</g>
<!-- 140292369003536&#45;&gt;140292369004752tanh -->
<g id="edge10" class="edge">
<title>140292369003536&#45;&gt;140292369004752tanh</title>
<path fill="none" stroke="#000000" d="M1294.3666,-100.5C1303.282,-100.5 1311.8842,-100.5 1319.7093,-100.5"/>
<polygon fill="#000000" stroke="#000000" points="1319.8549,-104.0001 1329.8549,-100.5 1319.8549,-97.0001 1319.8549,-104.0001"/>
</g>
<!-- 140292369003536+ -->
<g id="node2" class="node">
<title>140292369003536+</title>
<ellipse fill="none" stroke="#000000" cx="1033" cy="-100.5" rx="27" ry="18"/>
<text text-anchor="middle" x="1033" y="-96.8" font-family="Times,serif" font-size="14.00" fill="#000000">+</text>
</g>
<!-- 140292369003536+&#45;&gt;140292369003536 -->
<g id="edge1" class="edge">
<title>140292369003536+&#45;&gt;140292369003536</title>
<path fill="none" stroke="#000000" d="M1060.1152,-100.5C1067.656,-100.5 1076.3371,-100.5 1085.584,-100.5"/>
<polygon fill="#000000" stroke="#000000" points="1085.8128,-104.0001 1095.8128,-100.5 1085.8127,-97.0001 1085.8128,-104.0001"/>
</g>
<!-- 140292368075792 -->
<g id="node3" class="node">
<title>140292368075792</title>
<polygon fill="none" stroke="#000000" points="417.5,-55.5 417.5,-91.5 615.5,-91.5 615.5,-55.5 417.5,-55.5"/>
<text text-anchor="middle" x="427.5" y="-69.8" font-family="Times,serif" font-size="14.00" fill="#000000"> </text>
<polyline fill="none" stroke="#000000" points="437.5,-55.5 437.5,-91.5 "/>
<text text-anchor="middle" x="483" y="-69.8" font-family="Times,serif" font-size="14.00" fill="#000000">valor 0.2356</text>
<polyline fill="none" stroke="#000000" points="528.5,-55.5 528.5,-91.5 "/>
<text text-anchor="middle" x="572" y="-69.8" font-family="Times,serif" font-size="14.00" fill="#000000">grad 0.0067</text>
</g>
<!-- 140292368074064* -->
<g id="node14" class="node">
<title>140292368074064*</title>
<ellipse fill="none" stroke="#000000" cx="709" cy="-73.5" rx="27" ry="18"/>
<text text-anchor="middle" x="709" y="-69.8" font-family="Times,serif" font-size="14.00" fill="#000000">*</text>
</g>
<!-- 140292368075792&#45;&gt;140292368074064* -->
<g id="edge6" class="edge">
<title>140292368075792&#45;&gt;140292368074064*</title>
<path fill="none" stroke="#000000" d="M615.5695,-73.5C635.671,-73.5 655.6085,-73.5 671.8707,-73.5"/>
<polygon fill="#000000" stroke="#000000" points="671.9914,-77.0001 681.9914,-73.5 671.9913,-70.0001 671.9914,-77.0001"/>
</g>
<!-- 140292368076368 -->
<g id="node4" class="node">
<title>140292368076368</title>
<polygon fill="none" stroke="#000000" points="772,-110.5 772,-146.5 970,-146.5 970,-110.5 772,-110.5"/>
<text text-anchor="middle" x="782" y="-124.8" font-family="Times,serif" font-size="14.00" fill="#000000"> </text>
<polyline fill="none" stroke="#000000" points="792,-110.5 792,-146.5 "/>
<text text-anchor="middle" x="837.5" y="-124.8" font-family="Times,serif" font-size="14.00" fill="#000000">valor 2.8216</text>
<polyline fill="none" stroke="#000000" points="883,-110.5 883,-146.5 "/>
<text text-anchor="middle" x="926.5" y="-124.8" font-family="Times,serif" font-size="14.00" fill="#000000">grad 0.0013</text>
</g>
<!-- 140292368076368&#45;&gt;140292369003536+ -->
<g id="edge13" class="edge">
<title>140292368076368&#45;&gt;140292369003536+</title>
<path fill="none" stroke="#000000" d="M970.3666,-111.3255C979.6566,-109.7198 988.6064,-108.173 996.6914,-106.7756"/>
<polygon fill="#000000" stroke="#000000" points="997.52,-110.1843 1006.7778,-105.0322 996.3277,-103.2866 997.52,-110.1843"/>
</g>
<!-- 140292368076368+ -->
<g id="node5" class="node">
<title>140292368076368+</title>
<ellipse fill="none" stroke="#000000" cx="709" cy="-128.5" rx="27" ry="18"/>
<text text-anchor="middle" x="709" y="-124.8" font-family="Times,serif" font-size="14.00" fill="#000000">+</text>
</g>
<!-- 140292368076368+&#45;&gt;140292368076368 -->
<g id="edge2" class="edge">
<title>140292368076368+&#45;&gt;140292368076368</title>
<path fill="none" stroke="#000000" d="M736.1152,-128.5C743.656,-128.5 752.3371,-128.5 761.584,-128.5"/>
<polygon fill="#000000" stroke="#000000" points="761.8128,-132.0001 771.8128,-128.5 761.8127,-125.0001 761.8128,-132.0001"/>
</g>
<!-- 140292368074832 -->
<g id="node6" class="node">
<title>140292368074832</title>
<polygon fill="none" stroke="#000000" points="417.5,-165.5 417.5,-201.5 615.5,-201.5 615.5,-165.5 417.5,-165.5"/>
<text text-anchor="middle" x="427.5" y="-179.8" font-family="Times,serif" font-size="14.00" fill="#000000"> </text>
<polyline fill="none" stroke="#000000" points="437.5,-165.5 437.5,-201.5 "/>
<text text-anchor="middle" x="483" y="-179.8" font-family="Times,serif" font-size="14.00" fill="#000000">valor 2.0379</text>
<polyline fill="none" stroke="#000000" points="528.5,-165.5 528.5,-201.5 "/>
<text text-anchor="middle" x="572" y="-179.8" font-family="Times,serif" font-size="14.00" fill="#000000">grad 0.0013</text>
</g>
<!-- 140292368074832&#45;&gt;140292368076368+ -->
<g id="edge9" class="edge">
<title>140292368074832&#45;&gt;140292368076368+</title>
<path fill="none" stroke="#000000" d="M610.4336,-165.4241C622.4962,-162.4509 634.6051,-159.1365 646,-155.5 656.5667,-152.1278 667.7907,-147.6318 677.7925,-143.2775"/>
<polygon fill="#000000" stroke="#000000" points="679.2439,-146.4625 686.946,-139.1874 676.3881,-140.0715 679.2439,-146.4625"/>
</g>
<!-- 140292368074832* -->
<g id="node7" class="node">
<title>140292368074832*</title>
<ellipse fill="none" stroke="#000000" cx="324" cy="-183.5" rx="27" ry="18"/>
<text text-anchor="middle" x="324" y="-179.8" font-family="Times,serif" font-size="14.00" fill="#000000">*</text>
</g>
<!-- 140292368074832*&#45;&gt;140292368074832 -->
<g id="edge3" class="edge">
<title>140292368074832*&#45;&gt;140292368074832</title>
<path fill="none" stroke="#000000" d="M351.1723,-183.5C366.3132,-183.5 386.2742,-183.5 407.0719,-183.5"/>
<polygon fill="#000000" stroke="#000000" points="407.3315,-187.0001 417.3314,-183.5 407.3314,-180.0001 407.3315,-187.0001"/>
</g>
<!-- 140292369004752 -->
<g id="node8" class="node">
<title>140292369004752</title>
<polygon fill="none" stroke="#000000" points="1420,-82.5 1420,-118.5 1618,-118.5 1618,-82.5 1420,-82.5"/>
<text text-anchor="middle" x="1430" y="-96.8" font-family="Times,serif" font-size="14.00" fill="#000000"> </text>
<polyline fill="none" stroke="#000000" points="1440,-82.5 1440,-118.5 "/>
<text text-anchor="middle" x="1485.5" y="-96.8" font-family="Times,serif" font-size="14.00" fill="#000000">valor 0.9993</text>
<polyline fill="none" stroke="#000000" points="1531,-82.5 1531,-118.5 "/>
<text text-anchor="middle" x="1574.5" y="-96.8" font-family="Times,serif" font-size="14.00" fill="#000000">grad 1.0000</text>
</g>
<!-- 140292369004752tanh&#45;&gt;140292369004752 -->
<g id="edge4" class="edge">
<title>140292369004752tanh&#45;&gt;140292369004752</title>
<path fill="none" stroke="#000000" d="M1384.1152,-100.5C1391.656,-100.5 1400.3371,-100.5 1409.584,-100.5"/>
<polygon fill="#000000" stroke="#000000" points="1409.8128,-104.0001 1419.8128,-100.5 1409.8127,-97.0001 1409.8128,-104.0001"/>
</g>
<!-- 140292368073936 -->
<g id="node10" class="node">
<title>140292368073936</title>
<polygon fill="none" stroke="#000000" points="417.5,-110.5 417.5,-146.5 615.5,-146.5 615.5,-110.5 417.5,-110.5"/>
<text text-anchor="middle" x="427.5" y="-124.8" font-family="Times,serif" font-size="14.00" fill="#000000"> </text>
<polyline fill="none" stroke="#000000" points="437.5,-110.5 437.5,-146.5 "/>
<text text-anchor="middle" x="483" y="-124.8" font-family="Times,serif" font-size="14.00" fill="#000000">valor 0.7837</text>
<polyline fill="none" stroke="#000000" points="528.5,-110.5 528.5,-146.5 "/>
<text text-anchor="middle" x="572" y="-124.8" font-family="Times,serif" font-size="14.00" fill="#000000">grad 0.0013</text>
</g>
<!-- 140292368073936&#45;&gt;140292368076368+ -->
<g id="edge12" class="edge">
<title>140292368073936&#45;&gt;140292368076368+</title>
<path fill="none" stroke="#000000" d="M615.5695,-128.5C635.671,-128.5 655.6085,-128.5 671.8707,-128.5"/>
<polygon fill="#000000" stroke="#000000" points="671.9914,-132.0001 681.9914,-128.5 671.9913,-125.0001 671.9914,-132.0001"/>
</g>
<!-- 140292368076560 -->
<g id="node11" class="node">
<title>140292368076560</title>
<polygon fill="none" stroke="#000000" points="0,-193.5 0,-229.5 261,-229.5 261,-193.5 0,-193.5"/>
<text text-anchor="middle" x="41.5" y="-207.8" font-family="Times,serif" font-size="14.00" fill="#000000">sentimiento</text>
<polyline fill="none" stroke="#000000" points="83,-193.5 83,-229.5 "/>
<text text-anchor="middle" x="128.5" y="-207.8" font-family="Times,serif" font-size="14.00" fill="#000000">valor 5.0000</text>
<polyline fill="none" stroke="#000000" points="174,-193.5 174,-229.5 "/>
<text text-anchor="middle" x="217.5" y="-207.8" font-family="Times,serif" font-size="14.00" fill="#000000">grad 0.0005</text>
</g>
<!-- 140292368076560&#45;&gt;140292368074832* -->
<g id="edge7" class="edge">
<title>140292368076560&#45;&gt;140292368074832*</title>
<path fill="none" stroke="#000000" d="M254.9616,-193.4901C266.5989,-191.8061 277.6521,-190.2067 287.366,-188.801"/>
<polygon fill="#000000" stroke="#000000" points="287.9497,-192.2531 297.3453,-187.357 286.9471,-185.3253 287.9497,-192.2531"/>
</g>
<!-- 140292368076112 -->
<g id="node12" class="node">
<title>140292368076112</title>
<polygon fill="none" stroke="#000000" points="387,-.5 387,-36.5 646,-36.5 646,-.5 387,-.5"/>
<text text-anchor="middle" x="427.5" y="-14.8" font-family="Times,serif" font-size="14.00" fill="#000000">calificacion</text>
<polyline fill="none" stroke="#000000" points="468,-.5 468,-36.5 "/>
<text text-anchor="middle" x="513.5" y="-14.8" font-family="Times,serif" font-size="14.00" fill="#000000">valor 5.0000</text>
<polyline fill="none" stroke="#000000" points="559,-.5 559,-36.5 "/>
<text text-anchor="middle" x="602.5" y="-14.8" font-family="Times,serif" font-size="14.00" fill="#000000">grad 0.0003</text>
</g>
<!-- 140292368076112&#45;&gt;140292368074064* -->
<g id="edge8" class="edge">
<title>140292368076112&#45;&gt;140292368074064*</title>
<path fill="none" stroke="#000000" d="M614.3133,-36.5673C625.0917,-39.2457 635.836,-42.223 646,-45.5 656.7046,-48.9513 668.0391,-53.6415 678.0987,-58.1961"/>
<polygon fill="#000000" stroke="#000000" points="676.7478,-61.4279 687.2907,-62.4765 679.7028,-55.0822 676.7478,-61.4279"/>
</g>
<!-- 140292368074064 -->
<g id="node13" class="node">
<title>140292368074064</title>
<polygon fill="none" stroke="#000000" points="772,-55.5 772,-91.5 970,-91.5 970,-55.5 772,-55.5"/>
<text text-anchor="middle" x="782" y="-69.8" font-family="Times,serif" font-size="14.00" fill="#000000"> </text>
<polyline fill="none" stroke="#000000" points="792,-55.5 792,-91.5 "/>
<text text-anchor="middle" x="837.5" y="-69.8" font-family="Times,serif" font-size="14.00" fill="#000000">valor 1.1780</text>
<polyline fill="none" stroke="#000000" points="883,-55.5 883,-91.5 "/>
<text text-anchor="middle" x="926.5" y="-69.8" font-family="Times,serif" font-size="14.00" fill="#000000">grad 0.0013</text>
</g>
<!-- 140292368074064&#45;&gt;140292369003536+ -->
<g id="edge11" class="edge">
<title>140292368074064&#45;&gt;140292369003536+</title>
<path fill="none" stroke="#000000" d="M970.3666,-90.0611C979.6566,-91.6094 988.6064,-93.1011 996.6914,-94.4486"/>
<polygon fill="#000000" stroke="#000000" points="996.3384,-97.9379 1006.7778,-96.1296 997.4893,-91.0332 996.3384,-97.9379"/>
</g>
<!-- 140292368074064*&#45;&gt;140292368074064 -->
<g id="edge5" class="edge">
<title>140292368074064*&#45;&gt;140292368074064</title>
<path fill="none" stroke="#000000" d="M736.1152,-73.5C743.656,-73.5 752.3371,-73.5 761.584,-73.5"/>
<polygon fill="#000000" stroke="#000000" points="761.8128,-77.0001 771.8128,-73.5 761.8127,-70.0001 761.8128,-77.0001"/>
</g>
<!-- 140292368074192 -->
<g id="node15" class="node">
<title>140292368074192</title>
<polygon fill="none" stroke="#000000" points="31.5,-138.5 31.5,-174.5 229.5,-174.5 229.5,-138.5 31.5,-138.5"/>
<text text-anchor="middle" x="41.5" y="-152.8" font-family="Times,serif" font-size="14.00" fill="#000000"> </text>
<polyline fill="none" stroke="#000000" points="51.5,-138.5 51.5,-174.5 "/>
<text text-anchor="middle" x="97" y="-152.8" font-family="Times,serif" font-size="14.00" fill="#000000">valor 0.4076</text>
<polyline fill="none" stroke="#000000" points="142.5,-138.5 142.5,-174.5 "/>
<text text-anchor="middle" x="186" y="-152.8" font-family="Times,serif" font-size="14.00" fill="#000000">grad 0.0067</text>
</g>
<!-- 140292368074192&#45;&gt;140292368074832* -->
<g id="edge14" class="edge">
<title>140292368074192&#45;&gt;140292368074832*</title>
<path fill="none" stroke="#000000" d="M229.5174,-170.3164C250.1118,-173.19 270.5691,-176.0445 287.1541,-178.3587"/>
<polygon fill="#000000" stroke="#000000" points="287.0684,-181.8806 297.4561,-179.7962 288.0358,-174.9477 287.0684,-181.8806"/>
</g>
</g>
</svg>
