<?xml version="1.0" encoding="UTF-8" standalone="no"?>
<!DOCTYPE svg PUBLIC "-//W3C//DTD SVG 1.1//EN"
 "http://www.w3.org/Graphics/SVG/1.1/DTD/svg11.dtd">
<!-- Generated by graphviz version 2.40.1 (20161225.0304)
 -->
<!-- Title: %3 Pages: 1 -->
<svg width="1220pt" height="154pt"
 viewBox="0.00 0.00 1220.00 154.00" xmlns="http://www.w3.org/2000/svg" xmlns:xlink="http://www.w3.org/1999/xlink">
<g id="graph0" class="graph" transform="scale(1 1) rotate(0) translate(4 150)">
<title>%3</title>
<polygon fill="#ffffff" stroke="transparent" points="-4,4 -4,-150 1216,-150 1216,4 -4,4"/>
<!-- 140292321417296 -->
<g id="node1" class="node">
<title>140292321417296</title>
<polygon fill="none" stroke="#000000" points="672,-54.5 672,-90.5 878,-90.5 878,-54.5 672,-54.5"/>
<text text-anchor="middle" x="683.5" y="-68.8" font-family="Times,serif" font-size="14.00" fill="#000000">e</text>
<polyline fill="none" stroke="#000000" points="695,-54.5 695,-90.5 "/>
<text text-anchor="middle" x="740.5" y="-68.8" font-family="Times,serif" font-size="14.00" fill="#000000">valor 0.1501</text>
<polyline fill="none" stroke="#000000" points="786,-54.5 786,-90.5 "/>
<text text-anchor="middle" x="832" y="-68.8" font-family="Times,serif" font-size="14.00" fill="#000000">grad &#45;2.9796</text>
</g>
<!-- 140292321417424* -->
<g id="node8" class="node">
<title>140292321417424*</title>
<ellipse fill="none" stroke="#000000" cx="941" cy="-99.5" rx="27" ry="18"/>
<text text-anchor="middle" x="941" y="-95.8" font-family="Times,serif" font-size="14.00" fill="#000000">*</text>
</g>
<!-- 140292321417296&#45;&gt;140292321417424* -->
<g id="edge6" class="edge">
<title>140292321417296&#45;&gt;140292321417424*</title>
<path fill="none" stroke="#000000" d="M878.2425,-89.2925C887.503,-90.7987 896.4054,-92.2467 904.4494,-93.555"/>
<polygon fill="#000000" stroke="#000000" points="904.0552,-97.0368 914.4874,-95.1877 905.179,-90.1276 904.0552,-97.0368"/>
</g>
<!-- 140292321417296+ -->
<g id="node2" class="node">
<title>140292321417296+</title>
<ellipse fill="none" stroke="#000000" cx="609" cy="-72.5" rx="27" ry="18"/>
<text text-anchor="middle" x="609" y="-68.8" font-family="Times,serif" font-size="14.00" fill="#000000">+</text>
</g>
<!-- 140292321417296+&#45;&gt;140292321417296 -->
<g id="edge1" class="edge">
<title>140292321417296+&#45;&gt;140292321417296</title>
<path fill="none" stroke="#000000" d="M636.0402,-72.5C643.677,-72.5 652.4969,-72.5 661.9144,-72.5"/>
<polygon fill="#000000" stroke="#000000" points="661.9202,-76.0001 671.9202,-72.5 661.9202,-69.0001 661.9202,-76.0001"/>
</g>
<!-- 140292321418896 -->
<g id="node3" class="node">
<title>140292321418896</title>
<polygon fill="none" stroke="#000000" points="4,-55.5 4,-91.5 206,-91.5 206,-55.5 4,-55.5"/>
<text text-anchor="middle" x="16" y="-69.8" font-family="Times,serif" font-size="14.00" fill="#000000">b</text>
<polyline fill="none" stroke="#000000" points="28,-55.5 28,-91.5 "/>
<text text-anchor="middle" x="73.5" y="-69.8" font-family="Times,serif" font-size="14.00" fill="#000000">valor 3.1763</text>
<polyline fill="none" stroke="#000000" points="119,-55.5 119,-91.5 "/>
<text text-anchor="middle" x="162.5" y="-69.8" font-family="Times,serif" font-size="14.00" fill="#000000">grad 9.1838</text>
</g>
<!-- 140292321418640* -->
<g id="node6" class="node">
<title>140292321418640*</title>
<ellipse fill="none" stroke="#000000" cx="273" cy="-45.5" rx="27" ry="18"/>
<text text-anchor="middle" x="273" y="-41.8" font-family="Times,serif" font-size="14.00" fill="#000000">*</text>
</g>
<!-- 140292321418896&#45;&gt;140292321418640* -->
<g id="edge9" class="edge">
<title>140292321418896&#45;&gt;140292321418640*</title>
<path fill="none" stroke="#000000" d="M206.1192,-56.6468C216.9242,-54.846 227.3345,-53.1109 236.5934,-51.5678"/>
<polygon fill="#000000" stroke="#000000" points="237.229,-55.0102 246.5175,-49.9138 236.0781,-48.1054 237.229,-55.0102"/>
</g>
<!-- 140292321417360 -->
<g id="node4" class="node">
<title>140292321417360</title>
<polygon fill="none" stroke="#000000" points="337.5,-82.5 337.5,-118.5 544.5,-118.5 544.5,-82.5 337.5,-82.5"/>
<text text-anchor="middle" x="349.5" y="-96.8" font-family="Times,serif" font-size="14.00" fill="#000000">d</text>
<polyline fill="none" stroke="#000000" points="361.5,-82.5 361.5,-118.5 "/>
<text text-anchor="middle" x="407" y="-96.8" font-family="Times,serif" font-size="14.00" fill="#000000">valor 9.9401</text>
<polyline fill="none" stroke="#000000" points="452.5,-82.5 452.5,-118.5 "/>
<text text-anchor="middle" x="498.5" y="-96.8" font-family="Times,serif" font-size="14.00" fill="#000000">grad &#45;2.9796</text>
</g>
<!-- 140292321417360&#45;&gt;140292321417296+ -->
<g id="edge7" class="edge">
<title>140292321417360&#45;&gt;140292321417296+</title>
<path fill="none" stroke="#000000" d="M544.5273,-83.2455C554.5124,-81.5813 564.1078,-79.982 572.7057,-78.549"/>
<polygon fill="#000000" stroke="#000000" points="573.3691,-81.9868 582.6577,-76.8904 572.2183,-75.0821 573.3691,-81.9868"/>
</g>
<!-- 140292321418640 -->
<g id="node5" class="node">
<title>140292321418640</title>
<polygon fill="none" stroke="#000000" points="336,-27.5 336,-63.5 546,-63.5 546,-27.5 336,-27.5"/>
<text text-anchor="middle" x="347.5" y="-41.8" font-family="Times,serif" font-size="14.00" fill="#000000">c</text>
<polyline fill="none" stroke="#000000" points="359,-27.5 359,-63.5 "/>
<text text-anchor="middle" x="406.5" y="-41.8" font-family="Times,serif" font-size="14.00" fill="#000000">valor &#45;9.7901</text>
<polyline fill="none" stroke="#000000" points="454,-27.5 454,-63.5 "/>
<text text-anchor="middle" x="500" y="-41.8" font-family="Times,serif" font-size="14.00" fill="#000000">grad &#45;2.9796</text>
</g>
<!-- 140292321418640&#45;&gt;140292321417296+ -->
<g id="edge4" class="edge">
<title>140292321418640&#45;&gt;140292321417296+</title>
<path fill="none" stroke="#000000" d="M546.443,-62.4462C555.7024,-63.9343 564.5893,-65.3626 572.6112,-66.6518"/>
<polygon fill="#000000" stroke="#000000" points="572.1885,-70.1287 582.6172,-68.2599 573.2993,-63.2174 572.1885,-70.1287"/>
</g>
<!-- 140292321418640*&#45;&gt;140292321418640 -->
<g id="edge2" class="edge">
<title>140292321418640*&#45;&gt;140292321418640</title>
<path fill="none" stroke="#000000" d="M300.366,-45.5C307.8769,-45.5 316.5185,-45.5 325.7472,-45.5"/>
<polygon fill="#000000" stroke="#000000" points="325.9659,-49.0001 335.9659,-45.5 325.9658,-42.0001 325.9659,-49.0001"/>
</g>
<!-- 140292321417424 -->
<g id="node7" class="node">
<title>140292321417424</title>
<polygon fill="none" stroke="#000000" points="1004,-81.5 1004,-117.5 1212,-117.5 1212,-81.5 1004,-81.5"/>
<text text-anchor="middle" x="1017" y="-95.8" font-family="Times,serif" font-size="14.00" fill="#000000">L</text>
<polyline fill="none" stroke="#000000" points="1030,-81.5 1030,-117.5 "/>
<text text-anchor="middle" x="1077.5" y="-95.8" font-family="Times,serif" font-size="14.00" fill="#000000">valor &#45;0.4472</text>
<polyline fill="none" stroke="#000000" points="1125,-81.5 1125,-117.5 "/>
<text text-anchor="middle" x="1168.5" y="-95.8" font-family="Times,serif" font-size="14.00" fill="#000000">grad 1.0000</text>
</g>
<!-- 140292321417424*&#45;&gt;140292321417424 -->
<g id="edge3" class="edge">
<title>140292321417424*&#45;&gt;140292321417424</title>
<path fill="none" stroke="#000000" d="M968.2031,-99.5C975.7372,-99.5 984.4158,-99.5 993.6835,-99.5"/>
<polygon fill="#000000" stroke="#000000" points="993.945,-103.0001 1003.945,-99.5 993.9449,-96.0001 993.945,-103.0001"/>
</g>
<!-- 140292321419024 -->
<g id="node9" class="node">
<title>140292321419024</title>
<polygon fill="none" stroke="#000000" points="673.5,-109.5 673.5,-145.5 876.5,-145.5 876.5,-109.5 673.5,-109.5"/>
<text text-anchor="middle" x="684" y="-123.8" font-family="Times,serif" font-size="14.00" fill="#000000">f</text>
<polyline fill="none" stroke="#000000" points="694.5,-109.5 694.5,-145.5 "/>
<text text-anchor="middle" x="742" y="-123.8" font-family="Times,serif" font-size="14.00" fill="#000000">valor &#45;2.9796</text>
<polyline fill="none" stroke="#000000" points="789.5,-109.5 789.5,-145.5 "/>
<text text-anchor="middle" x="833" y="-123.8" font-family="Times,serif" font-size="14.00" fill="#000000">grad 0.1501</text>
</g>
<!-- 140292321419024&#45;&gt;140292321417424* -->
<g id="edge8" class="edge">
<title>140292321419024&#45;&gt;140292321417424*</title>
<path fill="none" stroke="#000000" d="M876.8201,-110.3255C886.7442,-108.6516 896.2895,-107.0415 904.8468,-105.5981"/>
<polygon fill="#000000" stroke="#000000" points="905.4755,-109.0416 914.7541,-103.927 904.3112,-102.1391 905.4755,-109.0416"/>
</g>
<!-- 140292321419152 -->
<g id="node10" class="node">
<title>140292321419152</title>
<polygon fill="none" stroke="#000000" points="0,-.5 0,-36.5 210,-36.5 210,-.5 0,-.5"/>
<text text-anchor="middle" x="11.5" y="-14.8" font-family="Times,serif" font-size="14.00" fill="#000000">a</text>
<polyline fill="none" stroke="#000000" points="23,-.5 23,-36.5 "/>
<text text-anchor="middle" x="70.5" y="-14.8" font-family="Times,serif" font-size="14.00" fill="#000000">valor &#45;3.0822</text>
<polyline fill="none" stroke="#000000" points="118,-.5 118,-36.5 "/>
<text text-anchor="middle" x="164" y="-14.8" font-family="Times,serif" font-size="14.00" fill="#000000">grad &#45;9.4641</text>
</g>
<!-- 140292321419152&#45;&gt;140292321418640* -->
<g id="edge5" class="edge">
<title>140292321419152&#45;&gt;140292321418640*</title>
<path fill="none" stroke="#000000" d="M210.443,-35.4462C219.7024,-36.9343 228.5893,-38.3626 236.6112,-39.6518"/>
<polygon fill="#000000" stroke="#000000" points="236.1885,-43.1287 246.6172,-41.2599 237.2993,-36.2174 236.1885,-43.1287"/>
</g>
</g>
</svg>
