<?xml version="1.0" encoding="UTF-8" standalone="no"?>
<!DOCTYPE svg PUBLIC "-//W3C//DTD SVG 1.1//EN"
 "http://www.w3.org/Graphics/SVG/1.1/DTD/svg11.dtd">
<!-- Generated by graphviz version 2.40.1 (20161225.0304)
 -->
<!-- Title: %3 Pages: 1 -->
<svg width="1178pt" height="127pt"
 viewBox="0.00 0.00 1178.00 127.00" xmlns="http://www.w3.org/2000/svg" xmlns:xlink="http://www.w3.org/1999/xlink">
<g id="graph0" class="graph" transform="scale(1 1) rotate(0) translate(4 123)">
<title>%3</title>
<polygon fill="#ffffff" stroke="transparent" points="-4,4 -4,-123 1174,-123 1174,4 -4,4"/>
<!-- 139854932960912 -->
<g id="node1" class="node">
<title>139854932960912</title>
<polygon fill="none" stroke="#000000" points="648,-54.5 648,-90.5 846,-90.5 846,-54.5 648,-54.5"/>
<text text-anchor="middle" x="658" y="-68.8" font-family="Times,serif" font-size="14.00" fill="#000000"> </text>
<polyline fill="none" stroke="#000000" points="668,-54.5 668,-90.5 "/>
<text text-anchor="middle" x="713.5" y="-68.8" font-family="Times,serif" font-size="14.00" fill="#000000">valor 1.9284</text>
<polyline fill="none" stroke="#000000" points="759,-54.5 759,-90.5 "/>
<text text-anchor="middle" x="802.5" y="-68.8" font-family="Times,serif" font-size="14.00" fill="#000000">grad 0.0000</text>
</g>
<!-- 139854932961040tanh -->
<g id="node7" class="node">
<title>139854932961040tanh</title>
<ellipse fill="none" stroke="#000000" cx="909" cy="-72.5" rx="27" ry="18"/>
<text text-anchor="middle" x="909" y="-68.8" font-family="Times,serif" font-size="14.00" fill="#000000">tanh</text>
</g>
<!-- 139854932960912&#45;&gt;139854932961040tanh -->
<g id="edge6" class="edge">
<title>139854932960912&#45;&gt;139854932961040tanh</title>
<path fill="none" stroke="#000000" d="M846.3666,-72.5C855.282,-72.5 863.8842,-72.5 871.7093,-72.5"/>
<polygon fill="#000000" stroke="#000000" points="871.8549,-76.0001 881.8549,-72.5 871.8549,-69.0001 871.8549,-76.0001"/>
</g>
<!-- 139854932960912+ -->
<g id="node2" class="node">
<title>139854932960912+</title>
<ellipse fill="none" stroke="#000000" cx="585" cy="-72.5" rx="27" ry="18"/>
<text text-anchor="middle" x="585" y="-68.8" font-family="Times,serif" font-size="14.00" fill="#000000">+</text>
</g>
<!-- 139854932960912+&#45;&gt;139854932960912 -->
<g id="edge1" class="edge">
<title>139854932960912+&#45;&gt;139854932960912</title>
<path fill="none" stroke="#000000" d="M612.1152,-72.5C619.656,-72.5 628.3371,-72.5 637.584,-72.5"/>
<polygon fill="#000000" stroke="#000000" points="637.8128,-76.0001 647.8128,-72.5 637.8127,-69.0001 637.8128,-76.0001"/>
</g>
<!-- 139854933052560 -->
<g id="node3" class="node">
<title>139854933052560</title>
<polygon fill="none" stroke="#000000" points="324,-82.5 324,-118.5 522,-118.5 522,-82.5 324,-82.5"/>
<text text-anchor="middle" x="334" y="-96.8" font-family="Times,serif" font-size="14.00" fill="#000000"> </text>
<polyline fill="none" stroke="#000000" points="344,-82.5 344,-118.5 "/>
<text text-anchor="middle" x="389.5" y="-96.8" font-family="Times,serif" font-size="14.00" fill="#000000">valor 0.4374</text>
<polyline fill="none" stroke="#000000" points="435,-82.5 435,-118.5 "/>
<text text-anchor="middle" x="478.5" y="-96.8" font-family="Times,serif" font-size="14.00" fill="#000000">grad 0.0000</text>
</g>
<!-- 139854933052560&#45;&gt;139854932960912+ -->
<g id="edge4" class="edge">
<title>139854933052560&#45;&gt;139854932960912+</title>
<path fill="none" stroke="#000000" d="M522.3666,-83.3255C531.6566,-81.7198 540.6064,-80.173 548.6914,-78.7756"/>
<polygon fill="#000000" stroke="#000000" points="549.52,-82.1843 558.7778,-77.0322 548.3277,-75.2866 549.52,-82.1843"/>
</g>
<!-- 139854932959952 -->
<g id="node4" class="node">
<title>139854932959952</title>
<polygon fill="none" stroke="#000000" points="0,-55.5 0,-91.5 198,-91.5 198,-55.5 0,-55.5"/>
<text text-anchor="middle" x="10" y="-69.8" font-family="Times,serif" font-size="14.00" fill="#000000"> </text>
<polyline fill="none" stroke="#000000" points="20,-55.5 20,-91.5 "/>
<text text-anchor="middle" x="65.5" y="-69.8" font-family="Times,serif" font-size="14.00" fill="#000000">valor 3.0000</text>
<polyline fill="none" stroke="#000000" points="111,-55.5 111,-91.5 "/>
<text text-anchor="middle" x="154.5" y="-69.8" font-family="Times,serif" font-size="14.00" fill="#000000">grad 0.0000</text>
</g>
<!-- 139854932960080* -->
<g id="node9" class="node">
<title>139854932960080*</title>
<ellipse fill="none" stroke="#000000" cx="261" cy="-45.5" rx="27" ry="18"/>
<text text-anchor="middle" x="261" y="-41.8" font-family="Times,serif" font-size="14.00" fill="#000000">*</text>
</g>
<!-- 139854932959952&#45;&gt;139854932960080* -->
<g id="edge7" class="edge">
<title>139854932959952&#45;&gt;139854932960080*</title>
<path fill="none" stroke="#000000" d="M198.3666,-56.3255C207.6566,-54.7198 216.6064,-53.173 224.6914,-51.7756"/>
<polygon fill="#000000" stroke="#000000" points="225.52,-55.1843 234.7778,-50.0322 224.3277,-48.2866 225.52,-55.1843"/>
</g>
<!-- 139854933053136 -->
<g id="node5" class="node">
<title>139854933053136</title>
<polygon fill="none" stroke="#000000" points="0,-.5 0,-36.5 198,-36.5 198,-.5 0,-.5"/>
<text text-anchor="middle" x="10" y="-14.8" font-family="Times,serif" font-size="14.00" fill="#000000"> </text>
<polyline fill="none" stroke="#000000" points="20,-.5 20,-36.5 "/>
<text text-anchor="middle" x="65.5" y="-14.8" font-family="Times,serif" font-size="14.00" fill="#000000">valor 0.4970</text>
<polyline fill="none" stroke="#000000" points="111,-.5 111,-36.5 "/>
<text text-anchor="middle" x="154.5" y="-14.8" font-family="Times,serif" font-size="14.00" fill="#000000">grad 0.0000</text>
</g>
<!-- 139854933053136&#45;&gt;139854932960080* -->
<g id="edge8" class="edge">
<title>139854933053136&#45;&gt;139854932960080*</title>
<path fill="none" stroke="#000000" d="M198.3666,-35.0611C207.6566,-36.6094 216.6064,-38.1011 224.6914,-39.4486"/>
<polygon fill="#000000" stroke="#000000" points="224.3384,-42.9379 234.7778,-41.1296 225.4893,-36.0332 224.3384,-42.9379"/>
</g>
<!-- 139854932961040 -->
<g id="node6" class="node">
<title>139854932961040</title>
<polygon fill="none" stroke="#000000" points="972,-54.5 972,-90.5 1170,-90.5 1170,-54.5 972,-54.5"/>
<text text-anchor="middle" x="982" y="-68.8" font-family="Times,serif" font-size="14.00" fill="#000000"> </text>
<polyline fill="none" stroke="#000000" points="992,-54.5 992,-90.5 "/>
<text text-anchor="middle" x="1037.5" y="-68.8" font-family="Times,serif" font-size="14.00" fill="#000000">valor 0.9586</text>
<polyline fill="none" stroke="#000000" points="1083,-54.5 1083,-90.5 "/>
<text text-anchor="middle" x="1126.5" y="-68.8" font-family="Times,serif" font-size="14.00" fill="#000000">grad 0.0000</text>
</g>
<!-- 139854932961040tanh&#45;&gt;139854932961040 -->
<g id="edge2" class="edge">
<title>139854932961040tanh&#45;&gt;139854932961040</title>
<path fill="none" stroke="#000000" d="M936.1152,-72.5C943.656,-72.5 952.3371,-72.5 961.584,-72.5"/>
<polygon fill="#000000" stroke="#000000" points="961.8128,-76.0001 971.8128,-72.5 961.8127,-69.0001 961.8128,-76.0001"/>
</g>
<!-- 139854932960080 -->
<g id="node8" class="node">
<title>139854932960080</title>
<polygon fill="none" stroke="#000000" points="324,-27.5 324,-63.5 522,-63.5 522,-27.5 324,-27.5"/>
<text text-anchor="middle" x="334" y="-41.8" font-family="Times,serif" font-size="14.00" fill="#000000"> </text>
<polyline fill="none" stroke="#000000" points="344,-27.5 344,-63.5 "/>
<text text-anchor="middle" x="389.5" y="-41.8" font-family="Times,serif" font-size="14.00" fill="#000000">valor 1.4910</text>
<polyline fill="none" stroke="#000000" points="435,-27.5 435,-63.5 "/>
<text text-anchor="middle" x="478.5" y="-41.8" font-family="Times,serif" font-size="14.00" fill="#000000">grad 0.0000</text>
</g>
<!-- 139854932960080&#45;&gt;139854932960912+ -->
<g id="edge5" class="edge">
<title>139854932960080&#45;&gt;139854932960912+</title>
<path fill="none" stroke="#000000" d="M522.3666,-62.0611C531.6566,-63.6094 540.6064,-65.1011 548.6914,-66.4486"/>
<polygon fill="#000000" stroke="#000000" points="548.3384,-69.9379 558.7778,-68.1296 549.4893,-63.0332 548.3384,-69.9379"/>
</g>
<!-- 139854932960080*&#45;&gt;139854932960080 -->
<g id="edge3" class="edge">
<title>139854932960080*&#45;&gt;139854932960080</title>
<path fill="none" stroke="#000000" d="M288.1152,-45.5C295.656,-45.5 304.3371,-45.5 313.584,-45.5"/>
<polygon fill="#000000" stroke="#000000" points="313.8128,-49.0001 323.8128,-45.5 313.8127,-42.0001 313.8128,-49.0001"/>
</g>
</g>
</svg>
