<?xml version="1.0" encoding="UTF-8" standalone="no"?>
<!DOCTYPE svg PUBLIC "-//W3C//DTD SVG 1.1//EN"
 "http://www.w3.org/Graphics/SVG/1.1/DTD/svg11.dtd">
<!-- Generated by graphviz version 2.40.1 (20161225.0304)
 -->
<!-- Title: %3 Pages: 1 -->
<svg width="871pt" height="156pt"
 viewBox="0.00 0.00 871.00 156.00" xmlns="http://www.w3.org/2000/svg" xmlns:xlink="http://www.w3.org/1999/xlink">
<g id="graph0" class="graph" transform="scale(1 1) rotate(0) translate(4 152)">
<title>%3</title>
<polygon fill="#ffffff" stroke="transparent" points="-4,4 -4,-152 867,-152 867,4 -4,4"/>
<!-- 139977729351184 -->
<g id="node1" class="node">
<title>139977729351184</title>
<polygon fill="none" stroke="#000000" points="734,-27.5 734,-63.5 863,-63.5 863,-27.5 734,-27.5"/>
<text text-anchor="middle" x="747" y="-41.8" font-family="Times,serif" font-size="14.00" fill="#000000">L</text>
<polyline fill="none" stroke="#000000" points="760,-27.5 760,-63.5 "/>
<text text-anchor="middle" x="811.5" y="-41.8" font-family="Times,serif" font-size="14.00" fill="#000000">valor &#45;12.0000</text>
</g>
<!-- 139977729351184* -->
<g id="node2" class="node">
<title>139977729351184*</title>
<ellipse fill="none" stroke="#000000" cx="671" cy="-45.5" rx="27" ry="18"/>
<text text-anchor="middle" x="671" y="-41.8" font-family="Times,serif" font-size="14.00" fill="#000000">*</text>
</g>
<!-- 139977729351184*&#45;&gt;139977729351184 -->
<g id="edge1" class="edge">
<title>139977729351184*&#45;&gt;139977729351184</title>
<path fill="none" stroke="#000000" d="M698.0395,-45.5C705.8233,-45.5 714.7148,-45.5 723.9166,-45.5"/>
<polygon fill="#000000" stroke="#000000" points="723.9855,-49.0001 733.9854,-45.5 723.9854,-42.0001 723.9855,-49.0001"/>
</g>
<!-- 139977729350800 -->
<g id="node3" class="node">
<title>139977729350800</title>
<polygon fill="none" stroke="#000000" points="493,-55.5 493,-91.5 607,-91.5 607,-55.5 493,-55.5"/>
<text text-anchor="middle" x="504.5" y="-69.8" font-family="Times,serif" font-size="14.00" fill="#000000">e</text>
<polyline fill="none" stroke="#000000" points="516,-55.5 516,-91.5 "/>
<text text-anchor="middle" x="561.5" y="-69.8" font-family="Times,serif" font-size="14.00" fill="#000000">valor 4.0000</text>
</g>
<!-- 139977729350800&#45;&gt;139977729351184* -->
<g id="edge5" class="edge">
<title>139977729350800&#45;&gt;139977729351184*</title>
<path fill="none" stroke="#000000" d="M607.3109,-60.238C616.8819,-58.0232 626.5597,-55.7837 635.3825,-53.7421"/>
<polygon fill="#000000" stroke="#000000" points="636.3358,-57.114 645.2893,-51.4496 634.7576,-50.2942 636.3358,-57.114"/>
</g>
<!-- 139977729350800+ -->
<g id="node4" class="node">
<title>139977729350800+</title>
<ellipse fill="none" stroke="#000000" cx="429" cy="-73.5" rx="27" ry="18"/>
<text text-anchor="middle" x="429" y="-69.8" font-family="Times,serif" font-size="14.00" fill="#000000">+</text>
</g>
<!-- 139977729350800+&#45;&gt;139977729350800 -->
<g id="edge2" class="edge">
<title>139977729350800+&#45;&gt;139977729350800</title>
<path fill="none" stroke="#000000" d="M456.1548,-73.5C464.1372,-73.5 473.2459,-73.5 482.5772,-73.5"/>
<polygon fill="#000000" stroke="#000000" points="482.7472,-77.0001 492.7472,-73.5 482.7472,-70.0001 482.7472,-77.0001"/>
</g>
<!-- 139977729350288 -->
<g id="node5" class="node">
<title>139977729350288</title>
<polygon fill="none" stroke="#000000" points="1.5,-111.5 1.5,-147.5 116.5,-147.5 116.5,-111.5 1.5,-111.5"/>
<text text-anchor="middle" x="13.5" y="-125.8" font-family="Times,serif" font-size="14.00" fill="#000000">b</text>
<polyline fill="none" stroke="#000000" points="25.5,-111.5 25.5,-147.5 "/>
<text text-anchor="middle" x="71" y="-125.8" font-family="Times,serif" font-size="14.00" fill="#000000">valor 3.0000</text>
</g>
<!-- 139977728042704* -->
<g id="node7" class="node">
<title>139977728042704*</title>
<ellipse fill="none" stroke="#000000" cx="181" cy="-101.5" rx="27" ry="18"/>
<text text-anchor="middle" x="181" y="-97.8" font-family="Times,serif" font-size="14.00" fill="#000000">*</text>
</g>
<!-- 139977729350288&#45;&gt;139977728042704* -->
<g id="edge4" class="edge">
<title>139977729350288&#45;&gt;139977728042704*</title>
<path fill="none" stroke="#000000" d="M116.7845,-116.238C126.629,-113.9786 136.5855,-111.6935 145.6246,-109.6189"/>
<polygon fill="#000000" stroke="#000000" points="146.4217,-113.0271 155.3853,-107.3788 144.8558,-106.2045 146.4217,-113.0271"/>
</g>
<!-- 139977728042704 -->
<g id="node6" class="node">
<title>139977728042704</title>
<polygon fill="none" stroke="#000000" points="246,-83.5 246,-119.5 364,-119.5 364,-83.5 246,-83.5"/>
<text text-anchor="middle" x="257.5" y="-97.8" font-family="Times,serif" font-size="14.00" fill="#000000">c</text>
<polyline fill="none" stroke="#000000" points="269,-83.5 269,-119.5 "/>
<text text-anchor="middle" x="316.5" y="-97.8" font-family="Times,serif" font-size="14.00" fill="#000000">valor &#45;6.0000</text>
</g>
<!-- 139977728042704&#45;&gt;139977729350800+ -->
<g id="edge7" class="edge">
<title>139977728042704&#45;&gt;139977729350800+</title>
<path fill="none" stroke="#000000" d="M364.0947,-88.156C374.0654,-85.9046 384.1366,-83.6305 393.2736,-81.5672"/>
<polygon fill="#000000" stroke="#000000" points="394.1542,-84.9566 403.1376,-79.3399 392.6123,-78.1285 394.1542,-84.9566"/>
</g>
<!-- 139977728042704*&#45;&gt;139977728042704 -->
<g id="edge3" class="edge">
<title>139977728042704*&#45;&gt;139977728042704</title>
<path fill="none" stroke="#000000" d="M208.2123,-101.5C216.4666,-101.5 225.9371,-101.5 235.6518,-101.5"/>
<polygon fill="#000000" stroke="#000000" points="235.8231,-105.0001 245.8231,-101.5 235.823,-98.0001 235.8231,-105.0001"/>
</g>
<!-- 139977729350864 -->
<g id="node8" class="node">
<title>139977729350864</title>
<polygon fill="none" stroke="#000000" points="244,-28.5 244,-64.5 366,-64.5 366,-28.5 244,-28.5"/>
<text text-anchor="middle" x="256" y="-42.8" font-family="Times,serif" font-size="14.00" fill="#000000">d</text>
<polyline fill="none" stroke="#000000" points="268,-28.5 268,-64.5 "/>
<text text-anchor="middle" x="317" y="-42.8" font-family="Times,serif" font-size="14.00" fill="#000000">valor 10.0000</text>
</g>
<!-- 139977729350864&#45;&gt;139977729350800+ -->
<g id="edge9" class="edge">
<title>139977729350864&#45;&gt;139977729350800+</title>
<path fill="none" stroke="#000000" d="M366.2735,-59.8418C375.5565,-61.8631 384.8612,-63.8891 393.3551,-65.7386"/>
<polygon fill="#000000" stroke="#000000" points="392.742,-69.1871 403.2577,-67.8948 394.2313,-62.3473 392.742,-69.1871"/>
</g>
<!-- 139977729349008 -->
<g id="node9" class="node">
<title>139977729349008</title>
<polygon fill="none" stroke="#000000" points="0,-56.5 0,-92.5 118,-92.5 118,-56.5 0,-56.5"/>
<text text-anchor="middle" x="11.5" y="-70.8" font-family="Times,serif" font-size="14.00" fill="#000000">a</text>
<polyline fill="none" stroke="#000000" points="23,-56.5 23,-92.5 "/>
<text text-anchor="middle" x="70.5" y="-70.8" font-family="Times,serif" font-size="14.00" fill="#000000">valor &#45;2.0000</text>
</g>
<!-- 139977729349008&#45;&gt;139977728042704* -->
<g id="edge6" class="edge">
<title>139977729349008&#45;&gt;139977728042704*</title>
<path fill="none" stroke="#000000" d="M118.2131,-87.6045C127.4497,-89.6487 136.7409,-91.705 145.2387,-93.5856"/>
<polygon fill="#000000" stroke="#000000" points="144.6337,-97.0363 155.1537,-95.7799 146.1463,-90.2017 144.6337,-97.0363"/>
</g>
<!-- 139977729350608 -->
<g id="node10" class="node">
<title>139977729350608</title>
<polygon fill="none" stroke="#000000" points="492,-.5 492,-36.5 608,-36.5 608,-.5 492,-.5"/>
<text text-anchor="middle" x="502.5" y="-14.8" font-family="Times,serif" font-size="14.00" fill="#000000">f</text>
<polyline fill="none" stroke="#000000" points="513,-.5 513,-36.5 "/>
<text text-anchor="middle" x="560.5" y="-14.8" font-family="Times,serif" font-size="14.00" fill="#000000">valor &#45;3.0000</text>
</g>
<!-- 139977729350608&#45;&gt;139977729351184* -->
<g id="edge8" class="edge">
<title>139977729350608&#45;&gt;139977729351184*</title>
<path fill="none" stroke="#000000" d="M608.0192,-31.4464C617.3331,-33.5247 626.7255,-35.6206 635.3115,-37.5365"/>
<polygon fill="#000000" stroke="#000000" points="634.8029,-41.009 645.3251,-39.7709 636.3274,-34.177 634.8029,-41.009"/>
</g>
</g>
</svg>
