<?xml version="1.0" encoding="UTF-8" standalone="no"?>
<!DOCTYPE svg PUBLIC "-//W3C//DTD SVG 1.1//EN"
 "http://www.w3.org/Graphics/SVG/1.1/DTD/svg11.dtd">
<!-- Generated by graphviz version 2.40.1 (20161225.0304)
 -->
<!-- Title: %3 Pages: 1 -->
<svg width="1219pt" height="154pt"
 viewBox="0.00 0.00 1219.00 154.00" xmlns="http://www.w3.org/2000/svg" xmlns:xlink="http://www.w3.org/1999/xlink">
<g id="graph0" class="graph" transform="scale(1 1) rotate(0) translate(4 150)">
<title>%3</title>
<polygon fill="#ffffff" stroke="transparent" points="-4,4 -4,-150 1215,-150 1215,4 -4,4"/>
<!-- 140592659097680 -->
<g id="node1" class="node">
<title>140592659097680</title>
<polygon fill="none" stroke="#000000" points="666,-109.5 666,-145.5 869,-145.5 869,-109.5 666,-109.5"/>
<text text-anchor="middle" x="676.5" y="-123.8" font-family="Times,serif" font-size="14.00" fill="#000000">f</text>
<polyline fill="none" stroke="#000000" points="687,-109.5 687,-145.5 "/>
<text text-anchor="middle" x="734.5" y="-123.8" font-family="Times,serif" font-size="14.00" fill="#000000">valor &#45;3.0000</text>
<polyline fill="none" stroke="#000000" points="782,-109.5 782,-145.5 "/>
<text text-anchor="middle" x="825.5" y="-123.8" font-family="Times,serif" font-size="14.00" fill="#000000">grad 0.0000</text>
</g>
<!-- 140592637726608* -->
<g id="node8" class="node">
<title>140592637726608*</title>
<ellipse fill="none" stroke="#000000" cx="932" cy="-99.5" rx="27" ry="18"/>
<text text-anchor="middle" x="932" y="-95.8" font-family="Times,serif" font-size="14.00" fill="#000000">*</text>
</g>
<!-- 140592659097680&#45;&gt;140592637726608* -->
<g id="edge8" class="edge">
<title>140592659097680&#45;&gt;140592637726608*</title>
<path fill="none" stroke="#000000" d="M869.3403,-110.1655C878.6634,-108.5786 887.6299,-107.0523 895.7219,-105.675"/>
<polygon fill="#000000" stroke="#000000" points="896.5414,-109.0859 905.8123,-103.9575 895.3668,-102.1852 896.5414,-109.0859"/>
</g>
<!-- 140592659095696 -->
<g id="node2" class="node">
<title>140592659095696</title>
<polygon fill="none" stroke="#000000" points="331,-82.5 331,-118.5 540,-118.5 540,-82.5 331,-82.5"/>
<text text-anchor="middle" x="343" y="-96.8" font-family="Times,serif" font-size="14.00" fill="#000000">d</text>
<polyline fill="none" stroke="#000000" points="355,-82.5 355,-118.5 "/>
<text text-anchor="middle" x="404" y="-96.8" font-family="Times,serif" font-size="14.00" fill="#000000">valor 10.0000</text>
<polyline fill="none" stroke="#000000" points="453,-82.5 453,-118.5 "/>
<text text-anchor="middle" x="496.5" y="-96.8" font-family="Times,serif" font-size="14.00" fill="#000000">grad 0.0000</text>
</g>
<!-- 140592659096208+ -->
<g id="node4" class="node">
<title>140592659096208+</title>
<ellipse fill="none" stroke="#000000" cx="603" cy="-72.5" rx="27" ry="18"/>
<text text-anchor="middle" x="603" y="-68.8" font-family="Times,serif" font-size="14.00" fill="#000000">+</text>
</g>
<!-- 140592659095696&#45;&gt;140592659096208+ -->
<g id="edge6" class="edge">
<title>140592659095696&#45;&gt;140592659096208+</title>
<path fill="none" stroke="#000000" d="M540.1526,-83.0058C549.5327,-81.4378 558.539,-79.9323 566.6588,-78.5749"/>
<polygon fill="#000000" stroke="#000000" points="567.4932,-81.9841 576.7792,-76.8832 566.339,-75.0799 567.4932,-81.9841"/>
</g>
<!-- 140592659096208 -->
<g id="node3" class="node">
<title>140592659096208</title>
<polygon fill="none" stroke="#000000" points="667,-54.5 667,-90.5 868,-90.5 868,-54.5 667,-54.5"/>
<text text-anchor="middle" x="678.5" y="-68.8" font-family="Times,serif" font-size="14.00" fill="#000000">e</text>
<polyline fill="none" stroke="#000000" points="690,-54.5 690,-90.5 "/>
<text text-anchor="middle" x="735.5" y="-68.8" font-family="Times,serif" font-size="14.00" fill="#000000">valor 4.0000</text>
<polyline fill="none" stroke="#000000" points="781,-54.5 781,-90.5 "/>
<text text-anchor="middle" x="824.5" y="-68.8" font-family="Times,serif" font-size="14.00" fill="#000000">grad 0.0000</text>
</g>
<!-- 140592659096208&#45;&gt;140592637726608* -->
<g id="edge9" class="edge">
<title>140592659096208&#45;&gt;140592637726608*</title>
<path fill="none" stroke="#000000" d="M868.4,-89.0611C878.0329,-90.6422 887.3055,-92.1641 895.6508,-93.5339"/>
<polygon fill="#000000" stroke="#000000" points="895.248,-97.0145 905.6828,-95.1805 896.3818,-90.1069 895.248,-97.0145"/>
</g>
<!-- 140592659096208+&#45;&gt;140592659096208 -->
<g id="edge1" class="edge">
<title>140592659096208+&#45;&gt;140592659096208</title>
<path fill="none" stroke="#000000" d="M630.1638,-72.5C637.9526,-72.5 646.9611,-72.5 656.5662,-72.5"/>
<polygon fill="#000000" stroke="#000000" points="656.7656,-76.0001 666.7655,-72.5 656.7655,-69.0001 656.7656,-76.0001"/>
</g>
<!-- 140592659097360 -->
<g id="node5" class="node">
<title>140592659097360</title>
<polygon fill="none" stroke="#000000" points="0,-55.5 0,-91.5 205,-91.5 205,-55.5 0,-55.5"/>
<text text-anchor="middle" x="11.5" y="-69.8" font-family="Times,serif" font-size="14.00" fill="#000000">a</text>
<polyline fill="none" stroke="#000000" points="23,-55.5 23,-91.5 "/>
<text text-anchor="middle" x="70.5" y="-69.8" font-family="Times,serif" font-size="14.00" fill="#000000">valor &#45;2.0000</text>
<polyline fill="none" stroke="#000000" points="118,-55.5 118,-91.5 "/>
<text text-anchor="middle" x="161.5" y="-69.8" font-family="Times,serif" font-size="14.00" fill="#000000">grad 0.0000</text>
</g>
<!-- 140592659097552* -->
<g id="node10" class="node">
<title>140592659097552*</title>
<ellipse fill="none" stroke="#000000" cx="268" cy="-45.5" rx="27" ry="18"/>
<text text-anchor="middle" x="268" y="-41.8" font-family="Times,serif" font-size="14.00" fill="#000000">*</text>
</g>
<!-- 140592659097360&#45;&gt;140592659097552* -->
<g id="edge4" class="edge">
<title>140592659097360&#45;&gt;140592659097552*</title>
<path fill="none" stroke="#000000" d="M205.4315,-56.0856C214.6641,-54.5236 223.5398,-53.022 231.5595,-51.6652"/>
<polygon fill="#000000" stroke="#000000" points="232.2913,-55.0912 241.5673,-49.972 231.1235,-48.1893 232.2913,-55.0912"/>
</g>
<!-- 140592659096400 -->
<g id="node6" class="node">
<title>140592659096400</title>
<polygon fill="none" stroke="#000000" points="1.5,-.5 1.5,-36.5 203.5,-36.5 203.5,-.5 1.5,-.5"/>
<text text-anchor="middle" x="13.5" y="-14.8" font-family="Times,serif" font-size="14.00" fill="#000000">b</text>
<polyline fill="none" stroke="#000000" points="25.5,-.5 25.5,-36.5 "/>
<text text-anchor="middle" x="71" y="-14.8" font-family="Times,serif" font-size="14.00" fill="#000000">valor 3.0000</text>
<polyline fill="none" stroke="#000000" points="116.5,-.5 116.5,-36.5 "/>
<text text-anchor="middle" x="160" y="-14.8" font-family="Times,serif" font-size="14.00" fill="#000000">grad 0.0000</text>
</g>
<!-- 140592659096400&#45;&gt;140592659097552* -->
<g id="edge7" class="edge">
<title>140592659096400&#45;&gt;140592659097552*</title>
<path fill="none" stroke="#000000" d="M203.5395,-34.9838C213.4913,-36.6073 223.0717,-38.1703 231.6649,-39.5722"/>
<polygon fill="#000000" stroke="#000000" points="231.1828,-43.0398 241.6159,-41.1957 232.31,-36.1311 231.1828,-43.0398"/>
</g>
<!-- 140592637726608 -->
<g id="node7" class="node">
<title>140592637726608</title>
<polygon fill="none" stroke="#000000" points="995,-81.5 995,-117.5 1211,-117.5 1211,-81.5 995,-81.5"/>
<text text-anchor="middle" x="1008" y="-95.8" font-family="Times,serif" font-size="14.00" fill="#000000">L</text>
<polyline fill="none" stroke="#000000" points="1021,-81.5 1021,-117.5 "/>
<text text-anchor="middle" x="1072.5" y="-95.8" font-family="Times,serif" font-size="14.00" fill="#000000">valor &#45;12.0000</text>
<polyline fill="none" stroke="#000000" points="1124,-81.5 1124,-117.5 "/>
<text text-anchor="middle" x="1167.5" y="-95.8" font-family="Times,serif" font-size="14.00" fill="#000000">grad 0.0000</text>
</g>
<!-- 140592637726608*&#45;&gt;140592637726608 -->
<g id="edge2" class="edge">
<title>140592637726608*&#45;&gt;140592637726608</title>
<path fill="none" stroke="#000000" d="M959.0955,-99.5C966.714,-99.5 975.5177,-99.5 984.9418,-99.5"/>
<polygon fill="#000000" stroke="#000000" points="984.9636,-103.0001 994.9636,-99.5 984.9636,-96.0001 984.9636,-103.0001"/>
</g>
<!-- 140592659097552 -->
<g id="node9" class="node">
<title>140592659097552</title>
<polygon fill="none" stroke="#000000" points="333,-27.5 333,-63.5 538,-63.5 538,-27.5 333,-27.5"/>
<text text-anchor="middle" x="344.5" y="-41.8" font-family="Times,serif" font-size="14.00" fill="#000000">c</text>
<polyline fill="none" stroke="#000000" points="356,-27.5 356,-63.5 "/>
<text text-anchor="middle" x="403.5" y="-41.8" font-family="Times,serif" font-size="14.00" fill="#000000">valor &#45;6.0000</text>
<polyline fill="none" stroke="#000000" points="451,-27.5 451,-63.5 "/>
<text text-anchor="middle" x="494.5" y="-41.8" font-family="Times,serif" font-size="14.00" fill="#000000">grad 0.0000</text>
</g>
<!-- 140592659097552&#45;&gt;140592659096208+ -->
<g id="edge5" class="edge">
<title>140592659097552&#45;&gt;140592659096208+</title>
<path fill="none" stroke="#000000" d="M538.2401,-62.0611C548.254,-63.6753 557.8855,-65.2278 566.5202,-66.6197"/>
<polygon fill="#000000" stroke="#000000" points="566.0873,-70.095 576.5169,-68.2311 567.2014,-63.1842 566.0873,-70.095"/>
</g>
<!-- 140592659097552*&#45;&gt;140592659097552 -->
<g id="edge3" class="edge">
<title>140592659097552*&#45;&gt;140592659097552</title>
<path fill="none" stroke="#000000" d="M295.2846,-45.5C303.3496,-45.5 312.7223,-45.5 322.7253,-45.5"/>
<polygon fill="#000000" stroke="#000000" points="322.9135,-49.0001 332.9134,-45.5 322.9134,-42.0001 322.9135,-49.0001"/>
</g>
</g>
</svg>
