<?xml version="1.0" encoding="UTF-8" standalone="no"?>
<!DOCTYPE svg PUBLIC "-//W3C//DTD SVG 1.1//EN"
 "http://www.w3.org/Graphics/SVG/1.1/DTD/svg11.dtd">
<!-- Generated by graphviz version 2.40.1 (20161225.0304)
 -->
<!-- Title: %3 Pages: 1 -->
<svg width="1219pt" height="128pt"
 viewBox="0.00 0.00 1219.00 128.00" xmlns="http://www.w3.org/2000/svg" xmlns:xlink="http://www.w3.org/1999/xlink">
<g id="graph0" class="graph" transform="scale(1 1) rotate(0) translate(4 124)">
<title>%3</title>
<polygon fill="#ffffff" stroke="transparent" points="-4,4 -4,-124 1215,-124 1215,4 -4,4"/>
<!-- 139977686514704 -->
<g id="node1" class="node">
<title>139977686514704</title>
<polygon fill="none" stroke="#000000" points="666,-82.5 666,-118.5 869,-118.5 869,-82.5 666,-82.5"/>
<text text-anchor="middle" x="676.5" y="-96.8" font-family="Times,serif" font-size="14.00" fill="#000000">f</text>
<polyline fill="none" stroke="#000000" points="687,-82.5 687,-118.5 "/>
<text text-anchor="middle" x="734.5" y="-96.8" font-family="Times,serif" font-size="14.00" fill="#000000">valor &#45;3.0000</text>
<polyline fill="none" stroke="#000000" points="782,-82.5 782,-118.5 "/>
<text text-anchor="middle" x="825.5" y="-96.8" font-family="Times,serif" font-size="14.00" fill="#000000">grad 0.0000</text>
</g>
<!-- 139977686551184* -->
<g id="node3" class="node">
<title>139977686551184*</title>
<ellipse fill="none" stroke="#000000" cx="932" cy="-72.5" rx="27" ry="18"/>
<text text-anchor="middle" x="932" y="-68.8" font-family="Times,serif" font-size="14.00" fill="#000000">*</text>
</g>
<!-- 139977686514704&#45;&gt;139977686551184* -->
<g id="edge9" class="edge">
<title>139977686514704&#45;&gt;139977686551184*</title>
<path fill="none" stroke="#000000" d="M869.3403,-83.1655C878.6634,-81.5786 887.6299,-80.0523 895.7219,-78.675"/>
<polygon fill="#000000" stroke="#000000" points="896.5414,-82.0859 905.8123,-76.9575 895.3668,-75.1852 896.5414,-82.0859"/>
</g>
<!-- 139977686551184 -->
<g id="node2" class="node">
<title>139977686551184</title>
<polygon fill="none" stroke="#000000" points="995,-54.5 995,-90.5 1211,-90.5 1211,-54.5 995,-54.5"/>
<text text-anchor="middle" x="1008" y="-68.8" font-family="Times,serif" font-size="14.00" fill="#000000">L</text>
<polyline fill="none" stroke="#000000" points="1021,-54.5 1021,-90.5 "/>
<text text-anchor="middle" x="1072.5" y="-68.8" font-family="Times,serif" font-size="14.00" fill="#000000">valor &#45;12.0000</text>
<polyline fill="none" stroke="#000000" points="1124,-54.5 1124,-90.5 "/>
<text text-anchor="middle" x="1167.5" y="-68.8" font-family="Times,serif" font-size="14.00" fill="#000000">grad 0.0000</text>
</g>
<!-- 139977686551184*&#45;&gt;139977686551184 -->
<g id="edge1" class="edge">
<title>139977686551184*&#45;&gt;139977686551184</title>
<path fill="none" stroke="#000000" d="M959.0955,-72.5C966.714,-72.5 975.5177,-72.5 984.9418,-72.5"/>
<polygon fill="#000000" stroke="#000000" points="984.9636,-76.0001 994.9636,-72.5 984.9636,-69.0001 984.9636,-76.0001"/>
</g>
<!-- 139977686511824 -->
<g id="node4" class="node">
<title>139977686511824</title>
<polygon fill="none" stroke="#000000" points="1.5,-83.5 1.5,-119.5 203.5,-119.5 203.5,-83.5 1.5,-83.5"/>
<text text-anchor="middle" x="13.5" y="-97.8" font-family="Times,serif" font-size="14.00" fill="#000000">b</text>
<polyline fill="none" stroke="#000000" points="25.5,-83.5 25.5,-119.5 "/>
<text text-anchor="middle" x="71" y="-97.8" font-family="Times,serif" font-size="14.00" fill="#000000">valor 3.0000</text>
<polyline fill="none" stroke="#000000" points="116.5,-83.5 116.5,-119.5 "/>
<text text-anchor="middle" x="160" y="-97.8" font-family="Times,serif" font-size="14.00" fill="#000000">grad 0.0000</text>
</g>
<!-- 139977686513040* -->
<g id="node9" class="node">
<title>139977686513040*</title>
<ellipse fill="none" stroke="#000000" cx="268" cy="-73.5" rx="27" ry="18"/>
<text text-anchor="middle" x="268" y="-69.8" font-family="Times,serif" font-size="14.00" fill="#000000">*</text>
</g>
<!-- 139977686511824&#45;&gt;139977686513040* -->
<g id="edge8" class="edge">
<title>139977686511824&#45;&gt;139977686513040*</title>
<path fill="none" stroke="#000000" d="M203.5395,-84.4057C213.4913,-82.722 223.0717,-81.1012 231.6649,-79.6473"/>
<polygon fill="#000000" stroke="#000000" points="232.3399,-83.0829 241.6159,-77.9638 231.1722,-76.181 232.3399,-83.0829"/>
</g>
<!-- 139977686515472 -->
<g id="node5" class="node">
<title>139977686515472</title>
<polygon fill="none" stroke="#000000" points="667,-27.5 667,-63.5 868,-63.5 868,-27.5 667,-27.5"/>
<text text-anchor="middle" x="678.5" y="-41.8" font-family="Times,serif" font-size="14.00" fill="#000000">e</text>
<polyline fill="none" stroke="#000000" points="690,-27.5 690,-63.5 "/>
<text text-anchor="middle" x="735.5" y="-41.8" font-family="Times,serif" font-size="14.00" fill="#000000">valor 4.0000</text>
<polyline fill="none" stroke="#000000" points="781,-27.5 781,-63.5 "/>
<text text-anchor="middle" x="824.5" y="-41.8" font-family="Times,serif" font-size="14.00" fill="#000000">grad 0.0000</text>
</g>
<!-- 139977686515472&#45;&gt;139977686551184* -->
<g id="edge6" class="edge">
<title>139977686515472&#45;&gt;139977686551184*</title>
<path fill="none" stroke="#000000" d="M868.4,-62.0611C878.0329,-63.6422 887.3055,-65.1641 895.6508,-66.5339"/>
<polygon fill="#000000" stroke="#000000" points="895.248,-70.0145 905.6828,-68.1805 896.3818,-63.1069 895.248,-70.0145"/>
</g>
<!-- 139977686515472+ -->
<g id="node6" class="node">
<title>139977686515472+</title>
<ellipse fill="none" stroke="#000000" cx="603" cy="-45.5" rx="27" ry="18"/>
<text text-anchor="middle" x="603" y="-41.8" font-family="Times,serif" font-size="14.00" fill="#000000">+</text>
</g>
<!-- 139977686515472+&#45;&gt;139977686515472 -->
<g id="edge2" class="edge">
<title>139977686515472+&#45;&gt;139977686515472</title>
<path fill="none" stroke="#000000" d="M630.1638,-45.5C637.9526,-45.5 646.9611,-45.5 656.5662,-45.5"/>
<polygon fill="#000000" stroke="#000000" points="656.7656,-49.0001 666.7655,-45.5 656.7655,-42.0001 656.7656,-49.0001"/>
</g>
<!-- 139977686514512 -->
<g id="node7" class="node">
<title>139977686514512</title>
<polygon fill="none" stroke="#000000" points="0,-28.5 0,-64.5 205,-64.5 205,-28.5 0,-28.5"/>
<text text-anchor="middle" x="11.5" y="-42.8" font-family="Times,serif" font-size="14.00" fill="#000000">a</text>
<polyline fill="none" stroke="#000000" points="23,-28.5 23,-64.5 "/>
<text text-anchor="middle" x="70.5" y="-42.8" font-family="Times,serif" font-size="14.00" fill="#000000">valor &#45;2.0000</text>
<polyline fill="none" stroke="#000000" points="118,-28.5 118,-64.5 "/>
<text text-anchor="middle" x="161.5" y="-42.8" font-family="Times,serif" font-size="14.00" fill="#000000">grad 0.0000</text>
</g>
<!-- 139977686514512&#45;&gt;139977686513040* -->
<g id="edge4" class="edge">
<title>139977686514512&#45;&gt;139977686513040*</title>
<path fill="none" stroke="#000000" d="M205.4315,-63.2925C214.6641,-64.7987 223.5398,-66.2467 231.5595,-67.555"/>
<polygon fill="#000000" stroke="#000000" points="231.1342,-71.0318 241.5673,-69.1877 232.2613,-64.1232 231.1342,-71.0318"/>
</g>
<!-- 139977686513040 -->
<g id="node8" class="node">
<title>139977686513040</title>
<polygon fill="none" stroke="#000000" points="333,-55.5 333,-91.5 538,-91.5 538,-55.5 333,-55.5"/>
<text text-anchor="middle" x="344.5" y="-69.8" font-family="Times,serif" font-size="14.00" fill="#000000">c</text>
<polyline fill="none" stroke="#000000" points="356,-55.5 356,-91.5 "/>
<text text-anchor="middle" x="403.5" y="-69.8" font-family="Times,serif" font-size="14.00" fill="#000000">valor &#45;6.0000</text>
<polyline fill="none" stroke="#000000" points="451,-55.5 451,-91.5 "/>
<text text-anchor="middle" x="494.5" y="-69.8" font-family="Times,serif" font-size="14.00" fill="#000000">grad 0.0000</text>
</g>
<!-- 139977686513040&#45;&gt;139977686515472+ -->
<g id="edge7" class="edge">
<title>139977686513040&#45;&gt;139977686515472+</title>
<path fill="none" stroke="#000000" d="M538.2401,-56.3255C548.254,-54.6516 557.8855,-53.0415 566.5202,-51.5981"/>
<polygon fill="#000000" stroke="#000000" points="567.2309,-55.028 576.5169,-49.927 566.0767,-48.1238 567.2309,-55.028"/>
</g>
<!-- 139977686513040*&#45;&gt;139977686513040 -->
<g id="edge3" class="edge">
<title>139977686513040*&#45;&gt;139977686513040</title>
<path fill="none" stroke="#000000" d="M295.2846,-73.5C303.3496,-73.5 312.7223,-73.5 322.7253,-73.5"/>
<polygon fill="#000000" stroke="#000000" points="322.9135,-77.0001 332.9134,-73.5 322.9134,-70.0001 322.9135,-77.0001"/>
</g>
<!-- 139977686515664 -->
<g id="node10" class="node">
<title>139977686515664</title>
<polygon fill="none" stroke="#000000" points="331,-.5 331,-36.5 540,-36.5 540,-.5 331,-.5"/>
<text text-anchor="middle" x="343" y="-14.8" font-family="Times,serif" font-size="14.00" fill="#000000">d</text>
<polyline fill="none" stroke="#000000" points="355,-.5 355,-36.5 "/>
<text text-anchor="middle" x="404" y="-14.8" font-family="Times,serif" font-size="14.00" fill="#000000">valor 10.0000</text>
<polyline fill="none" stroke="#000000" points="453,-.5 453,-36.5 "/>
<text text-anchor="middle" x="496.5" y="-14.8" font-family="Times,serif" font-size="14.00" fill="#000000">grad 0.0000</text>
</g>
<!-- 139977686515664&#45;&gt;139977686515472+ -->
<g id="edge5" class="edge">
<title>139977686515664&#45;&gt;139977686515472+</title>
<path fill="none" stroke="#000000" d="M540.1526,-35.3694C549.4407,-36.8666 558.3624,-38.3047 566.4197,-39.6035"/>
<polygon fill="#000000" stroke="#000000" points="566.0426,-43.0878 576.4721,-41.2239 567.1566,-36.177 566.0426,-43.0878"/>
</g>
</g>
</svg>
