<?xml version="1.0" encoding="UTF-8" standalone="no"?>
<!DOCTYPE svg PUBLIC "-//W3C//DTD SVG 1.1//EN"
 "http://www.w3.org/Graphics/SVG/1.1/DTD/svg11.dtd">
<!-- Generated by graphviz version 2.40.1 (20161225.0304)
 -->
<!-- Title: %3 Pages: 1 -->
<svg width="871pt" height="128pt"
 viewBox="0.00 0.00 871.00 128.00" xmlns="http://www.w3.org/2000/svg" xmlns:xlink="http://www.w3.org/1999/xlink">
<g id="graph0" class="graph" transform="scale(1 1) rotate(0) translate(4 124)">
<title>%3</title>
<polygon fill="#ffffff" stroke="transparent" points="-4,4 -4,-124 867,-124 867,4 -4,4"/>
<!-- 140292367375440 -->
<g id="node1" class="node">
<title>140292367375440</title>
<polygon fill="none" stroke="#000000" points="493,-27.5 493,-63.5 607,-63.5 607,-27.5 493,-27.5"/>
<text text-anchor="middle" x="504.5" y="-41.8" font-family="Times,serif" font-size="14.00" fill="#000000">e</text>
<polyline fill="none" stroke="#000000" points="516,-27.5 516,-63.5 "/>
<text text-anchor="middle" x="561.5" y="-41.8" font-family="Times,serif" font-size="14.00" fill="#000000">valor 4.0000</text>
</g>
<!-- 140292368105808* -->
<g id="node9" class="node">
<title>140292368105808*</title>
<ellipse fill="none" stroke="#000000" cx="671" cy="-72.5" rx="27" ry="18"/>
<text text-anchor="middle" x="671" y="-68.8" font-family="Times,serif" font-size="14.00" fill="#000000">*</text>
</g>
<!-- 140292367375440&#45;&gt;140292368105808* -->
<g id="edge6" class="edge">
<title>140292367375440&#45;&gt;140292368105808*</title>
<path fill="none" stroke="#000000" d="M607.3109,-58.2884C616.8819,-60.4241 626.5597,-62.5836 635.3825,-64.5523"/>
<polygon fill="#000000" stroke="#000000" points="634.767,-68.001 645.2893,-66.7629 636.2916,-61.169 634.767,-68.001"/>
</g>
<!-- 140292367375440+ -->
<g id="node2" class="node">
<title>140292367375440+</title>
<ellipse fill="none" stroke="#000000" cx="429" cy="-45.5" rx="27" ry="18"/>
<text text-anchor="middle" x="429" y="-41.8" font-family="Times,serif" font-size="14.00" fill="#000000">+</text>
</g>
<!-- 140292367375440+&#45;&gt;140292367375440 -->
<g id="edge1" class="edge">
<title>140292367375440+&#45;&gt;140292367375440</title>
<path fill="none" stroke="#000000" d="M456.1548,-45.5C464.1372,-45.5 473.2459,-45.5 482.5772,-45.5"/>
<polygon fill="#000000" stroke="#000000" points="482.7472,-49.0001 492.7472,-45.5 482.7472,-42.0001 482.7472,-49.0001"/>
</g>
<!-- 140292368105552 -->
<g id="node3" class="node">
<title>140292368105552</title>
<polygon fill="none" stroke="#000000" points="492,-82.5 492,-118.5 608,-118.5 608,-82.5 492,-82.5"/>
<text text-anchor="middle" x="502.5" y="-96.8" font-family="Times,serif" font-size="14.00" fill="#000000">f</text>
<polyline fill="none" stroke="#000000" points="513,-82.5 513,-118.5 "/>
<text text-anchor="middle" x="560.5" y="-96.8" font-family="Times,serif" font-size="14.00" fill="#000000">valor &#45;3.0000</text>
</g>
<!-- 140292368105552&#45;&gt;140292368105808* -->
<g id="edge7" class="edge">
<title>140292368105552&#45;&gt;140292368105808*</title>
<path fill="none" stroke="#000000" d="M608.0192,-87.0741C617.3331,-84.9188 626.7255,-82.7453 635.3115,-80.7585"/>
<polygon fill="#000000" stroke="#000000" points="636.3717,-84.1057 645.3251,-78.4413 634.7935,-77.2859 636.3717,-84.1057"/>
</g>
<!-- 140292368106192 -->
<g id="node4" class="node">
<title>140292368106192</title>
<polygon fill="none" stroke="#000000" points="246,-55.5 246,-91.5 364,-91.5 364,-55.5 246,-55.5"/>
<text text-anchor="middle" x="257.5" y="-69.8" font-family="Times,serif" font-size="14.00" fill="#000000">c</text>
<polyline fill="none" stroke="#000000" points="269,-55.5 269,-91.5 "/>
<text text-anchor="middle" x="316.5" y="-69.8" font-family="Times,serif" font-size="14.00" fill="#000000">valor &#45;6.0000</text>
</g>
<!-- 140292368106192&#45;&gt;140292367375440+ -->
<g id="edge5" class="edge">
<title>140292368106192&#45;&gt;140292367375440+</title>
<path fill="none" stroke="#000000" d="M364.0947,-60.156C374.0654,-57.9046 384.1366,-55.6305 393.2736,-53.5672"/>
<polygon fill="#000000" stroke="#000000" points="394.1542,-56.9566 403.1376,-51.3399 392.6123,-50.1285 394.1542,-56.9566"/>
</g>
<!-- 140292368106192* -->
<g id="node5" class="node">
<title>140292368106192*</title>
<ellipse fill="none" stroke="#000000" cx="181" cy="-73.5" rx="27" ry="18"/>
<text text-anchor="middle" x="181" y="-69.8" font-family="Times,serif" font-size="14.00" fill="#000000">*</text>
</g>
<!-- 140292368106192*&#45;&gt;140292368106192 -->
<g id="edge2" class="edge">
<title>140292368106192*&#45;&gt;140292368106192</title>
<path fill="none" stroke="#000000" d="M208.2123,-73.5C216.4666,-73.5 225.9371,-73.5 235.6518,-73.5"/>
<polygon fill="#000000" stroke="#000000" points="235.8231,-77.0001 245.8231,-73.5 235.823,-70.0001 235.8231,-77.0001"/>
</g>
<!-- 140292368105744 -->
<g id="node6" class="node">
<title>140292368105744</title>
<polygon fill="none" stroke="#000000" points="244,-.5 244,-36.5 366,-36.5 366,-.5 244,-.5"/>
<text text-anchor="middle" x="256" y="-14.8" font-family="Times,serif" font-size="14.00" fill="#000000">d</text>
<polyline fill="none" stroke="#000000" points="268,-.5 268,-36.5 "/>
<text text-anchor="middle" x="317" y="-14.8" font-family="Times,serif" font-size="14.00" fill="#000000">valor 10.0000</text>
</g>
<!-- 140292368105744&#45;&gt;140292367375440+ -->
<g id="edge4" class="edge">
<title>140292368105744&#45;&gt;140292367375440+</title>
<path fill="none" stroke="#000000" d="M366.2735,-31.8418C375.5565,-33.8631 384.8612,-35.8891 393.3551,-37.7386"/>
<polygon fill="#000000" stroke="#000000" points="392.742,-41.1871 403.2577,-39.8948 394.2313,-34.3473 392.742,-41.1871"/>
</g>
<!-- 140292368109328 -->
<g id="node7" class="node">
<title>140292368109328</title>
<polygon fill="none" stroke="#000000" points="1.5,-83.5 1.5,-119.5 116.5,-119.5 116.5,-83.5 1.5,-83.5"/>
<text text-anchor="middle" x="13.5" y="-97.8" font-family="Times,serif" font-size="14.00" fill="#000000">b</text>
<polyline fill="none" stroke="#000000" points="25.5,-83.5 25.5,-119.5 "/>
<text text-anchor="middle" x="71" y="-97.8" font-family="Times,serif" font-size="14.00" fill="#000000">valor 3.0000</text>
</g>
<!-- 140292368109328&#45;&gt;140292368106192* -->
<g id="edge8" class="edge">
<title>140292368109328&#45;&gt;140292368106192*</title>
<path fill="none" stroke="#000000" d="M116.7845,-88.238C126.629,-85.9786 136.5855,-83.6935 145.6246,-81.6189"/>
<polygon fill="#000000" stroke="#000000" points="146.4217,-85.0271 155.3853,-79.3788 144.8558,-78.2045 146.4217,-85.0271"/>
</g>
<!-- 140292368105808 -->
<g id="node8" class="node">
<title>140292368105808</title>
<polygon fill="none" stroke="#000000" points="734,-54.5 734,-90.5 863,-90.5 863,-54.5 734,-54.5"/>
<text text-anchor="middle" x="747" y="-68.8" font-family="Times,serif" font-size="14.00" fill="#000000">L</text>
<polyline fill="none" stroke="#000000" points="760,-54.5 760,-90.5 "/>
<text text-anchor="middle" x="811.5" y="-68.8" font-family="Times,serif" font-size="14.00" fill="#000000">valor &#45;12.0000</text>
</g>
<!-- 140292368105808*&#45;&gt;140292368105808 -->
<g id="edge3" class="edge">
<title>140292368105808*&#45;&gt;140292368105808</title>
<path fill="none" stroke="#000000" d="M698.0395,-72.5C705.8233,-72.5 714.7148,-72.5 723.9166,-72.5"/>
<polygon fill="#000000" stroke="#000000" points="723.9855,-76.0001 733.9854,-72.5 723.9854,-69.0001 723.9855,-76.0001"/>
</g>
<!-- 140292368108880 -->
<g id="node10" class="node">
<title>140292368108880</title>
<polygon fill="none" stroke="#000000" points="0,-28.5 0,-64.5 118,-64.5 118,-28.5 0,-28.5"/>
<text text-anchor="middle" x="11.5" y="-42.8" font-family="Times,serif" font-size="14.00" fill="#000000">a</text>
<polyline fill="none" stroke="#000000" points="23,-28.5 23,-64.5 "/>
<text text-anchor="middle" x="70.5" y="-42.8" font-family="Times,serif" font-size="14.00" fill="#000000">valor &#45;2.0000</text>
</g>
<!-- 140292368108880&#45;&gt;140292368106192* -->
<g id="edge9" class="edge">
<title>140292368108880&#45;&gt;140292368106192*</title>
<path fill="none" stroke="#000000" d="M118.2131,-59.6045C127.4497,-61.6487 136.7409,-63.705 145.2387,-65.5856"/>
<polygon fill="#000000" stroke="#000000" points="144.6337,-69.0363 155.1537,-67.7799 146.1463,-62.2017 144.6337,-69.0363"/>
</g>
</g>
</svg>
