<?xml version="1.0" encoding="UTF-8" standalone="no"?>
<!DOCTYPE svg PUBLIC "-//W3C//DTD SVG 1.1//EN"
 "http://www.w3.org/Graphics/SVG/1.1/DTD/svg11.dtd">
<!-- Generated by graphviz version 2.40.1 (20161225.0304)
 -->
<!-- Title: %3 Pages: 1 -->
<svg width="370pt" height="100pt"
 viewBox="0.00 0.00 370.00 100.00" xmlns="http://www.w3.org/2000/svg" xmlns:xlink="http://www.w3.org/1999/xlink">
<g id="graph0" class="graph" transform="scale(1 1) rotate(0) translate(4 96)">
<title>%3</title>
<polygon fill="#ffffff" stroke="transparent" points="-4,4 -4,-96 366,-96 366,4 -4,4"/>
<!-- 140569342649360 -->
<g id="node1" class="node">
<title>140569342649360</title>
<polygon fill="none" stroke="#000000" points="241,-27.5 241,-63.5 362,-63.5 362,-27.5 241,-27.5"/>
<text text-anchor="middle" x="252.5" y="-41.8" font-family="Times,serif" font-size="14.00" fill="#000000">c</text>
<polyline fill="none" stroke="#000000" points="264,-27.5 264,-63.5 "/>
<text text-anchor="middle" x="313" y="-41.8" font-family="Times,serif" font-size="14.00" fill="#000000">valor 10.0000</text>
</g>
<!-- 140569342649360* -->
<g id="node2" class="node">
<title>140569342649360*</title>
<ellipse fill="none" stroke="#000000" cx="178" cy="-45.5" rx="27" ry="18"/>
<text text-anchor="middle" x="178" y="-41.8" font-family="Times,serif" font-size="14.00" fill="#000000">*</text>
</g>
<!-- 140569342649360*&#45;&gt;140569342649360 -->
<g id="edge1" class="edge">
<title>140569342649360*&#45;&gt;140569342649360</title>
<path fill="none" stroke="#000000" d="M205.1026,-45.5C212.7894,-45.5 221.5352,-45.5 230.5486,-45.5"/>
<polygon fill="#000000" stroke="#000000" points="230.7966,-49.0001 240.7965,-45.5 230.7965,-42.0001 230.7966,-49.0001"/>
</g>
<!-- 140569342648784 -->
<g id="node3" class="node">
<title>140569342648784</title>
<polygon fill="none" stroke="#000000" points="0,-55.5 0,-91.5 115,-91.5 115,-55.5 0,-55.5"/>
<text text-anchor="middle" x="12" y="-69.8" font-family="Times,serif" font-size="14.00" fill="#000000">b</text>
<polyline fill="none" stroke="#000000" points="24,-55.5 24,-91.5 "/>
<text text-anchor="middle" x="69.5" y="-69.8" font-family="Times,serif" font-size="14.00" fill="#000000">valor 5.0000</text>
</g>
<!-- 140569342648784&#45;&gt;140569342649360* -->
<g id="edge2" class="edge">
<title>140569342648784&#45;&gt;140569342649360*</title>
<path fill="none" stroke="#000000" d="M115.2794,-60.0741C124.5548,-57.9188 133.9085,-55.7453 142.459,-53.7585"/>
<polygon fill="#000000" stroke="#000000" points="143.4829,-57.1139 152.4312,-51.4413 141.8985,-50.2955 143.4829,-57.1139"/>
</g>
<!-- 140569342649104 -->
<g id="node4" class="node">
<title>140569342649104</title>
<polygon fill="none" stroke="#000000" points=".5,-.5 .5,-36.5 114.5,-36.5 114.5,-.5 .5,-.5"/>
<text text-anchor="middle" x="12" y="-14.8" font-family="Times,serif" font-size="14.00" fill="#000000">a</text>
<polyline fill="none" stroke="#000000" points="23.5,-.5 23.5,-36.5 "/>
<text text-anchor="middle" x="69" y="-14.8" font-family="Times,serif" font-size="14.00" fill="#000000">valor 2.0000</text>
</g>
<!-- 140569342649104&#45;&gt;140569342649360* -->
<g id="edge3" class="edge">
<title>140569342649104&#45;&gt;140569342649360*</title>
<path fill="none" stroke="#000000" d="M114.5741,-31.2884C124.1055,-33.4241 133.7433,-35.5836 142.5296,-37.5523"/>
<polygon fill="#000000" stroke="#000000" points="141.8722,-40.9917 152.3955,-39.7629 143.4028,-34.1611 141.8722,-40.9917"/>
</g>
</g>
</svg>
