<?xml version="1.0" encoding="UTF-8" standalone="no"?>
<!DOCTYPE svg PUBLIC "-//W3C//DTD SVG 1.1//EN"
 "http://www.w3.org/Graphics/SVG/1.1/DTD/svg11.dtd">
<!-- Generated by graphviz version 2.40.1 (20161225.0304)
 -->
<!-- Title: %3 Pages: 1 -->
<svg width="370pt" height="100pt"
 viewBox="0.00 0.00 370.00 100.00" xmlns="http://www.w3.org/2000/svg" xmlns:xlink="http://www.w3.org/1999/xlink">
<g id="graph0" class="graph" transform="scale(1 1) rotate(0) translate(4 96)">
<title>%3</title>
<polygon fill="#ffffff" stroke="transparent" points="-4,4 -4,-96 366,-96 366,4 -4,4"/>
<!-- 139800168829712 -->
<g id="node1" class="node">
<title>139800168829712</title>
<polygon fill="none" stroke="#000000" points="241,-27.5 241,-63.5 362,-63.5 362,-27.5 241,-27.5"/>
<text text-anchor="middle" x="252.5" y="-41.8" font-family="Times,serif" font-size="14.00" fill="#000000">c</text>
<polyline fill="none" stroke="#000000" points="264,-27.5 264,-63.5 "/>
<text text-anchor="middle" x="313" y="-41.8" font-family="Times,serif" font-size="14.00" fill="#000000">valor 10.0000</text>
</g>
<!-- 139800168829712* -->
<g id="node2" class="node">
<title>139800168829712*</title>
<ellipse fill="none" stroke="#000000" cx="178" cy="-45.5" rx="27" ry="18"/>
<text text-anchor="middle" x="178" y="-41.8" font-family="Times,serif" font-size="14.00" fill="#000000">*</text>
</g>
<!-- 139800168829712*&#45;&gt;139800168829712 -->
<g id="edge1" class="edge">
<title>139800168829712*&#45;&gt;139800168829712</title>
<path fill="none" stroke="#000000" d="M205.1026,-45.5C212.7894,-45.5 221.5352,-45.5 230.5486,-45.5"/>
<polygon fill="#000000" stroke="#000000" points="230.7966,-49.0001 240.7965,-45.5 230.7965,-42.0001 230.7966,-49.0001"/>
</g>
<!-- 139800168831760 -->
<g id="node3" class="node">
<title>139800168831760</title>
<polygon fill="none" stroke="#000000" points=".5,-55.5 .5,-91.5 114.5,-91.5 114.5,-55.5 .5,-55.5"/>
<text text-anchor="middle" x="12" y="-69.8" font-family="Times,serif" font-size="14.00" fill="#000000">a</text>
<polyline fill="none" stroke="#000000" points="23.5,-55.5 23.5,-91.5 "/>
<text text-anchor="middle" x="69" y="-69.8" font-family="Times,serif" font-size="14.00" fill="#000000">valor 2.0000</text>
</g>
<!-- 139800168831760&#45;&gt;139800168829712* -->
<g id="edge3" class="edge">
<title>139800168831760&#45;&gt;139800168829712*</title>
<path fill="none" stroke="#000000" d="M114.5741,-60.238C124.1055,-58.0232 133.7433,-55.7837 142.5296,-53.7421"/>
<polygon fill="#000000" stroke="#000000" points="143.4472,-57.1222 152.3955,-51.4496 141.8628,-50.3038 143.4472,-57.1222"/>
</g>
<!-- 139800168830672 -->
<g id="node4" class="node">
<title>139800168830672</title>
<polygon fill="none" stroke="#000000" points="0,-.5 0,-36.5 115,-36.5 115,-.5 0,-.5"/>
<text text-anchor="middle" x="12" y="-14.8" font-family="Times,serif" font-size="14.00" fill="#000000">b</text>
<polyline fill="none" stroke="#000000" points="24,-.5 24,-36.5 "/>
<text text-anchor="middle" x="69.5" y="-14.8" font-family="Times,serif" font-size="14.00" fill="#000000">valor 5.0000</text>
</g>
<!-- 139800168830672&#45;&gt;139800168829712* -->
<g id="edge2" class="edge">
<title>139800168830672&#45;&gt;139800168829712*</title>
<path fill="none" stroke="#000000" d="M115.2794,-31.4464C124.469,-33.5055 133.7352,-35.5818 142.2213,-37.4832"/>
<polygon fill="#000000" stroke="#000000" points="141.6044,-40.9317 152.1278,-39.7029 143.135,-34.1011 141.6044,-40.9317"/>
</g>
</g>
</svg>
